{"glyphs":{"0":{"ha":642,"x_min":75,"x_max":622,"o":"m 525 890 q 496 898 511 898 q 418 865 462 897 q 245 635 328 800 q 128 282 155 459 q 120 178 120 227 q 186 -20 121 40 q 227 -37 204 -37 q 324 23 270 -37 q 500 368 423 132 q 569 678 554 537 q 574 777 574 727 q 542 884 574 880 q 525 890 534 886 m 375 905 q 467 939 420 939 q 521 925 496 938 q 620 774 606 911 q 622 726 622 751 q 617 649 622 694 q 532 291 600 481 q 370 -14 459 85 q 254 -77 311 -76 q 163 -36 207 -76 q 75 213 75 45 q 134 522 75 357 q 281 806 193 688 q 375 905 328 870 z "},"1":{"ha":378,"x_min":20,"x_max":445,"o":"m 225 815 q 216 840 210 831 q 219 842 218 841 q 250 830 231 847 q 252 827 252 828 q 255 827 254 827 q 340 895 267 827 q 399 948 388 941 q 405 949 402 949 q 437 931 420 949 q 445 915 444 922 q 444 911 445 912 l 71 -66 q 63 -71 68 -70 q 31 -53 48 -71 q 23 -33 20 -41 l 352 827 q 279 789 310 790 q 225 815 250 790 z "},"2":{"ha":755,"x_min":-14,"x_max":725,"o":"m 328 650 q 320 645 325 646 q 288 663 304 645 q 279 680 280 672 q 389 869 279 793 q 526 927 456 916 q 548 929 538 929 q 682 871 631 929 q 725 743 725 821 q 561 392 725 589 q 191 57 425 229 q 273 62 231 62 q 511 12 420 62 q 557 -22 538 -3 q 569 -41 568 -33 q 559 -49 568 -48 q 530 -34 545 -48 q 335 21 475 21 q 109 -16 212 21 q 63 -37 83 -26 q 9 -58 24 -58 q -9 -50 -3 -58 q -14 -36 -14 -43 q 28 12 -12 -17 q 606 549 448 300 q 685 768 685 673 q 629 882 685 849 q 569 897 602 897 q 429 831 495 897 q 328 650 360 764 z "},"3":{"ha":639,"x_min":33,"x_max":577,"o":"m 241 724 q 233 720 238 721 q 201 738 218 720 q 193 754 193 747 q 194 758 193 756 q 298 886 228 831 q 434 942 370 942 q 540 884 499 941 q 557 829 557 859 q 450 646 557 750 q 332 555 387 586 q 556 439 498 528 q 577 363 577 404 q 477 152 577 268 q 279 -8 390 52 q 132 -54 194 -54 q 62 -29 87 -53 q 33 47 33 -1 q 115 271 33 124 q 119 278 116 273 q 127 282 122 281 q 158 264 142 282 q 167 248 166 254 q 166 243 167 244 q 96 90 123 168 q 78 12 78 40 q 87 -14 79 -6 q 112 -23 97 -23 q 272 51 167 -23 q 460 229 386 132 q 530 389 530 321 q 515 444 530 420 q 255 522 469 515 q 222 542 238 522 q 214 557 215 551 q 219 564 215 562 q 384 663 299 589 q 503 829 480 747 q 504 833 503 831 q 509 869 509 853 q 473 909 507 909 q 351 850 427 909 q 244 732 276 791 q 241 724 242 728 z "},"4":{"ha":716,"x_min":103,"x_max":772,"o":"m 505 941 q 512 944 507 944 q 544 926 527 944 q 553 909 552 916 q 551 905 553 907 l 340 599 q 209 414 258 480 q 455 436 309 436 q 534 434 463 436 q 598 605 553 486 q 724 955 694 860 q 732 960 727 960 q 764 943 747 960 q 772 926 772 933 q 687 650 772 846 q 655 577 677 625 q 593 431 608 473 l 659 426 q 690 406 676 424 q 692 403 692 404 q 692 385 702 388 q 686 384 688 384 q 684 384 686 384 q 578 391 633 389 q 460 -53 460 65 q 460 -64 460 -57 q 461 -74 461 -71 q 453 -81 460 -81 q 421 -64 437 -81 q 412 -47 413 -55 q 411 -26 411 -34 q 519 393 411 90 q 503 393 514 393 q 485 394 490 394 q 149 337 250 394 q 142 336 146 336 q 111 354 127 336 q 103 370 104 363 q 105 376 104 374 q 133 409 114 385 q 177 468 152 433 q 232 545 202 503 q 293 633 262 588 q 355 722 324 677 q 413 805 386 766 q 460 875 439 844 q 492 923 481 905 l 505 941 z "},"5":{"ha":794,"x_min":100,"x_max":760,"o":"m 393 891 q 360 913 374 892 q 355 926 355 921 q 362 934 356 932 q 363 934 362 934 q 513 941 439 941 q 759 870 736 941 q 760 865 760 866 q 744 853 759 854 q 715 869 724 853 q 712 874 713 871 q 572 899 705 897 q 540 900 556 900 q 444 896 496 900 q 446 888 446 892 q 353 614 433 768 q 323 560 340 589 q 466 585 406 585 q 553 566 518 585 q 625 444 624 526 q 621 406 625 427 q 528 197 608 328 q 350 -21 440 54 q 242 -72 288 -71 q 224 -70 233 -72 q 100 71 100 -39 q 175 289 100 152 q 182 292 178 292 q 214 274 198 292 q 222 258 222 265 q 222 254 222 255 q 149 48 150 124 q 204 -29 151 -15 q 216 -31 211 -31 q 370 79 274 -31 q 528 315 465 186 q 579 478 579 418 q 554 532 578 519 q 496 545 530 545 q 282 491 420 544 q 258 500 282 491 q 237 522 237 511 q 239 529 237 526 q 370 796 336 693 q 393 891 387 846 z "},"6":{"ha":605,"x_min":83,"x_max":554,"o":"m 507 949 q 514 952 511 952 q 546 933 529 952 q 554 918 553 924 q 552 912 553 914 q 268 514 373 701 q 389 554 333 554 q 507 480 468 554 q 534 361 532 432 q 534 357 534 359 q 535 352 535 353 q 484 134 535 248 q 349 -39 428 8 q 269 -62 309 -62 q 153 -13 210 -62 q 83 152 83 46 q 318 699 83 353 q 507 949 409 833 m 205 391 q 134 144 144 252 q 133 115 133 128 q 172 5 134 39 q 243 -24 207 -24 q 389 87 318 -24 q 477 301 451 183 q 486 381 486 347 q 427 512 486 497 q 410 514 418 514 q 205 391 335 513 z "},"7":{"ha":577,"x_min":109,"x_max":621,"o":"m 149 893 l 148 893 q 115 913 130 893 q 109 928 109 922 q 117 935 110 935 l 581 958 l 583 958 q 599 954 592 958 q 609 944 606 949 q 616 933 613 939 q 620 923 618 927 l 621 919 q 619 915 621 919 q 440 570 528 743 q 500 554 467 570 q 526 530 525 542 q 523 522 525 527 q 509 522 518 515 q 492 528 498 528 l 417 523 q 166 -50 182 54 q 158 -56 164 -56 q 126 -39 143 -56 q 117 -22 118 -29 q 260 336 117 45 q 347 511 278 374 l 282 497 q 281 496 281 497 q 279 496 279 496 q 246 516 262 496 q 239 532 239 526 q 245 538 240 537 q 332 557 245 538 q 373 564 354 561 q 552 912 479 776 l 149 893 z "},"8":{"ha":661,"x_min":89,"x_max":657,"o":"m 312 573 q 319 576 315 576 q 351 557 334 576 q 359 541 359 548 q 357 536 359 538 q 328 500 337 512 q 406 378 340 477 q 502 191 483 261 q 510 130 510 159 q 472 20 509 70 q 327 -63 419 -52 q 297 -65 312 -65 q 150 -10 210 -65 q 93 92 106 32 q 89 136 89 113 q 275 528 90 295 q 224 699 224 625 q 267 837 225 771 q 410 949 320 922 q 477 960 444 960 l 482 960 q 627 884 579 958 q 657 774 657 836 q 642 686 657 727 q 421 414 592 553 q 414 412 418 412 q 382 432 399 412 q 374 448 375 441 q 377 453 375 451 q 593 719 545 589 q 610 808 610 764 q 549 911 610 891 q 513 917 532 916 l 509 917 q 352 850 420 917 q 313 802 330 828 q 274 673 274 741 q 300 558 274 621 q 306 566 302 560 q 312 573 310 571 m 306 473 q 138 111 138 256 q 141 70 138 85 q 224 -21 156 -4 q 260 -25 242 -25 q 387 18 328 -25 q 427 56 411 35 q 460 156 460 100 q 382 356 460 235 q 345 412 370 376 q 306 473 317 454 z "},"9":{"ha":703,"x_min":94,"x_max":673,"o":"m 585 945 q 614 922 604 939 q 616 917 615 919 q 618 924 616 919 q 625 937 623 932 q 633 941 627 940 q 665 923 648 941 q 673 906 673 913 q 617 623 673 821 q 433 155 538 342 q 207 -55 315 -54 q 116 -26 161 -54 q 94 1 95 -13 q 103 9 96 9 q 121 3 111 9 q 180 -15 149 -15 q 438 300 306 -15 q 566 685 510 470 q 444 475 493 544 q 296 355 357 355 q 267 363 281 355 q 213 489 216 391 q 213 500 213 495 q 220 574 213 532 q 304 807 242 702 q 517 957 398 953 q 585 945 549 957 m 610 904 q 600 905 604 904 q 545 915 573 915 q 353 772 437 915 q 270 555 293 673 q 268 543 269 549 q 258 441 258 482 q 267 395 258 401 q 275 393 273 393 q 503 695 339 393 q 610 904 568 813 z "}," ":{"ha":338,"x_min":0,"x_max":0,"o":""},"!":{"ha":340,"x_min":-3,"x_max":402,"o":"m 32 25 q 63 5 54 25 q 66 -9 66 -2 q 47 -41 66 -31 q 32 -44 39 -44 q 1 -24 10 -44 q -3 -9 -3 -17 q 17 22 -3 12 q 32 25 24 25 m 352 918 q 360 922 355 922 q 392 904 376 922 q 399 884 402 892 l 93 91 q 85 87 90 87 q 54 104 71 87 q 45 125 43 117 l 352 918 z "},"\"":{"ha":247,"x_min":36,"x_max":210,"o":"m 85 897 q 93 904 87 903 q 125 887 109 904 q 134 871 132 879 q 136 852 136 861 q 87 751 136 794 q 83 748 85 749 q 76 746 79 746 q 44 765 60 746 q 36 781 37 774 q 39 787 37 785 q 87 878 83 828 q 86 887 87 882 q 85 897 85 894 m 156 892 q 155 897 155 896 q 163 904 156 903 q 195 887 179 904 q 203 874 201 880 q 210 829 210 853 q 170 732 210 766 q 168 731 169 732 q 161 729 165 729 q 130 748 146 729 q 121 764 122 757 q 124 770 122 768 q 161 856 160 802 q 156 892 161 875 z "},"#":{"ha":618,"x_min":78,"x_max":577,"o":"m 120 230 q 117 229 119 230 q 85 250 100 229 q 78 264 78 258 q 85 271 79 270 q 170 285 114 275 l 211 389 l 157 381 l 155 381 q 122 401 138 381 q 115 416 116 410 q 122 423 117 422 q 231 438 123 423 l 269 538 q 277 543 272 543 q 309 526 292 543 q 317 505 320 513 l 294 446 q 416 460 355 454 l 447 538 q 455 543 450 543 q 487 525 471 543 q 494 505 497 513 l 479 465 q 505 465 488 465 q 556 454 540 465 q 576 428 575 441 q 576 425 576 426 q 550 422 573 418 q 532 423 544 423 q 461 419 505 423 l 420 313 q 458 315 441 315 q 519 302 500 315 q 539 276 538 290 q 539 273 539 274 q 517 270 537 266 q 512 271 513 271 q 485 272 503 272 q 402 268 454 272 l 341 112 q 334 107 338 108 q 302 125 319 107 q 294 145 291 137 l 339 261 q 216 244 289 255 l 163 112 q 156 107 161 108 q 124 125 141 107 q 116 145 113 137 l 151 235 q 133 232 144 234 q 120 230 123 231 m 275 397 l 235 294 q 357 309 304 304 l 398 412 q 275 397 304 401 z "},"$":{"ha":667,"x_min":61,"x_max":600,"o":"m 555 625 q 548 621 553 621 q 516 639 533 621 q 507 655 508 648 q 509 659 508 657 q 553 819 553 754 q 539 875 553 852 l 385 470 q 479 245 473 370 q 479 229 479 237 q 412 40 479 117 q 218 -43 338 -43 q 189 -43 199 -43 l 166 -102 q 159 -106 163 -106 q 127 -90 144 -106 q 119 -68 116 -77 l 134 -28 q 61 82 62 5 q 127 252 61 159 q 172 306 149 283 q 201 299 180 314 q 204 296 203 297 q 218 270 222 281 q 217 268 218 269 q 149 172 186 237 q 106 52 106 97 q 145 1 108 9 l 331 488 q 246 696 246 586 q 309 865 246 795 q 444 936 367 930 q 455 936 450 936 q 500 930 477 936 l 526 998 q 534 1003 529 1002 q 566 985 549 1003 q 574 965 576 973 l 551 904 q 600 791 600 863 q 555 625 600 721 m 486 892 q 342 814 399 886 q 292 666 292 749 q 343 519 293 583 l 486 892 m 205 1 q 374 93 307 12 q 437 269 437 170 q 373 440 437 365 l 205 1 z "},"%":{"ha":625,"x_min":28,"x_max":610,"o":"m 307 157 q 315 160 311 160 q 347 141 330 160 q 355 125 354 132 q 352 120 354 123 q 306 45 307 74 q 308 44 307 44 q 340 63 320 44 q 366 113 366 87 q 338 166 366 141 q 325 192 320 182 q 327 194 326 193 q 357 184 336 201 q 359 182 359 183 q 414 83 413 134 q 377 18 414 40 q 336 5 357 5 q 277 31 302 6 q 258 73 258 50 q 307 157 258 107 m 261 864 q 268 867 264 867 q 300 848 283 867 q 308 832 307 839 q 306 826 307 828 q 260 752 260 778 q 262 749 261 750 q 296 769 275 749 q 320 819 319 793 q 291 872 319 847 q 278 892 279 884 q 432 922 279 922 q 499 921 456 922 q 541 920 530 920 q 567 922 559 920 q 569 922 568 922 q 571 922 570 922 q 604 903 588 922 q 610 888 610 894 q 610 884 610 885 l 76 -75 q 68 -79 73 -79 q 37 -61 54 -79 q 28 -45 28 -52 q 29 -40 28 -43 l 538 873 l 532 873 q 478 875 519 873 q 393 878 420 878 q 332 871 344 878 q 368 790 368 831 q 331 724 368 746 q 290 711 312 711 q 231 736 257 712 q 212 779 212 755 q 261 864 212 814 z "},"&":{"ha":802,"x_min":72,"x_max":760,"o":"m 557 845 q 517 858 547 858 q 414 825 465 858 q 349 721 350 784 q 441 559 350 646 q 452 534 457 543 q 446 531 450 532 q 158 350 238 483 q 139 313 147 332 q 121 208 121 271 q 163 77 121 115 q 211 59 183 59 q 352 119 261 59 q 488 244 444 180 q 513 305 513 279 q 509 322 513 313 q 502 326 507 325 q 335 260 474 326 q 330 259 332 259 q 297 279 314 259 q 290 294 290 288 q 294 300 290 298 q 650 410 523 410 q 737 386 707 409 q 760 362 759 368 q 752 359 758 359 q 714 366 745 359 q 686 369 703 369 q 534 338 631 369 q 556 307 549 323 q 561 281 561 295 q 469 135 561 217 q 305 32 390 66 q 241 16 267 16 q 108 100 155 16 q 72 243 72 162 q 92 347 72 299 q 292 534 142 469 q 393 568 338 555 q 302 747 302 665 q 369 865 302 821 q 481 898 419 898 q 593 850 557 898 q 617 773 617 819 q 603 696 617 739 q 656 711 635 707 q 657 712 656 711 q 659 712 659 712 q 692 692 676 712 q 699 677 699 683 q 692 670 697 671 q 618 645 656 663 q 563 614 581 628 l 544 600 q 537 598 541 598 q 505 617 522 598 q 497 633 498 626 q 500 639 498 637 q 554 726 531 664 q 569 800 569 767 q 557 845 568 829 z "},"'":{"ha":205,"x_min":58,"x_max":157,"o":"m 107 897 q 115 904 109 903 q 147 887 131 904 q 156 871 155 879 q 157 852 157 864 q 109 751 157 793 q 105 748 106 749 q 98 746 102 746 q 66 765 83 746 q 58 781 59 774 q 61 787 59 785 q 109 878 106 828 q 109 887 109 882 q 107 897 107 894 z "},"(":{"ha":272,"x_min":72,"x_max":479,"o":"m 432 954 q 439 957 437 957 q 471 938 454 957 q 479 922 478 929 q 477 916 478 918 q 121 202 121 583 q 133 98 121 178 q 139 27 139 55 q 131 20 138 20 q 100 36 115 20 q 90 52 92 44 q 72 229 72 143 q 432 954 73 619 z "},")":{"ha":408,"x_min":-8,"x_max":398,"o":"m 39 22 q 32 20 35 20 q 0 39 16 20 q -8 54 -7 47 q -6 60 -7 58 q 349 774 349 392 q 338 880 349 798 q 332 949 332 922 q 340 956 333 956 q 371 940 355 956 q 380 924 378 932 q 398 747 398 836 q 39 22 397 356 z "},"*":{"ha":406,"x_min":81,"x_max":350,"o":"m 306 907 q 310 907 308 907 q 342 888 326 907 q 350 873 349 879 q 345 866 349 868 l 237 831 l 237 830 l 286 772 q 292 756 292 763 q 283 749 291 750 q 250 768 265 750 l 226 799 l 205 744 q 197 739 203 739 q 165 756 182 739 q 157 777 155 769 l 170 808 l 125 794 q 120 793 123 793 q 87 814 104 793 q 81 829 81 823 q 85 836 81 833 l 173 864 l 130 916 q 122 932 122 926 q 132 939 123 938 q 165 920 151 938 l 196 881 l 216 936 q 224 941 219 941 q 256 924 239 941 q 264 903 267 911 l 260 892 l 306 907 z "},"+":{"ha":391,"x_min":86,"x_max":357,"o":"m 126 347 q 93 367 108 347 q 86 382 86 376 q 95 389 87 389 l 203 389 l 235 473 q 243 478 238 478 q 275 461 258 478 q 283 441 286 449 l 264 389 l 317 389 q 350 369 335 389 q 357 354 357 360 q 348 347 355 347 l 248 347 l 212 251 q 204 246 210 246 q 172 263 189 246 q 164 284 161 276 l 188 347 l 126 347 z "},",":{"ha":205,"x_min":53,"x_max":152,"o":"m 102 393 q 110 401 103 400 q 142 384 125 401 q 151 368 149 376 q 152 349 152 361 q 104 248 152 290 q 100 245 101 246 q 93 243 96 243 q 61 262 77 243 q 53 277 54 271 q 56 283 54 281 q 104 375 100 325 q 103 384 104 378 q 102 393 102 391 z "},"-":{"ha":387,"x_min":92,"x_max":362,"o":"m 132 347 q 98 367 113 347 q 92 382 92 376 q 100 389 93 389 l 322 389 q 355 369 340 389 q 362 354 362 360 q 353 347 361 347 l 132 347 z "},".":{"ha":210,"x_min":92,"x_max":161,"o":"m 92 328 q 112 359 92 349 q 127 362 119 362 q 158 342 149 362 q 161 328 161 335 q 142 296 161 306 q 127 293 134 293 q 96 313 105 293 q 92 328 92 320 z "},"/":{"ha":414,"x_min":-20,"x_max":561,"o":"m 513 1004 q 520 1008 515 1007 q 552 989 535 1008 q 561 973 560 980 q 559 968 561 971 l 28 25 q 21 21 26 22 q -11 39 6 21 q -20 56 -19 49 q -18 60 -20 58 l 513 1004 z "},":":{"ha":262,"x_min":109,"x_max":178,"o":"m 143 534 q 174 513 165 534 q 178 499 178 507 q 158 468 178 477 q 143 465 151 465 q 112 484 121 465 q 109 499 109 492 q 129 531 109 522 q 143 534 136 534 m 143 342 q 174 323 165 342 q 178 308 178 315 q 158 277 178 286 q 143 273 151 273 q 112 293 121 273 q 109 308 109 300 q 128 339 109 330 q 143 342 136 342 z "},";":{"ha":220,"x_min":56,"x_max":170,"o":"m 135 534 q 166 513 157 534 q 170 499 170 507 q 150 468 170 477 q 135 465 142 465 q 104 484 113 465 q 100 499 100 492 q 121 531 100 522 q 135 534 127 534 m 104 355 q 113 362 106 361 q 144 345 128 362 q 153 330 152 337 q 155 311 155 322 q 106 210 155 253 q 102 207 104 208 q 96 205 98 205 q 64 224 80 205 q 56 239 56 233 q 58 245 56 243 q 106 337 103 287 q 106 346 106 340 q 104 355 104 353 z "},"<":{"ha":464,"x_min":78,"x_max":404,"o":"m 360 555 q 364 555 362 555 q 397 536 380 555 q 404 520 404 526 q 399 513 403 515 l 307 484 q 128 391 144 428 q 127 387 127 388 q 136 370 127 379 q 159 350 145 360 q 191 331 174 340 q 227 312 209 321 q 259 297 244 304 q 282 286 273 290 l 292 283 q 319 256 313 274 q 321 250 321 253 q 313 243 319 243 q 302 245 308 243 q 239 274 296 245 q 79 406 86 350 q 78 411 78 408 q 80 425 78 420 q 96 445 83 434 q 125 465 108 455 q 163 484 142 474 q 206 503 184 494 q 251 519 229 511 q 292 534 273 528 q 327 545 312 541 q 351 552 342 550 l 360 555 z "},"=":{"ha":390,"x_min":81,"x_max":351,"o":"m 121 288 q 87 307 102 288 q 81 322 81 316 q 90 330 82 329 l 311 330 q 345 309 330 330 q 351 294 351 300 q 342 288 350 288 l 121 288 m 121 411 q 87 431 102 411 q 81 446 81 440 q 90 453 82 452 l 311 453 q 345 433 330 453 q 351 418 351 424 q 342 411 350 412 l 121 411 z "},">":{"ha":444,"x_min":64,"x_max":390,"o":"m 108 243 q 106 243 108 243 l 104 243 q 71 262 87 243 q 64 278 64 272 q 69 285 65 283 l 161 314 q 340 408 324 370 q 340 412 340 410 q 331 429 340 419 q 308 448 322 438 q 276 468 294 458 q 241 486 258 477 q 209 501 224 494 q 186 511 195 508 l 176 515 q 149 542 155 524 q 147 549 147 546 q 155 555 149 555 q 166 553 160 555 q 229 524 172 553 q 389 393 382 448 q 390 387 390 390 q 387 374 390 380 q 372 354 384 365 q 342 334 359 344 q 304 315 326 325 q 261 296 283 304 q 217 279 239 287 q 175 264 195 271 q 141 253 156 258 q 117 245 125 248 l 108 243 z "},"?":{"ha":555,"x_min":53,"x_max":518,"o":"m 319 959 l 321 959 q 401 942 364 959 q 516 767 503 895 q 518 728 518 748 q 421 515 518 619 q 294 399 387 479 q 168 275 203 322 q 114 131 114 203 q 117 107 114 123 q 119 82 119 90 q 111 75 118 75 q 80 91 96 75 q 71 106 73 99 q 69 130 71 108 q 156 344 69 231 q 306 490 214 419 q 423 625 372 535 q 475 791 475 716 q 408 906 475 874 q 351 918 384 918 q 210 867 279 918 q 126 753 140 817 q 123 727 123 739 q 145 660 124 692 q 150 648 150 652 q 141 641 149 642 q 108 659 123 641 q 106 663 106 661 q 75 754 75 707 q 114 857 76 807 q 245 946 163 920 q 319 959 283 958 m 87 25 q 119 5 109 25 q 122 -9 122 -2 q 102 -41 122 -31 q 87 -44 95 -44 q 56 -24 66 -44 q 53 -9 53 -17 q 73 22 53 12 q 87 25 80 25 z "},"@":{"ha":808,"x_min":39,"x_max":760,"o":"m 446 401 q 432 431 440 408 q 410 454 425 452 q 404 454 407 454 q 392 453 400 454 q 323 376 356 446 q 291 248 291 306 q 291 245 291 246 q 446 401 345 273 m 355 495 q 383 497 366 497 q 473 437 448 496 l 499 473 q 512 479 505 479 q 543 458 528 479 q 549 442 549 448 q 546 437 548 438 q 494 313 507 375 q 490 284 490 296 q 512 252 491 252 q 583 292 537 252 q 696 460 661 358 q 715 565 715 515 q 640 715 715 669 q 522 743 593 743 q 502 743 509 743 q 236 605 351 734 q 108 363 144 502 q 92 248 92 302 q 155 88 92 134 q 217 66 182 70 q 239 65 224 65 q 492 153 342 66 q 522 144 502 159 q 525 140 524 142 q 536 115 542 124 q 534 113 534 114 q 269 23 380 23 q 101 99 165 24 q 39 282 39 173 q 121 545 39 412 q 308 733 197 668 q 469 785 389 780 q 492 785 477 785 q 707 692 634 785 q 760 530 760 625 q 686 316 760 414 q 627 254 660 281 q 538 217 583 217 q 462 262 486 217 q 448 313 450 285 q 382 241 401 258 q 302 199 336 199 q 254 231 274 199 q 242 279 242 250 q 279 417 242 345 q 353 494 314 485 q 355 495 354 495 z "},"A":{"ha":952,"x_min":-100,"x_max":935,"o":"m -56 253 q -58 252 -56 252 l -60 253 q -93 273 -77 253 q -100 288 -99 281 q -95 294 -98 293 q -90 296 -95 294 q 208 368 54 336 q 581 951 453 806 q 505 917 547 936 q 440 887 464 898 l 416 876 q 411 875 414 875 q 378 895 395 875 q 371 910 372 904 q 376 916 372 914 l 526 984 q 684 1042 660 1042 q 718 1025 701 1042 q 727 1008 726 1016 q 722 996 726 1002 q 683 966 713 986 q 290 398 570 890 q 762 941 609 831 q 791 959 778 951 q 842 973 817 973 q 918 922 890 973 q 931 885 926 905 q 935 837 935 867 q 833 427 935 713 q 916 395 890 422 q 924 383 923 388 q 915 378 922 378 q 909 378 911 378 q 819 388 873 385 q 803 345 816 378 q 707 41 707 93 l 707 35 q 694 26 705 28 q 664 52 673 26 q 661 76 661 62 q 668 122 661 94 q 760 390 684 180 l 755 390 q 322 342 576 390 q 273 275 298 309 q 227 211 248 241 q 185 151 205 180 q 147 96 164 121 q 114 49 130 71 q 87 9 99 26 q 67 -20 76 -7 q 54 -39 59 -33 l 50 -46 q 43 -50 47 -50 q 11 -31 27 -50 q 3 -16 3 -22 q 3 -11 3 -12 q 10 3 4 -10 q 176 312 96 165 q 100 294 138 303 q 35 278 62 285 q -13 265 8 271 q -45 256 -35 259 l -56 253 m 363 397 q 726 432 573 432 q 775 431 743 432 q 886 838 872 697 q 888 872 888 857 q 870 937 887 921 q 862 939 867 939 q 535 612 806 939 q 363 397 415 468 z "},"B":{"ha":911,"x_min":-106,"x_max":1025,"o":"m 216 63 q 208 59 213 59 q 176 76 193 59 q 168 93 168 85 q 168 97 168 96 q 258 321 195 161 q 426 724 379 624 q 199 467 304 612 q 50 126 50 258 l 50 117 q 158 9 54 27 q 210 5 182 5 q 462 65 326 5 q 648 196 591 122 q 673 241 666 219 q 684 294 684 271 q 510 395 683 395 l 491 395 l 490 395 q 456 414 473 395 q 450 429 450 423 q 455 436 450 434 q 865 626 736 530 q 970 768 948 688 q 977 814 977 791 q 975 839 977 827 q 851 962 959 928 q 715 979 793 979 q 326 898 538 979 q 112 792 205 852 q -41 648 -3 719 q -57 592 -57 618 q -56 577 -57 587 q 31 498 -45 530 q 59 472 53 490 q 60 466 60 469 q 52 458 59 459 q 41 461 47 459 q -104 600 -87 515 q -106 618 -106 610 q 45 815 -106 711 q 69 831 57 824 q 425 983 222 929 q 688 1021 568 1021 q 833 1002 770 1021 q 987 899 935 971 q 1023 816 1016 860 q 1025 787 1025 797 q 941 614 1025 694 q 909 587 926 600 q 576 423 796 503 q 708 345 668 399 q 736 264 736 305 q 606 83 736 172 q 449 3 530 31 q 242 -34 338 -34 q 132 -18 181 -34 q 1 151 1 28 q 184 542 1 301 q 363 744 275 660 q 448 816 414 793 q 496 833 473 833 q 540 808 526 833 q 544 794 544 801 q 534 783 543 783 q 527 784 532 783 q 296 267 485 747 q 216 63 226 88 z "},"C":{"ha":762,"x_min":0,"x_max":825,"o":"m 437 432 q 432 431 433 431 q 399 450 416 431 q 392 466 393 460 q 396 472 392 470 q 675 707 566 568 q 745 822 721 766 q 768 921 766 875 q 753 962 768 951 q 707 973 738 973 q 665 970 684 973 q 397 793 548 951 q 156 458 258 648 q 47 125 50 254 q 131 -4 47 17 q 171 -9 149 -9 q 277 14 218 -9 q 390 68 336 36 q 505 147 444 100 q 608 230 566 193 q 696 311 651 267 q 756 369 742 354 q 783 397 771 384 l 784 397 q 790 400 787 399 q 817 380 803 400 q 825 361 825 368 q 822 354 824 357 l 821 353 q 586 138 714 240 q 197 -50 347 -50 q 152 -45 172 -50 q 31 41 73 -26 q 3 117 9 77 q 0 159 0 135 q 116 511 0 303 q 361 840 219 696 q 621 1010 509 988 q 629 1012 626 1011 q 671 1015 649 1015 q 764 988 726 1014 q 817 887 817 949 q 793 789 817 845 q 615 559 741 672 q 437 432 534 487 z "},"D":{"ha":947,"x_min":-97,"x_max":1030,"o":"m 224 63 q 203 62 220 54 q 195 67 198 64 q 176 94 175 81 q 176 97 176 96 q 272 334 205 167 q 397 641 359 553 q 100 254 189 424 q 56 147 69 195 q 46 81 46 109 q 117 -19 46 0 q 159 -24 136 -24 q 269 -1 208 -24 q 595 218 416 56 q 877 544 768 374 q 962 713 937 636 q 981 814 981 770 q 799 975 981 955 q 739 977 770 977 q 397 919 587 977 q 329 895 359 907 q 32 726 138 821 q -47 608 -37 663 q -49 591 -49 599 q 14 510 -49 542 q 39 498 26 504 q 66 474 58 490 q 68 470 68 472 q 60 458 71 459 q 50 461 55 459 q -84 567 -51 503 q -97 618 -97 592 q -96 639 -97 632 q 58 818 -80 724 q 289 936 157 884 q 672 1021 494 1016 q 694 1021 683 1021 q 795 1013 749 1021 q 1019 851 968 981 q 1030 785 1030 821 q 1010 681 1030 741 q 795 339 959 528 q 475 50 644 165 q 308 -42 385 -12 q 195 -64 252 -64 q 43 -6 98 -64 q -1 111 -1 41 q 8 179 -1 145 q 258 577 52 338 q 471 793 365 699 q 496 826 487 821 q 510 829 503 829 q 545 806 530 829 q 551 790 551 797 q 548 784 550 786 q 515 755 536 774 q 335 350 441 629 q 224 63 243 111 z "},"E":{"ha":814,"x_min":0,"x_max":887,"o":"m 654 704 q 647 702 650 702 q 615 721 631 702 q 607 736 608 730 q 610 743 608 741 q 689 823 656 778 q 716 885 717 861 q 701 886 711 886 q 501 819 619 886 q 329 680 389 755 q 289 588 289 629 q 290 573 289 582 q 379 548 296 548 q 525 561 459 548 q 527 561 525 561 q 528 562 528 562 q 561 541 545 562 q 568 526 567 532 q 564 520 567 522 q 299 337 434 444 q 47 27 50 138 q 51 3 47 16 q 94 -18 58 -18 q 334 56 170 -18 q 366 71 355 66 q 836 401 587 184 q 863 395 844 408 q 869 391 867 393 q 882 365 886 375 q 880 363 881 363 q 408 31 629 144 q 130 -55 239 -55 q 66 -43 92 -55 q 0 50 1 -14 q 7 94 0 69 q 326 430 52 232 q 437 507 380 469 l 427 507 q 254 564 295 507 q 241 595 245 578 q 240 614 240 602 q 347 782 240 692 q 557 903 441 861 q 671 928 624 927 l 672 928 q 747 899 720 928 q 763 870 759 886 q 764 858 764 862 q 691 736 764 808 q 654 704 671 718 z "},"F":{"ha":725,"x_min":-205,"x_max":1076,"o":"m -151 706 q -140 686 -140 694 q -149 678 -141 679 q -182 698 -164 679 q -205 745 -205 724 q -185 785 -205 766 q 193 905 -115 851 q 758 962 478 955 q 823 963 792 963 q 1042 941 983 963 q 1070 918 1061 935 q 1072 913 1072 915 q 1063 901 1076 900 q 1055 903 1059 901 q 858 922 1002 922 q 316 877 616 922 q -116 766 -9 828 q -141 747 -132 756 q -157 719 -157 732 q -151 706 -157 712 m 434 798 q 431 781 442 783 q 422 782 427 781 q 286 456 394 753 q 578 484 470 484 q 644 477 625 484 q 684 440 684 461 q 682 430 684 435 q 675 425 680 426 q 644 441 661 426 q 595 444 625 444 q 289 409 505 444 q 268 406 275 407 q 234 312 256 374 q 174 151 195 204 q 154 73 168 116 q 96 -67 125 -20 q 87 -78 90 -76 q 79 -79 84 -79 q 48 -60 60 -79 q 43 -39 43 -50 q 44 -29 43 -35 q 106 133 56 9 q 126 184 119 163 q 135 256 135 233 q 83 336 134 332 q 1 379 1 341 q 222 446 2 406 q 367 804 332 747 q 384 825 377 821 q 398 829 391 829 q 434 798 418 827 m 169 298 q 186 346 175 315 q 204 394 199 378 q 92 370 132 381 q 167 304 143 352 q 169 298 168 300 z "},"G":{"ha":777,"x_min":0,"x_max":848,"o":"m 804 405 q 809 406 806 406 q 840 386 825 406 q 848 370 848 376 q 844 364 847 366 q 559 231 698 306 q 409 -40 494 84 q 202 -220 288 -220 q 178 -216 190 -220 q 104 -159 126 -198 q 94 -130 96 -144 q 94 -120 94 -126 q 314 140 94 -20 q 514 268 412 211 q 555 363 538 323 q 317 194 435 250 q 177 156 237 156 q 64 208 116 157 q 0 383 3 271 q 0 391 0 387 q 1 424 0 401 q 100 696 13 559 q 301 898 184 831 q 387 935 344 922 q 474 948 431 948 q 635 890 573 948 q 692 760 692 837 q 658 639 691 701 q 650 635 655 635 q 618 653 635 635 q 610 669 610 663 q 611 673 610 671 q 644 788 644 734 q 644 794 644 790 q 644 800 644 798 q 551 903 637 886 q 509 907 531 907 q 425 895 468 907 q 197 731 301 859 q 63 472 98 612 q 50 395 54 432 q 49 360 49 371 q 92 218 50 263 q 151 197 113 197 q 387 302 238 197 q 575 467 502 382 q 618 533 609 507 q 633 540 625 539 q 663 523 650 540 q 669 508 669 515 q 667 500 668 504 q 598 318 606 339 q 595 311 596 314 q 804 405 695 361 m 472 179 q 308 59 406 138 q 135 -143 136 -81 q 163 -177 136 -167 q 178 -179 171 -179 q 378 18 250 -179 q 472 179 433 102 z "},"H":{"ha":1141,"x_min":0,"x_max":1190,"o":"m 1139 975 q 1147 979 1142 979 q 1179 962 1162 979 q 1187 941 1190 949 l 1066 620 q 1026 509 1046 563 q 1093 498 1074 505 q 1136 460 1135 481 q 1134 450 1136 455 q 1126 446 1131 446 q 1095 463 1112 446 q 1013 471 1067 469 q 808 -189 808 -94 q 787 -197 808 -208 q 785 -196 786 -196 q 760 -162 761 -182 q 954 473 760 -64 l 921 473 q 598 463 793 473 q 479 131 507 202 q 420 -9 449 54 q 413 -10 415 -10 q 376 4 391 -10 q 370 18 370 11 q 390 136 370 37 q 410 294 410 238 q 333 426 410 420 q 258 465 259 431 q 553 504 260 486 q 684 863 650 779 q 491 848 667 861 q 196 795 294 833 q 149 774 170 785 q 49 625 50 720 q 94 477 50 562 q 97 468 97 472 q 89 461 96 462 q 57 478 72 461 q 51 486 53 482 q 0 652 0 581 q 107 814 1 756 q 377 882 208 868 q 478 888 411 885 q 705 913 633 897 q 707 914 706 914 q 738 964 728 956 q 750 967 744 967 q 788 945 771 967 q 798 918 798 931 q 752 876 798 888 q 751 875 751 875 q 616 515 720 808 q 614 507 615 511 q 876 515 772 515 q 968 513 940 515 q 997 593 982 553 q 1025 670 1012 634 q 1051 741 1038 706 q 1075 806 1064 777 q 1097 862 1086 836 q 1114 909 1107 888 q 1127 944 1122 929 q 1137 967 1133 959 l 1139 975 m 538 459 q 374 448 402 450 q 453 250 453 401 q 452 220 453 240 q 538 459 493 332 z "},"I":{"ha":570,"x_min":0,"x_max":806,"o":"m 42 -62 l 41 -62 l 39 -63 q 7 -43 22 -63 q 0 -28 0 -34 q 7 -21 1 -22 q 14 -20 7 -21 q 207 6 121 -4 q 492 795 226 159 q 541 912 517 857 q 490 905 516 909 q 443 899 463 902 q 407 893 423 896 q 382 890 391 891 l 373 888 l 370 888 q 337 909 353 888 q 330 924 331 918 q 337 930 332 929 q 342 931 337 930 q 562 961 465 950 q 579 980 570 979 q 604 965 589 979 q 720 972 678 972 q 751 971 743 972 q 801 943 785 967 q 806 931 806 936 q 800 924 804 925 l 798 924 q 791 925 796 924 q 749 930 770 930 l 747 930 q 606 920 691 929 q 282 90 361 348 q 261 13 268 44 q 390 22 342 22 q 425 19 407 22 q 469 -13 454 14 q 474 -25 474 -20 q 472 -28 473 -28 q 469 -27 471 -28 q 417 -21 456 -21 q 254 -34 372 -21 q 243 -51 253 -50 q 219 -38 233 -50 q 165 -45 193 -41 q 117 -52 138 -49 q 78 -57 96 -54 q 52 -61 61 -60 l 42 -62 z "},"J":{"ha":836,"x_min":0,"x_max":901,"o":"m 861 402 q 895 381 879 402 q 901 367 901 373 q 892 360 900 361 q 570 272 741 358 q 351 -95 456 26 q 227 -182 281 -174 q 212 -184 217 -184 q 138 -141 165 -184 q 122 -82 122 -115 q 136 -26 123 -52 q 368 208 186 75 q 524 310 463 278 q 620 553 571 404 q 680 837 680 735 q 654 929 679 902 q 555 961 623 961 q 437 943 501 961 q 193 806 300 903 q 50 557 68 693 q 47 516 47 536 q 92 351 48 432 q 88 335 99 337 q 81 335 85 334 q 50 358 62 339 q 48 361 49 359 q 0 542 0 452 q 117 814 0 690 q 370 975 220 924 q 399 983 385 979 q 516 1001 460 1001 q 684 939 624 1000 q 726 797 726 893 q 635 418 726 648 q 605 347 620 378 q 861 402 744 402 m 479 221 q 269 52 358 145 q 180 -74 205 -16 q 169 -118 169 -100 q 172 -134 169 -130 q 185 -140 177 -140 q 248 -113 209 -140 q 256 -106 253 -109 q 442 155 334 -32 q 479 221 461 188 z "},"K":{"ha":1276,"x_min":0,"x_max":1448,"o":"m 47 621 q 40 618 45 618 q 9 635 25 618 q 0 652 1 646 q 1 657 1 656 q 169 808 59 738 q 436 901 311 897 q 446 901 441 901 q 585 859 528 900 q 655 703 655 808 q 564 387 655 586 q 1131 835 883 678 q 1406 960 1305 945 q 1407 960 1407 960 l 1408 961 q 1441 941 1425 961 q 1448 926 1447 932 q 1441 919 1447 920 q 925 618 1276 895 q 565 309 749 480 q 571 310 567 309 q 577 310 575 310 q 718 237 659 310 q 781 143 735 216 q 831 74 810 97 q 914 35 867 35 q 1249 239 1023 36 q 1255 241 1253 241 q 1287 222 1271 241 q 1295 206 1295 213 q 1293 201 1295 203 q 937 -2 1067 -2 q 800 66 861 -1 q 731 163 777 93 q 663 244 692 224 q 596 265 633 265 q 486 233 550 264 q 283 -57 385 54 q 252 -90 267 -76 q 176 -134 205 -133 q 134 -107 151 -133 q 130 -94 130 -101 q 173 -13 131 -68 q 436 267 257 95 l 437 268 l 437 269 l 438 269 l 439 271 q 564 543 513 402 q 608 743 608 667 q 574 834 608 810 q 477 862 534 862 q 226 774 369 862 q 59 636 118 708 q 47 621 52 628 z "},"L":{"ha":480,"x_min":-283,"x_max":752,"o":"m -239 -69 q -243 -70 -241 -70 q -276 -50 -260 -70 q -283 -35 -283 -41 q -278 -28 -282 -30 q -274 -26 -278 -28 q 27 44 -128 14 q 137 373 50 144 q 280 736 224 602 q 378 967 336 869 l 381 975 q 389 979 384 979 q 420 962 404 979 q 429 945 429 951 q 429 941 429 942 q 425 933 429 941 q 90 71 163 322 q 85 56 87 62 q 485 96 315 96 q 719 68 624 96 q 749 43 739 62 q 752 34 752 37 q 744 27 751 28 q 736 28 741 27 q 515 54 650 54 q 73 5 328 54 q 68 -38 68 -24 l 68 -43 q 60 -50 66 -50 q 28 -34 44 -50 q 19 -16 20 -24 l 19 -6 q -42 -19 -12 -12 q -98 -32 -73 -26 q -145 -44 -123 -38 q -185 -54 -168 -50 q -214 -62 -201 -59 q -233 -68 -227 -66 l -239 -69 z "},"M":{"ha":1050,"x_min":-183,"x_max":1080,"o":"m -99 483 l -96 483 q -64 463 -79 483 q -57 448 -58 454 q -64 441 -58 442 q -99 437 -85 437 q -161 458 -135 438 q -183 500 -182 477 q -182 509 -183 507 q -90 632 -173 560 q 95 744 1 709 q 175 761 140 761 q 212 755 195 761 q 253 726 235 745 q 296 610 296 680 q 223 370 295 518 q 399 512 319 494 q 427 515 413 515 q 502 491 467 515 q 605 336 566 446 q 748 534 653 361 q 814 658 770 573 q 960 912 916 850 q 1017 973 993 958 q 1036 979 1026 979 q 1075 949 1058 977 q 1080 922 1080 941 q 981 531 1080 844 q 972 500 975 510 q 884 212 892 239 q 827 -28 845 73 q 819 -109 819 -81 q 821 -122 819 -119 q 825 -127 823 -125 q 828 -133 827 -130 q 829 -138 829 -136 q 828 -141 829 -140 q 826 -144 827 -142 q 822 -145 824 -145 l 818 -145 q 777 -104 791 -145 q 771 -71 771 -86 q 866 340 771 22 q 918 505 882 393 q 1025 882 1000 765 q 1029 905 1027 895 q 886 666 990 858 q 725 385 770 454 q 640 293 671 304 q 618 289 628 289 q 561 347 581 289 q 560 348 560 347 q 492 465 528 440 q 457 475 476 475 q 302 373 394 475 q 283 352 292 362 q 81 19 181 227 q 66 -14 68 -10 q 55 -15 65 -14 q -1 35 1 -12 q 1 60 -1 48 q 89 245 13 110 q 204 461 177 402 q 253 635 253 569 q 224 717 252 686 q 199 723 214 723 q 34 652 141 723 q -110 525 -62 587 q -134 480 -130 498 q -99 483 -117 480 z "},"N":{"ha":1141,"x_min":0,"x_max":1093,"o":"m 83 483 l 86 483 q 119 463 103 483 q 125 448 125 454 q 119 441 124 442 q 86 438 103 438 q 21 459 45 439 q 0 501 0 477 q 10 535 0 517 q 28 564 20 553 q 53 592 37 574 q 217 718 122 665 q 353 762 298 762 q 366 762 361 762 q 435 726 406 757 q 477 610 477 681 q 374 309 477 503 q 321 212 356 275 q 292 159 301 176 q 833 884 632 676 q 899 947 869 922 q 1008 998 960 998 q 1076 946 1054 997 q 1093 849 1093 908 q 990 406 1093 709 q 938 255 972 354 q 918 201 932 239 q 838 -66 847 4 q 835 -96 835 -83 q 841 -130 835 -99 q 842 -138 842 -135 q 837 -145 841 -144 l 833 -145 q 792 -105 806 -145 q 786 -69 786 -86 q 863 215 786 0 q 873 242 867 224 q 890 288 885 274 q 1017 686 987 562 q 1045 874 1045 801 q 1031 960 1045 926 l 1029 960 q 821 783 978 960 q 776 731 796 755 q 317 94 577 492 q 249 -14 250 -9 q 237 -15 248 -14 q 181 35 183 -12 q 184 60 181 48 q 265 230 193 102 q 275 248 269 237 q 437 656 437 543 q 393 720 436 714 q 381 720 388 720 q 163 610 296 720 q 52 498 87 548 q 41 479 41 484 q 41 477 41 477 q 81 483 42 476 l 82 483 l 83 483 z "},"O":{"ha":966,"x_min":0,"x_max":905,"o":"m 867 1003 q 883 980 882 989 q 873 971 882 972 q 850 982 863 972 q 763 1013 811 1013 q 637 970 705 1012 q 668 971 648 971 q 890 808 847 971 q 905 676 905 752 q 840 368 905 538 q 646 53 764 169 q 403 -59 530 -58 l 402 -59 q 225 21 289 -58 q 178 126 190 65 q 170 205 170 165 q 172 237 170 216 q 24 355 66 271 q 0 456 0 401 q 146 755 0 615 q 420 924 261 864 q 522 954 473 944 q 593 1009 558 987 q 732 1055 667 1055 q 867 1003 802 1054 m 563 913 q 336 598 435 798 q 225 261 248 418 q 267 259 245 259 q 467 287 356 259 q 468 288 467 287 q 470 288 469 288 q 503 268 486 288 q 510 252 509 258 q 504 245 509 247 q 306 218 393 218 q 221 226 261 218 q 218 171 218 189 q 359 -17 218 -9 q 371 -17 366 -17 l 372 -17 q 659 155 527 -17 q 820 487 764 292 q 857 710 857 613 q 792 907 857 863 q 698 931 757 931 q 563 913 646 931 m 451 882 q 213 736 321 834 q 52 474 74 612 q 49 428 49 450 q 174 269 50 302 q 302 659 194 452 q 451 882 370 787 z "},"P":{"ha":1097,"x_min":0,"x_max":1229,"o":"m 716 793 q 724 796 719 796 q 755 778 739 796 q 764 762 763 769 q 762 758 764 760 q 755 747 762 758 q 504 380 619 543 q 808 471 646 405 q 1142 694 1057 572 q 1179 783 1172 739 q 1181 810 1181 797 q 984 941 1181 935 q 964 941 974 941 q 677 900 834 941 q 300 388 483 715 q 289 367 294 377 q 337 366 305 366 q 425 370 380 366 q 510 491 465 427 q 590 607 555 555 q 654 701 625 658 q 700 769 684 745 l 716 793 m 467 329 q 214 15 292 87 q 147 -22 174 -22 q 117 -7 132 -22 q 110 -2 112 -3 l 109 -2 q 97 39 97 12 q 211 343 97 125 q 115 400 144 363 q 100 438 100 419 q 117 479 101 459 q 255 574 151 524 q 287 562 267 579 q 288 560 288 561 q 298 536 304 545 q 296 534 297 534 q 153 427 173 474 q 149 412 149 419 q 224 376 149 389 q 227 375 226 375 q 511 806 355 615 q 563 866 538 838 q 364 781 494 844 q 51 566 93 652 q 43 538 43 551 q 58 504 44 519 q 65 480 75 487 q 63 479 64 479 q 59 478 61 478 q 20 504 41 478 q 0 559 0 530 q 0 562 0 559 q 1 566 1 565 q 248 790 11 670 q 593 928 409 873 q 633 939 615 934 q 636 941 633 939 q 787 1053 717 1018 q 792 1055 789 1055 q 825 1035 808 1055 q 832 1019 831 1025 q 828 1013 832 1015 q 753 965 793 996 q 929 983 853 983 q 1204 865 1137 982 q 1229 777 1229 821 q 1041 528 1229 651 q 990 497 1017 512 q 595 350 814 397 q 467 329 529 336 m 391 323 l 366 323 q 269 330 313 323 q 144 40 164 134 q 142 31 143 35 q 357 276 214 80 q 374 299 362 283 q 391 323 386 316 z "},"Q":{"ha":986,"x_min":0,"x_max":953,"o":"m 867 1003 q 883 980 882 989 q 873 971 882 972 q 850 982 863 972 q 763 1013 811 1013 q 637 970 705 1012 q 668 971 648 971 q 890 808 847 971 q 905 676 905 752 q 841 368 905 538 q 698 110 783 216 q 923 75 836 109 q 951 49 943 66 q 953 41 953 44 q 945 34 951 35 q 935 37 942 34 q 717 68 853 68 q 661 67 696 68 q 403 -59 540 -58 l 402 -59 q 225 21 289 -58 q 178 126 190 65 q 170 205 170 165 q 172 237 170 216 q 24 355 66 271 q 0 456 0 401 q 146 755 0 615 q 420 924 261 864 q 522 954 473 944 q 593 1009 558 987 q 732 1055 667 1055 q 867 1003 802 1054 m 437 41 l 434 41 q 401 61 417 41 q 394 76 395 70 q 400 83 395 81 q 402 83 400 83 q 620 109 509 103 q 802 431 733 231 q 857 710 857 588 q 793 907 857 861 q 698 931 758 931 q 563 913 646 931 q 336 598 435 798 q 225 261 248 418 q 267 259 245 259 q 467 287 356 259 q 468 288 467 287 q 470 288 469 288 q 503 268 486 288 q 510 252 509 258 q 504 245 509 247 q 306 218 393 218 q 221 226 261 218 q 218 171 218 189 q 359 -17 218 -9 q 371 -17 366 -17 l 372 -17 q 569 60 475 -16 q 526 55 547 58 q 489 50 505 52 q 462 45 474 47 q 444 42 450 43 l 437 41 m 451 882 q 213 736 321 833 q 52 473 73 612 q 49 429 49 450 q 174 269 50 302 q 302 659 194 452 q 451 882 370 787 z "},"R":{"ha":958,"x_min":0,"x_max":1280,"o":"m 522 664 q 529 668 524 667 q 560 650 544 668 q 569 633 568 640 q 568 629 569 631 q 473 479 568 625 q 464 466 468 473 q 485 456 473 465 q 562 433 517 433 q 787 528 659 433 q 946 686 886 602 q 977 738 966 714 q 997 825 997 785 q 926 928 997 905 q 916 930 921 929 q 843 939 884 939 q 557 879 724 939 q 238 444 395 715 q 232 433 235 438 q 71 94 112 224 q 60 46 62 65 q 159 145 98 72 q 282 304 221 218 q 398 472 342 390 q 487 609 453 555 l 522 664 m 449 444 q 109 12 212 86 q 79 -5 91 -1 q 69 -6 72 -6 q 23 20 42 -6 q 18 28 20 24 q 14 52 14 37 q 100 309 14 127 q 184 469 138 387 q 431 827 302 674 q 194 689 300 767 q 50 500 50 582 q 64 459 50 475 q 71 435 81 442 q 69 434 70 435 q 38 447 56 430 q 35 450 36 449 q 0 530 0 487 q 222 776 0 640 q 496 911 355 857 q 513 918 505 915 q 616 1008 563 968 q 688 1053 657 1038 q 694 1055 691 1055 q 726 1035 709 1055 q 734 1019 733 1025 q 730 1013 734 1015 q 644 957 689 992 q 812 981 740 981 q 996 915 935 980 q 1045 795 1045 862 q 1024 704 1045 753 q 888 532 987 618 q 659 405 774 433 q 590 396 623 396 q 498 417 540 396 q 532 370 498 399 q 922 184 659 261 q 1242 121 1093 134 q 1275 98 1261 119 q 1280 85 1280 91 q 1272 79 1278 79 l 1270 79 q 853 172 1067 98 q 512 352 631 250 q 449 444 450 407 z "},"S":{"ha":586,"x_min":-53,"x_max":774,"o":"m 707 805 q 700 803 703 803 q 668 822 684 803 q 660 838 661 831 q 662 843 661 841 q 734 932 733 910 q 705 946 732 946 q 608 932 671 946 q 271 800 435 898 q 239 781 254 790 q 78 638 129 709 q 47 559 47 595 q 50 544 47 551 q 134 470 58 503 q 254 427 149 463 q 419 341 372 385 q 469 229 469 294 q 376 78 469 151 q 182 -13 291 12 q 104 -22 140 -22 q 65 -19 85 -22 q -50 62 -18 -4 q -53 70 -53 68 q -45 77 -52 76 q -13 60 -28 77 q -6 50 -9 54 q 41 22 5 29 q 74 20 55 20 q 264 73 162 20 q 403 194 364 126 q 420 256 420 226 q 347 354 420 315 q 220 404 318 369 q 62 481 109 443 q 16 530 33 503 q -1 585 -1 557 q 145 784 -1 675 q 197 820 170 803 q 532 965 354 921 q 570 974 551 970 q 667 987 637 987 q 757 958 726 986 q 774 919 774 942 q 713 812 774 873 q 707 805 707 805 z "},"T":{"ha":469,"x_min":-275,"x_max":1205,"o":"m 478 975 q 486 979 481 979 q 517 962 501 979 q 526 945 526 951 q 526 941 526 942 l 525 940 q 1050 980 885 980 q 1172 969 1135 980 q 1202 945 1192 963 q 1205 935 1205 939 q 1197 928 1204 928 q 1190 929 1195 928 q 1078 939 1157 939 q 505 892 904 939 q 187 73 259 317 q 164 -38 164 -6 q 164 -41 164 -39 q 165 -43 165 -42 q 157 -50 163 -50 q 124 -32 139 -50 q 116 -12 116 -22 q 391 770 116 106 q 439 884 416 828 q 239 859 344 873 q 54 833 134 845 q -93 812 -26 822 q -196 797 -159 802 l -233 791 l -235 791 q -269 812 -252 791 q -275 827 -275 821 q -269 833 -274 832 q -248 836 -269 833 q 460 932 146 896 l 478 975 z "},"U":{"ha":1088,"x_min":0,"x_max":1177,"o":"m 109 676 q 136 650 129 668 q 138 644 138 646 q 130 636 136 637 q 119 639 125 637 q 4 733 23 677 q 0 757 0 745 q 54 846 1 802 q 220 934 111 893 q 406 972 327 972 q 515 930 485 972 q 528 884 528 913 q 467 652 528 821 q 448 600 460 632 q 380 404 395 452 q 330 152 330 243 q 387 39 331 54 q 411 37 398 37 q 844 477 559 37 q 1012 751 907 575 q 1116 913 1093 888 q 1137 928 1129 927 l 1138 928 q 1177 886 1177 920 q 1176 875 1177 882 q 1083 637 1168 824 q 942 315 975 401 q 875 56 875 143 q 903 -25 876 -1 q 916 -52 922 -42 q 914 -53 915 -52 q 885 -45 905 -60 q 882 -42 883 -43 q 831 95 831 3 q 982 564 831 250 q 1014 629 994 587 q 1043 689 1036 673 q 751 243 865 391 q 436 -5 559 -4 q 406 -1 420 -5 q 284 191 285 33 q 371 552 284 317 q 385 590 376 566 q 401 633 396 620 q 479 878 469 823 q 483 909 483 897 q 478 931 483 924 q 441 943 469 943 q 227 880 371 943 q 98 808 133 837 q 48 735 49 766 q 107 677 48 701 q 109 676 108 676 z "},"V":{"ha":725,"x_min":-228,"x_max":888,"o":"m -119 676 q -92 652 -99 667 q -90 648 -91 650 q -99 637 -87 636 q -108 639 -103 637 q -224 735 -204 678 q -228 759 -228 747 q -109 890 -228 826 q 117 967 -5 945 q 190 975 159 975 q 218 972 206 975 q 288 930 264 963 q 300 875 300 913 q 235 564 300 795 q 217 502 229 541 q 211 481 216 498 q 118 83 118 180 q 138 37 119 38 q 149 39 145 38 q 425 277 264 89 q 707 689 587 467 q 840 1077 840 935 q 840 1081 840 1078 q 840 1084 840 1083 q 848 1092 841 1091 q 879 1076 863 1092 q 888 1058 888 1066 l 888 1050 q 755 656 888 904 q 471 241 635 432 q 191 0 309 52 q 189 -1 190 -1 q 153 -9 168 -9 q 97 19 122 -9 q 75 103 75 43 q 146 454 75 202 q 169 534 155 484 q 254 869 243 793 q 256 903 256 889 q 252 928 256 920 q 213 934 238 934 q 14 886 133 934 q -160 779 -114 836 q -180 733 -180 754 q -177 718 -180 727 q -119 676 -168 696 z "},"W":{"ha":836,"x_min":-41,"x_max":852,"o":"m 9 766 q 2 761 7 761 q -30 778 -13 761 q -39 798 -41 790 q -29 822 -39 798 q 26 863 -7 862 q 83 836 52 862 q 109 748 109 812 q 77 519 109 686 q 43 286 44 349 q 53 220 43 243 q 313 530 127 238 q 401 677 378 633 q 409 681 404 680 q 440 663 424 681 q 449 646 448 654 q 414 509 449 644 q 328 24 328 185 q 333 -41 328 -7 q 349 -92 339 -83 q 366 -98 355 -98 q 395 -91 378 -98 q 604 154 495 -53 q 720 435 669 279 q 795 735 772 592 q 806 846 806 800 q 792 921 806 896 q 764 944 775 927 q 760 955 760 950 q 769 961 762 961 q 814 938 789 961 q 831 919 825 928 q 852 814 852 886 q 779 437 852 673 q 768 402 774 418 q 576 -3 684 149 q 435 -132 503 -106 q 393 -140 412 -140 q 304 -79 336 -140 q 284 -17 290 -51 q 279 50 279 18 q 347 476 279 201 q 87 178 164 193 q 78 177 83 177 q 20 210 45 177 q 18 213 19 212 q -2 315 -2 243 q 41 622 -2 406 q 68 795 68 764 q 64 817 68 813 q 50 823 57 823 q 29 809 39 823 q 14 781 19 795 l 9 766 z "},"X":{"ha":858,"x_min":0,"x_max":1099,"o":"m 265 977 q 273 987 264 986 q 304 970 290 987 q 313 955 311 962 q 346 825 313 944 q 464 465 399 627 q 1054 981 806 848 q 1060 982 1057 982 q 1091 962 1076 982 q 1099 947 1099 953 q 1096 941 1099 942 q 489 405 843 804 q 704 72 595 161 q 844 16 772 16 q 932 37 888 16 q 938 39 935 39 q 970 19 954 39 q 978 3 977 9 q 974 -3 978 -1 q 871 -27 923 -27 q 543 233 703 -27 q 465 378 503 299 q 47 -163 227 105 q 40 -166 45 -166 q 9 -149 25 -166 q 0 -132 1 -138 q 1 -127 0 -129 q 435 432 191 155 q 439 437 437 435 q 273 945 338 669 q 265 977 266 973 z "},"Y":{"ha":794,"x_min":-383,"x_max":800,"o":"m -275 676 q -247 652 -254 667 q -245 648 -246 650 q -254 637 -242 637 q -264 639 -258 637 q -382 747 -372 683 q -383 758 -383 751 q -287 877 -383 816 q -69 961 -191 937 q 19 970 -21 970 q 132 930 103 970 q 147 876 147 909 q 108 711 147 828 q 58 545 66 591 q 54 498 54 519 q 135 390 56 412 q 171 385 153 385 q 479 627 300 385 q 617 831 517 679 q 696 933 679 925 q 701 935 699 935 l 702 935 q 742 890 741 927 q 741 875 742 885 q 661 548 722 760 q 621 420 642 482 q 757 466 696 452 q 758 467 758 466 q 760 467 760 467 q 793 446 777 467 q 800 431 800 437 q 794 425 799 426 q 598 351 707 405 q 237 -198 415 -177 q 224 -199 231 -199 q 205 -197 217 -199 q 104 -148 149 -189 q 79 -118 88 -134 q 62 -60 62 -91 q 288 225 62 56 q 545 385 414 319 q 552 389 549 387 q 672 808 624 598 q 532 599 579 663 q 195 344 341 345 q 155 349 176 344 q 7 527 7 389 q 55 734 7 600 q 98 869 93 841 q 102 901 102 887 q 95 931 102 921 q 60 941 87 941 q -123 896 -7 941 q -311 783 -259 842 q -335 732 -335 755 q -334 724 -335 726 q -275 676 -329 698 m 525 313 q 245 116 361 222 q 128 -25 161 40 q 111 -87 111 -59 q 172 -155 111 -142 q 180 -156 176 -155 q 195 -157 186 -157 q 438 108 308 -157 q 525 313 481 196 z "},"Z":{"ha":749,"x_min":-50,"x_max":885,"o":"m 75 810 q 71 809 73 809 q 38 829 54 809 q 31 844 31 838 q 36 851 31 849 q 494 975 322 941 q 718 1000 629 1000 q 884 934 861 1000 q 885 924 885 930 q 569 532 885 844 q 471 436 524 488 q 533 441 505 441 q 565 439 551 441 q 620 405 602 432 q 625 391 625 396 q 620 385 624 386 l 616 385 q 541 397 568 397 q 410 378 499 397 q 304 279 376 346 q 65 46 136 125 q 20 -7 40 18 q 91 6 41 -3 q 475 59 340 52 q 533 60 505 60 q 825 -21 742 60 q 837 -40 836 -33 q 827 -48 836 -47 q 799 -34 813 -47 q 587 19 745 19 q 163 -31 447 19 q 3 -57 35 -53 q -7 -58 -1 -58 q -48 -32 -39 -58 q -50 -17 -50 -24 q 137 197 -50 15 q 298 352 184 243 l 208 328 q 203 328 206 328 q 170 347 186 328 q 163 362 164 356 q 169 369 165 367 q 174 370 169 369 q 368 418 281 400 q 773 833 675 713 q 838 944 837 913 q 837 951 838 949 q 766 961 814 961 q 200 847 600 961 q 75 810 127 827 z "},"[":{"ha":322,"x_min":-2,"x_max":448,"o":"m 155 119 q 188 98 173 119 q 195 84 195 90 q 185 77 193 78 l 39 81 q 7 100 22 82 q 1 119 -1 112 l 288 886 q 343 892 292 892 q 393 891 361 892 q 408 890 405 890 q 441 870 426 890 q 448 855 448 861 q 439 848 446 849 l 334 848 l 62 122 l 155 119 z "},"\\":{"ha":553,"x_min":-25,"x_max":555,"o":"m 552 38 q 555 28 555 31 q 547 22 554 22 q 514 39 529 22 q 509 46 511 43 l -22 990 q -25 1000 -25 997 q -16 1007 -24 1006 q 16 989 1 1007 q 21 982 19 985 l 552 38 z "},"]":{"ha":312,"x_min":-56,"x_max":395,"o":"m 237 848 q 204 870 219 849 q 198 884 198 878 q 207 890 199 890 l 353 886 q 385 867 370 886 q 392 848 394 855 l 104 81 q 50 76 101 76 q -1 77 31 76 q -16 77 -13 77 q -49 97 -34 77 q -56 112 -56 106 q -47 119 -54 119 l 58 119 l 330 846 l 237 848 z "},"^":{"ha":361,"x_min":53,"x_max":285,"o":"m 100 763 q 93 760 95 760 q 61 779 77 760 q 53 795 54 788 q 55 801 54 799 l 220 947 q 227 950 223 949 q 258 932 242 950 q 267 916 266 923 l 285 770 q 277 761 285 762 q 245 777 262 761 q 237 793 238 786 l 227 876 l 100 763 z "},"_":{"ha":425,"x_min":41,"x_max":403,"o":"m 81 187 q 48 208 63 187 q 41 222 41 216 q 50 229 43 229 l 363 229 q 396 209 381 229 q 403 194 403 200 q 394 187 401 188 l 81 187 z "},"`":{"ha":189,"x_min":43,"x_max":125,"o":"m 45 618 q 52 625 44 625 q 62 622 57 625 q 81 600 79 612 q 92 566 83 578 q 98 563 92 565 q 117 547 112 555 q 115 534 125 534 q 111 534 112 534 q 54 583 73 540 q 45 618 47 601 z "},"a":{"ha":469,"x_min":0,"x_max":537,"o":"m 218 434 q 189 438 212 422 q 182 444 184 441 q 86 386 129 429 q 48 311 49 348 q 50 296 48 303 q 122 334 76 298 q 190 392 168 370 q 228 432 211 414 l 229 433 q 240 438 233 438 q 271 416 256 438 q 277 402 277 408 q 275 399 276 400 q 271 348 271 370 q 276 311 271 328 q 291 302 280 303 q 494 401 336 302 q 500 403 496 403 q 530 384 515 403 q 537 368 536 374 q 533 361 536 363 q 507 344 525 355 q 363 269 411 283 q 320 261 340 261 q 299 264 312 261 q 224 346 235 280 q 75 254 127 255 l 69 254 q 13 292 35 258 q 3 314 6 302 q 0 336 0 324 q 66 444 0 393 q 144 486 104 474 q 164 488 153 488 q 211 466 193 488 q 218 434 224 449 z "},"b":{"ha":401,"x_min":-45,"x_max":476,"o":"m 220 941 q 229 945 223 945 q 260 928 243 945 q 269 907 271 916 l 142 571 q 37 271 72 378 q 60 307 45 283 q 193 488 153 448 q 243 522 224 521 q 248 521 247 522 q 328 435 318 502 q 329 416 329 425 q 328 396 329 409 q 352 400 340 398 q 375 404 365 402 q 395 407 385 406 q 411 409 404 408 q 424 410 418 410 q 432 411 429 411 l 435 412 q 437 412 435 412 q 469 392 454 412 q 476 377 476 383 q 471 370 476 372 q 469 370 470 370 q 344 353 451 370 q 315 348 329 351 q 235 235 288 275 q 162 207 199 207 q 85 239 121 208 q 3 137 22 145 q -1 136 1 136 q -44 168 -39 136 q -45 177 -45 173 q 218 935 -45 258 l 220 941 m 100 262 q 132 247 113 248 q 192 273 161 248 q 245 334 220 296 q 125 298 161 317 q 113 281 121 292 q 100 262 104 269 m 267 480 l 267 480 l 266 481 q 163 356 248 479 q 269 385 207 372 q 281 449 281 419 q 267 480 280 475 z "},"c":{"ha":354,"x_min":-25,"x_max":423,"o":"m 222 401 q 212 393 218 394 q 181 414 197 393 q 174 433 172 426 l 183 461 q 93 397 144 454 q 24 277 35 333 q 22 260 22 268 q 31 231 23 243 q 47 229 39 229 q 276 336 113 229 q 317 363 290 345 q 378 402 361 393 q 383 404 381 404 q 416 385 399 404 q 423 369 422 375 q 420 363 422 364 q 357 321 402 352 q 162 208 227 235 q 75 186 111 186 q 58 188 68 186 q -10 235 14 195 q -24 275 -22 254 q -25 286 -25 279 q 28 412 -25 342 q 137 499 80 478 q 171 505 155 505 q 229 473 208 505 q 235 450 235 462 q 224 406 235 439 q 222 401 222 403 z "},"d":{"ha":419,"x_min":3,"x_max":494,"o":"m 277 455 q 274 457 276 456 q 272 458 273 458 q 261 438 269 453 q 130 249 184 295 q 73 222 99 222 q 42 233 56 223 q 3 325 4 263 q 16 392 3 357 q 111 508 48 476 q 174 523 141 523 q 235 510 203 523 q 442 930 334 690 l 444 932 q 452 937 446 937 q 484 921 467 937 q 492 903 494 910 q 294 360 387 642 q 199 -16 199 71 q 201 -26 199 -20 q 201 -35 201 -32 q 193 -41 200 -41 q 161 -25 178 -41 q 153 -9 154 -17 q 151 12 151 -3 q 261 412 151 104 q 277 455 269 433 m 218 479 q 205 481 210 481 q 96 412 146 481 q 47 299 54 355 q 47 287 47 292 q 51 262 47 273 q 218 479 102 278 z "},"e":{"ha":351,"x_min":-22,"x_max":415,"o":"m 33 292 q 22 262 22 287 q 36 233 23 238 q 64 229 49 229 q 304 342 149 229 q 374 399 344 372 q 380 401 377 401 q 408 380 393 401 q 415 362 415 370 q 412 355 414 358 q 340 299 396 339 q 92 188 186 189 q 75 189 80 188 q -21 267 -12 200 q -22 282 -22 275 q 31 413 -22 344 q 131 493 79 476 q 153 497 142 496 l 155 497 q 210 469 187 497 q 224 432 224 451 q 217 407 223 418 q 196 382 210 395 q 166 358 182 369 q 131 337 149 347 q 95 319 112 327 q 64 304 78 311 q 42 296 50 298 l 33 292 m 71 368 q 174 453 163 414 q 85 384 134 441 q 71 368 77 376 z "},"f":{"ha":382,"x_min":-130,"x_max":452,"o":"m 407 402 q 415 405 410 405 q 446 387 431 405 q 452 373 452 379 q 450 367 452 369 q 109 149 291 211 q 46 132 77 138 q 73 -3 73 81 q 35 -201 73 -113 q -25 -279 8 -266 q -47 -284 -39 -284 q -111 -240 -85 -284 q -130 -182 -128 -212 l -130 -170 q -31 254 -130 -33 q 156 694 58 516 q 208 779 184 746 q 292 845 256 844 q 299 844 297 845 q 351 808 329 838 q 353 804 352 806 q 364 760 364 785 q 256 536 364 676 q 100 375 178 436 q 72 355 84 363 q 9 178 33 253 q 353 353 196 222 q 407 402 382 377 m -6 -138 q 24 37 24 -47 q -2 144 24 112 q -77 -189 -73 -79 q -77 -199 -77 -195 q -74 -233 -77 -217 q -56 -228 -71 -241 q -6 -138 -29 -205 m 121 477 q 239 624 180 536 q 313 789 313 732 q 313 793 313 790 q 313 797 313 795 q 149 538 256 770 q 121 477 134 507 z "},"g":{"ha":427,"x_min":-313,"x_max":501,"o":"m 210 489 q 233 477 221 486 q 255 509 243 490 q 297 503 269 529 q 310 488 305 494 q 288 319 327 461 q 283 300 286 309 q 409 376 345 339 q 450 401 438 393 q 480 392 460 407 q 484 389 482 390 q 495 363 500 372 q 493 361 494 361 q 452 336 478 351 q 257 217 330 264 q 86 -167 177 -24 q 26 -246 56 -216 q -116 -261 -48 -323 q 186 239 -313 -90 q 211 255 194 244 q 258 412 244 354 q 106 269 167 290 q 20 299 45 249 q 11 326 14 311 q 52 441 -4 391 q 171 491 102 486 q 210 489 192 492 m 214 450 q 109 414 159 452 q 57 322 57 373 q 59 304 57 313 q 186 419 64 285 q 214 450 210 445 m -18 -209 q 169 138 69 -117 q 179 165 174 152 q -110 -115 -52 2 q -95 -243 -149 -196 l -92 -246 q -35 -224 -71 -256 q -18 -209 -26 -217 z "},"h":{"ha":475,"x_min":-41,"x_max":546,"o":"m 503 405 q 509 407 506 407 q 539 387 524 407 q 546 372 546 378 q 543 366 545 368 q 519 350 536 361 q 376 273 427 288 q 334 266 353 266 q 276 289 299 267 q 241 395 245 319 q 240 423 241 397 q 110 275 192 393 q 32 163 39 172 q 15 142 22 151 q 1 138 8 138 q -34 161 -19 138 q -41 184 -41 173 q 25 411 -41 221 q 157 772 91 601 l 223 944 q 231 949 226 948 q 263 931 246 949 q 271 911 274 919 l 145 575 q 35 260 69 369 q 58 294 41 270 q 180 450 142 416 q 192 459 186 455 q 218 469 205 469 q 239 463 227 469 q 287 389 279 439 q 289 362 288 380 q 300 306 292 323 l 302 306 q 503 405 349 306 z "},"i":{"ha":237,"x_min":0,"x_max":304,"o":"m 66 495 q 74 500 69 499 q 106 481 89 500 q 115 465 114 472 q 113 461 115 463 q 48 267 54 336 q 47 256 47 261 q 50 236 47 246 l 52 236 q 218 349 108 236 q 267 404 247 379 q 273 406 269 406 q 297 386 284 406 q 304 367 304 375 q 301 359 303 363 q 81 194 164 197 q 62 197 73 194 q 12 235 29 206 q 0 284 0 254 q 66 495 0 356 m 142 526 q 134 522 139 522 q 103 539 119 522 q 94 556 95 549 q 96 561 94 558 l 152 651 q 160 654 155 654 q 192 636 176 654 q 200 621 199 627 q 199 616 200 618 l 142 526 z "},"j":{"ha":227,"x_min":-429,"x_max":311,"o":"m 132 565 q 106 568 127 553 q 84 595 83 582 q 85 598 84 597 l 117 682 q 144 680 122 694 q 165 652 166 665 q 165 649 165 650 l 132 565 m 58 508 q 84 506 62 519 q 106 479 106 492 q 106 475 106 476 q 58 312 92 439 q 45 268 50 286 q 254 401 110 313 q 279 395 260 404 q 290 359 311 380 q 276 349 284 354 q 18 180 119 252 q 9 154 16 173 q -153 -225 -75 -123 q -314 -260 -237 -333 q -229 50 -429 -151 q -29 216 -153 127 q 4 332 -18 253 q 58 508 38 455 m -225 -220 q -60 121 -150 -140 q -302 -148 -264 -38 q -288 -247 -322 -208 q -225 -220 -267 -263 z "},"k":{"ha":395,"x_min":-45,"x_max":460,"o":"m 230 941 q 238 945 233 945 q 270 928 253 945 q 278 907 281 916 l 166 627 q 37 274 77 397 q 123 404 119 398 q 223 519 193 504 q 237 523 229 523 q 276 500 260 523 q 282 487 282 492 q 279 482 281 484 q 275 482 277 481 q 247 466 264 483 q 155 345 217 437 q 155 342 155 345 q 154 333 154 336 q 172 270 155 282 q 193 264 181 264 q 352 342 247 264 q 420 401 400 378 q 426 404 422 404 q 453 384 439 404 q 460 365 460 372 q 458 358 460 361 q 328 255 401 294 q 225 224 271 224 q 162 243 190 225 q 121 294 136 262 q 25 157 47 183 q -2 136 7 137 q -44 167 -38 136 q -45 177 -45 172 q 227 933 -45 257 l 230 941 z "},"l":{"ha":275,"x_min":-60,"x_max":341,"o":"m 298 401 q 305 404 302 404 q 334 384 319 404 q 341 368 341 374 q 339 361 340 362 q 193 208 306 336 q 38 43 75 75 q 4 23 15 24 l -1 23 q -60 97 -59 24 q 168 774 -60 223 q 185 815 175 791 q 236 941 230 922 q 243 945 239 945 q 275 928 259 945 q 284 911 283 919 q 252 825 284 897 q 233 781 240 798 q 14 199 62 366 q -11 73 -10 115 q 140 224 36 104 q 277 380 247 349 q 298 401 288 392 z "},"m":{"ha":637,"x_min":-46,"x_max":702,"o":"m 68 494 q 77 498 71 498 q 108 481 92 498 q 117 464 116 471 q 116 460 117 461 q 110 447 116 460 q 41 304 66 360 q 241 513 187 470 q 273 534 262 530 q 285 536 280 536 q 328 505 311 536 q 337 472 337 488 q 317 378 337 443 q 400 420 369 420 q 448 393 428 420 q 465 341 465 370 q 458 286 465 335 q 457 273 458 279 q 610 361 501 276 q 661 401 656 397 q 667 403 664 403 q 694 382 680 403 q 702 364 702 372 q 699 357 701 360 q 677 340 692 353 q 517 239 570 256 q 483 232 498 232 q 472 233 475 232 q 424 261 444 238 q 409 304 409 279 q 415 352 409 309 q 416 376 417 366 q 270 254 366 357 q 262 250 267 250 q 230 269 246 250 q 222 285 222 278 q 222 288 222 288 q 224 293 222 288 q 286 476 275 414 q 148 337 256 454 q 9 197 39 220 q -11 188 -5 188 l -13 188 q -43 212 -34 195 q -46 223 -46 218 q -40 252 -46 233 q -23 297 -33 272 q -1 349 -14 321 q 23 402 11 376 q 45 448 35 427 q 62 481 56 469 l 68 494 z "},"n":{"ha":481,"x_min":-65,"x_max":544,"o":"m 69 493 q 77 497 72 496 q 109 479 92 497 q 117 463 117 469 q 116 458 117 460 q 45 320 115 457 q 223 467 176 447 q 233 470 229 469 q 248 472 241 472 q 302 446 280 471 q 319 375 319 425 q 312 291 319 359 q 311 280 311 283 q 313 275 311 276 q 315 274 314 274 q 482 382 338 274 q 507 401 501 396 q 511 402 509 402 q 537 380 524 402 q 544 361 544 369 q 541 353 543 356 q 446 279 473 297 q 340 239 382 239 q 298 252 316 239 q 266 332 266 278 q 269 379 266 348 q 271 421 271 408 l 271 429 q 113 304 231 418 q 7 203 21 216 q -24 184 -16 184 q -65 220 -63 187 q 69 493 -65 235 z "},"o":{"ha":325,"x_min":-41,"x_max":393,"o":"m 98 425 q 114 404 113 412 q 101 393 114 399 q 91 388 94 390 q 153 340 102 352 q 180 426 180 389 q 176 448 180 440 q 168 450 174 450 q 111 436 137 450 q 98 425 102 431 m 41 420 q 41 425 41 422 q 41 428 41 427 q 85 484 41 469 q 125 491 104 491 q 200 465 174 490 q 228 394 228 437 q 216 341 228 368 q 351 403 294 356 q 357 405 354 405 q 386 386 372 405 q 393 370 393 377 q 390 364 393 366 q 214 296 306 296 q 195 297 201 296 q 52 198 134 198 q -5 213 16 198 q -7 216 -6 215 q -41 280 -41 241 q 14 395 -41 334 q 41 420 28 410 m 66 365 q 8 269 20 315 q 6 256 7 262 q 6 240 5 243 q 26 236 16 236 q 117 291 68 236 q 135 313 127 302 q 66 365 93 332 z "},"p":{"ha":357,"x_min":-179,"x_max":431,"o":"m 87 573 q 95 578 90 578 q 127 561 110 578 q 135 540 138 548 q 57 330 134 542 q 68 336 61 332 q 75 349 69 336 q 182 517 152 495 q 197 522 189 522 q 256 490 224 522 q 271 472 266 480 q 284 416 284 448 q 283 396 284 409 q 308 400 295 398 q 330 404 320 402 q 350 407 340 406 q 367 409 359 408 q 379 410 374 410 q 387 411 385 411 l 390 412 q 392 412 391 412 q 425 392 410 412 q 431 377 431 383 q 425 370 430 372 q 299 353 406 370 q 271 348 284 351 q 195 238 245 279 q 118 207 157 207 q 73 217 94 207 q -52 -43 19 106 q -130 -196 -113 -174 l -130 -197 q -132 -200 -132 -199 q -144 -208 -140 -209 q -179 -176 -179 -199 q -178 -166 -179 -172 q -163 -120 -174 -153 q -136 -41 -152 -87 q -100 60 -120 5 q -59 174 -81 116 q -17 290 -38 233 q 23 398 4 347 q 56 488 41 449 q 79 550 70 527 l 87 573 m 150 366 q 224 385 182 375 q 236 448 236 417 q 226 479 235 472 l 225 479 q 153 370 214 479 q 150 366 151 368 m 123 315 q 108 286 118 305 q 88 248 94 260 q 180 307 132 248 q 200 334 192 321 q 123 315 159 326 z "},"q":{"ha":411,"x_min":-2,"x_max":479,"o":"m 231 426 q 220 435 226 429 q 206 446 212 443 q 115 425 166 466 q 62 348 74 391 q 58 326 58 336 q 195 396 108 326 q 231 426 216 412 m 203 479 q 249 445 227 467 q 286 497 276 475 q 312 495 290 509 q 334 468 334 481 q 333 465 334 466 q 268 319 323 437 q 243 263 252 286 q 433 398 340 322 q 461 387 444 406 q 472 357 479 368 q 471 355 471 356 q 211 183 327 238 q 205 167 209 178 q 198 150 200 155 q 248 -18 247 95 q 214 -179 248 -115 q 154 -225 188 -229 q 100 -191 125 -222 q 132 133 43 -119 q 139 151 134 136 q 109 153 133 153 q 94 155 100 153 q 62 178 77 161 q 65 196 52 194 q 108 196 88 198 q 165 220 130 203 q 213 338 192 289 q 101 286 142 290 q 39 302 66 282 q 16 387 -1 332 q 77 468 31 437 q 198 482 138 509 q 203 479 201 481 m 184 112 q 132 -183 104 -118 q 189 -79 171 -174 q 193 80 205 8 q 184 112 190 100 z "},"r":{"ha":338,"x_min":-31,"x_max":406,"o":"m 361 397 q 388 388 370 406 q 399 359 406 370 q 397 358 397 359 q 307 259 392 353 q 100 80 157 96 q 79 80 87 77 q 42 109 56 88 q 100 299 16 147 q 119 333 106 311 q 141 374 136 363 q 12 380 58 349 q -20 465 -31 410 q 18 530 -13 507 q 39 541 28 538 q 92 522 66 549 q 111 489 106 506 q 94 413 116 458 q 114 420 100 414 q 157 432 148 432 q 202 399 189 429 q 155 277 210 378 q 88 146 98 172 q 81 122 83 132 q 260 288 126 143 q 361 397 347 384 m 24 407 q 62 491 56 456 q 35 453 47 478 q 24 416 28 438 q 24 407 23 409 z "},"s":{"ha":269,"x_min":-65,"x_max":338,"o":"m 107 555 q 113 557 110 557 q 145 538 128 557 q 153 522 152 528 q 149 516 152 517 q 70 441 82 477 q 66 417 66 429 q 92 337 66 387 q 294 403 189 378 l 298 403 q 331 382 315 403 q 338 368 337 374 q 332 361 336 362 q 112 288 208 332 q 115 266 115 275 q 31 177 115 216 q 30 176 31 176 q -14 163 -1 163 q -60 197 -41 164 q -65 215 -65 205 q 60 323 -64 263 q 21 402 26 387 q 14 441 14 424 q 107 555 15 501 m 9 226 q 50 256 36 241 q 9 226 28 241 z "},"t":{"ha":193,"x_min":-304,"x_max":748,"o":"m 210 962 q 234 962 214 973 q 238 960 237 960 q 258 933 257 947 q 257 930 257 931 q 250 910 257 930 q 178 698 211 797 q 718 667 566 736 q 744 642 738 659 q 745 638 745 640 q 736 628 747 628 q 725 631 731 629 q 163 651 576 699 q 112 497 148 603 q -45 -12 -15 117 q -62 -128 -64 -94 q -76 -136 -61 -140 q -85 -133 -81 -135 q -110 -107 -104 -123 q -111 -103 -111 -104 q -2 327 -117 -27 q 52 489 16 380 q 102 644 87 595 q -11 627 47 636 q -112 610 -68 618 q -189 595 -155 602 q -243 585 -224 589 l -261 581 q -292 595 -275 578 q -296 599 -294 597 q -299 603 -297 601 q -301 606 -300 604 q -303 610 -302 608 q -304 613 -304 611 q -304 616 -304 614 q -304 618 -304 617 q -303 620 -304 619 q -301 622 -302 621 q -298 623 -300 623 q -292 624 -298 623 q 118 691 -81 667 q 163 828 140 760 q 198 929 186 896 l 210 962 z "},"u":{"ha":484,"x_min":0,"x_max":552,"o":"m 86 506 q 94 509 89 509 q 125 492 109 509 q 134 475 133 481 q 132 470 134 472 q 56 326 78 393 q 46 277 46 297 q 47 264 46 272 q 212 426 102 283 q 252 480 235 456 q 264 488 257 487 q 294 467 281 488 q 300 452 300 458 q 298 446 300 448 q 270 326 280 391 q 267 290 267 304 q 273 266 267 270 q 289 262 279 262 q 436 337 335 262 q 509 400 490 377 q 515 404 513 404 q 545 385 530 404 q 552 370 551 376 q 550 364 551 366 q 443 272 510 315 q 315 224 369 224 q 266 238 286 225 q 220 333 220 269 l 220 342 q 87 223 136 241 q 84 222 85 223 q 71 220 78 220 q 20 247 44 221 q 0 305 0 271 q 86 506 0 383 z "},"v":{"ha":369,"x_min":1,"x_max":437,"o":"m 51 484 q 59 489 54 488 q 89 472 74 489 q 96 456 96 463 q 96 452 96 453 q 72 382 96 452 q 47 252 47 300 q 50 227 47 239 q 166 342 92 243 q 179 359 173 351 q 227 437 210 402 l 235 476 q 238 480 237 480 q 246 485 241 485 q 276 467 262 485 q 285 442 286 455 q 275 409 275 412 q 274 403 274 406 q 275 390 274 395 q 296 386 281 386 q 397 404 336 386 q 401 405 399 405 q 431 385 417 405 q 437 371 437 377 q 431 363 436 366 q 332 345 373 345 q 254 372 283 345 q 153 238 209 297 q 68 183 100 184 l 66 183 q 13 222 33 183 q 3 252 5 237 q 1 275 1 260 q 3 303 1 288 q 7 334 5 319 q 14 365 10 349 q 22 395 18 381 q 31 423 26 410 q 38 448 35 437 q 45 467 42 458 q 49 479 47 475 l 51 484 z "},"w":{"ha":665,"x_min":-3,"x_max":732,"o":"m 83 506 q 90 509 86 509 q 122 491 105 509 q 131 475 130 481 q 130 470 131 472 q 50 317 71 385 q 43 275 43 292 q 43 264 43 267 q 130 332 74 275 q 248 480 184 389 q 260 487 254 487 q 291 465 277 487 q 296 450 296 456 q 295 446 296 448 q 255 256 257 325 q 257 234 255 244 q 370 331 310 241 q 435 468 420 405 q 436 473 435 471 q 436 476 436 474 q 437 481 437 478 q 438 487 437 484 q 439 494 439 490 q 440 501 439 498 q 441 508 441 505 q 442 514 441 511 q 444 518 443 517 l 444 520 q 452 524 446 524 q 484 507 471 524 q 490 484 490 496 q 488 456 490 476 q 484 408 484 426 q 501 355 485 363 q 529 350 513 350 q 687 401 586 350 q 692 402 689 402 q 725 383 708 402 q 732 368 732 374 q 728 361 732 363 q 562 309 627 309 q 509 319 530 309 q 457 361 476 334 q 378 246 428 298 q 283 193 326 193 q 243 208 262 193 q 208 296 208 237 q 212 336 208 313 q 81 222 127 237 q 70 221 77 221 q 56 223 63 221 q 42 228 48 225 q 32 234 36 231 q 24 240 27 237 q 22 242 22 242 q -3 306 -3 267 q 83 506 -3 383 z "},"x":{"ha":380,"x_min":-111,"x_max":460,"o":"m 414 416 q 420 417 417 417 q 452 398 435 417 q 460 382 459 389 q 456 376 459 378 q 416 351 445 369 q 227 247 288 269 q 168 235 192 235 q 154 235 158 235 q 94 267 119 241 q -62 39 -48 106 q -71 34 -64 35 q -102 52 -86 34 q -111 68 -111 61 q 18 270 -111 121 q 63 321 35 289 q 55 359 57 339 q 22 378 39 359 q 15 394 16 387 q 16 397 16 396 l 58 474 q 65 477 60 477 q 96 460 80 477 q 105 443 104 450 q 103 406 105 429 q 102 376 102 385 l 102 363 q 232 498 168 436 l 233 498 q 240 500 235 500 q 272 481 256 500 q 280 466 279 473 q 277 460 279 463 q 114 290 173 355 q 125 277 119 279 q 129 277 127 277 q 138 276 132 276 q 352 376 195 276 q 414 416 413 415 z "},"y":{"ha":429,"x_min":-229,"x_max":513,"o":"m 79 497 q 109 490 86 507 q 126 463 130 475 q 125 461 125 462 q 45 288 43 342 q 142 352 84 299 q 241 472 205 410 q 257 508 252 492 q 270 512 260 514 q 301 492 287 509 q 307 475 309 481 q 260 315 293 440 q 246 268 252 287 q 455 401 311 313 q 480 395 461 404 q 492 359 513 380 q 477 349 486 354 q 219 180 320 252 q 211 155 217 173 q 46 -227 125 -126 q -113 -260 -37 -332 q -27 51 -229 -151 q 172 216 49 127 q 205 331 184 253 q 187 314 194 319 l 186 314 q 85 248 127 260 q 20 265 51 237 q 2 290 8 276 q -2 334 -6 307 q 79 497 8 397 m -24 -220 q 141 121 52 -140 q -101 -148 -63 -38 q -87 -247 -121 -208 q -24 -220 -65 -263 z "},"z":{"ha":363,"x_min":-98,"x_max":438,"o":"m 64 361 q 58 359 61 359 q 26 378 43 359 q 18 393 19 387 q 21 399 19 397 q 71 437 21 399 q 147 479 121 473 q 159 481 152 481 q 193 468 177 480 q 208 434 208 455 q 153 321 208 397 q 144 308 146 311 q 212 281 186 305 q 266 319 238 300 q 314 351 294 338 q 352 375 335 365 q 378 392 369 386 l 387 397 q 415 394 399 405 q 420 390 418 392 q 432 364 437 374 q 430 362 431 363 q 421 356 430 362 q 232 226 317 287 q 137 75 226 168 q 1 -37 64 -2 q -22 -47 -12 -44 q -39 -50 -29 -50 q -88 -27 -69 -50 q -98 -1 -98 -14 q -97 10 -98 6 q 184 261 -76 75 q 160 265 176 265 q 104 258 125 265 l 104 258 q 102 258 102 258 q 69 277 85 258 q 62 292 62 286 q 64 297 62 295 q 140 410 104 347 q 146 420 143 415 q 64 361 107 397 m 118 141 q -29 9 9 56 q 118 141 43 54 z "},"{":{"ha":305,"x_min":0,"x_max":476,"o":"m 439 952 q 471 929 458 949 q 476 917 476 922 q 468 910 475 911 l 465 910 q 454 911 460 911 q 371 831 404 911 q 326 680 357 798 q 254 490 291 546 q 146 413 211 423 q 178 340 178 383 q 119 184 178 286 q 64 92 66 95 q 42 24 42 48 q 53 -4 43 7 q 72 -9 58 -9 q 106 -5 85 -9 q 140 4 126 0 l 154 9 q 159 10 157 10 q 191 -9 175 10 q 199 -25 198 -19 q 193 -32 198 -30 q 157 -41 193 -32 q 111 -46 133 -46 q 24 -15 55 -45 q 0 47 0 10 q 54 193 0 97 q 111 295 104 281 q 130 362 130 336 q 92 414 129 399 q 62 440 70 422 q 60 448 60 445 q 68 455 61 454 l 71 455 q 92 454 85 454 q 227 560 178 454 q 283 732 250 608 q 339 895 314 851 q 425 953 374 952 q 439 952 434 953 z "},"}":{"ha":402,"x_min":-83,"x_max":379,"o":"m -44 -50 q -77 -28 -62 -49 q -83 -14 -83 -19 q -75 -7 -82 -7 l -74 -7 q -69 -7 -72 -7 q -64 -7 -65 -7 q 54 76 17 -7 q 94 218 72 114 q 140 366 116 323 q 245 435 178 430 q 218 519 218 469 q 220 545 218 536 q 276 705 224 581 q 332 865 328 829 q 332 872 332 869 q 328 889 332 884 q 290 899 319 899 q 266 898 279 899 q 245 895 253 897 l 237 894 q 236 894 237 894 q 234 893 235 893 q 201 913 217 893 q 195 928 195 922 q 201 935 196 934 q 236 939 201 935 q 245 939 241 939 q 361 895 323 939 q 379 840 379 873 q 334 693 379 794 q 279 560 288 593 q 269 515 271 535 q 267 490 267 505 q 293 433 268 444 q 321 410 310 427 q 319 392 331 395 q 314 392 317 392 q 291 393 305 393 q 177 312 214 393 q 139 172 161 275 q 92 22 117 66 q -33 -50 50 -49 l -44 -50 z "},"~":{"ha":198,"x_min":0,"x_max":168,"o":"m 30 534 q 25 533 28 533 q 3 546 14 533 q 0 554 0 551 q 1 557 1 556 q 50 588 28 587 q 92 565 67 588 q 94 563 93 564 q 105 556 101 556 q 138 580 117 557 q 142 581 140 581 q 164 568 153 581 q 168 559 168 563 q 166 556 167 557 q 121 529 142 529 q 79 552 104 529 q 77 554 78 553 q 65 561 70 560 q 30 534 52 559 z "},"":{"ha":244,"x_min":53,"x_max":196,"o":"m 86 579 q 112 562 106 579 q 113 554 113 557 q 92 526 113 534 q 79 523 86 523 q 54 541 59 523 q 53 548 53 545 q 73 576 53 568 q 86 579 79 579 m 170 579 q 195 562 190 579 q 196 554 196 557 q 176 526 196 534 q 163 523 170 523 q 137 541 142 523 q 136 548 136 545 q 157 576 136 568 q 170 579 163 579 z "},"":{"ha":195,"x_min":58,"x_max":134,"o":"m 134 618 q 100 549 130 575 q 67 534 85 536 q 58 539 58 532 q 61 547 59 543 q 83 564 66 555 q 86 566 85 566 q 97 600 94 578 q 117 622 99 612 q 134 621 130 629 q 134 618 134 619 z "},"":{"ha":133,"x_min":14,"x_max":110,"o":"m 58 227 q 63 229 60 229 q 83 216 73 229 q 87 205 89 210 l 73 172 q 110 120 109 148 q 96 94 109 104 q 73 86 85 86 q 24 106 44 86 q 14 128 14 117 q 29 132 14 140 q 45 113 43 123 q 76 125 67 108 q 77 129 77 127 q 79 136 79 135 q 48 170 79 157 q 40 173 43 172 q 38 177 38 174 q 58 225 38 184 q 58 227 58 226 z "},"":{"ha":952,"x_min":-100,"x_max":935,"o":"m 783 1211 q 791 1218 783 1218 q 800 1215 795 1218 q 819 1193 817 1206 q 830 1160 822 1172 q 836 1156 831 1158 q 856 1140 850 1148 q 853 1127 863 1128 q 849 1127 850 1127 q 792 1177 812 1133 q 783 1211 785 1194 m -56 253 q -58 252 -56 252 l -60 253 q -93 273 -77 253 q -100 288 -99 281 q -95 294 -98 293 q -90 296 -95 294 q 208 368 54 336 q 581 951 453 806 q 505 917 547 936 q 440 887 464 898 l 416 876 q 411 875 414 875 q 378 895 395 875 q 371 910 372 904 q 376 916 372 914 l 526 984 q 684 1042 660 1042 q 718 1025 701 1042 q 727 1008 726 1016 q 722 996 726 1002 q 683 966 713 986 q 290 398 570 890 q 762 941 609 831 q 791 959 778 951 q 842 973 817 973 q 918 922 890 973 q 931 885 926 905 q 935 837 935 867 q 833 427 935 713 q 916 395 890 422 q 924 383 923 388 q 915 378 922 378 q 909 378 911 378 q 819 388 873 385 q 803 345 816 378 q 707 41 707 93 l 707 35 q 694 26 705 28 q 664 52 673 26 q 661 76 661 62 q 668 122 661 94 q 760 390 684 180 l 755 390 q 322 342 576 390 q 273 275 298 309 q 227 211 248 241 q 185 151 205 180 q 147 96 164 121 q 114 49 130 71 q 87 9 99 26 q 67 -20 76 -7 q 54 -39 59 -33 l 50 -46 q 43 -50 47 -50 q 11 -31 27 -50 q 3 -16 3 -22 q 3 -11 3 -12 q 10 3 4 -10 q 176 312 96 165 q 100 294 138 303 q 35 278 62 285 q -13 265 8 271 q -45 256 -35 259 l -56 253 m 363 397 q 726 432 573 432 q 775 431 743 432 q 886 838 872 697 q 888 872 888 857 q 870 937 887 921 q 862 939 867 939 q 535 612 806 939 q 363 397 415 468 z "},"":{"ha":952,"x_min":-100,"x_max":935,"o":"m 901 1219 q 867 1151 897 1177 q 835 1135 852 1138 q 826 1141 825 1134 q 829 1148 827 1145 q 850 1165 834 1157 q 854 1168 853 1167 q 865 1201 862 1180 q 884 1223 867 1213 q 901 1222 898 1231 q 901 1219 901 1221 m -56 253 q -58 252 -56 252 l -60 253 q -93 273 -77 253 q -100 288 -99 281 q -95 294 -98 293 q -90 296 -95 294 q 208 368 54 336 q 581 951 453 806 q 505 917 547 936 q 440 887 464 898 l 416 876 q 411 875 414 875 q 378 895 395 875 q 371 910 372 904 q 376 916 372 914 l 526 984 q 684 1042 660 1042 q 718 1025 701 1042 q 727 1008 726 1016 q 722 996 726 1002 q 683 966 713 986 q 290 398 570 890 q 762 941 609 831 q 791 959 778 951 q 842 973 817 973 q 918 922 890 973 q 931 885 926 905 q 935 837 935 867 q 833 427 935 713 q 916 395 890 422 q 924 383 923 388 q 915 378 922 378 q 909 378 911 378 q 819 388 873 385 q 803 345 816 378 q 707 41 707 93 l 707 35 q 694 26 705 28 q 664 52 673 26 q 661 76 661 62 q 668 122 661 94 q 760 390 684 180 l 755 390 q 322 342 576 390 q 273 275 298 309 q 227 211 248 241 q 185 151 205 180 q 147 96 164 121 q 114 49 130 71 q 87 9 99 26 q 67 -20 76 -7 q 54 -39 59 -33 l 50 -46 q 43 -50 47 -50 q 11 -31 27 -50 q 3 -16 3 -22 q 3 -11 3 -12 q 10 3 4 -10 q 176 312 96 165 q 100 294 138 303 q 35 278 62 285 q -13 265 8 271 q -45 256 -35 259 l -56 253 m 363 397 q 726 432 573 432 q 775 431 743 432 q 886 838 872 697 q 888 872 888 857 q 870 937 887 921 q 862 939 867 939 q 535 612 806 939 q 363 397 415 468 z "},"":{"ha":952,"x_min":-100,"x_max":979,"o":"m 864 1131 q 860 1129 862 1129 q 838 1143 848 1129 q 835 1151 835 1147 q 836 1154 836 1153 q 877 1192 836 1154 q 935 1230 916 1224 q 942 1231 941 1231 q 974 1211 962 1231 q 978 1202 977 1206 q 979 1191 979 1195 q 976 1164 979 1180 q 968 1139 972 1149 l 964 1129 q 959 1126 962 1126 q 938 1139 948 1126 q 935 1150 933 1146 q 946 1186 935 1150 q 949 1200 948 1194 q 913 1174 935 1192 q 878 1143 892 1157 l 864 1131 m -56 253 q -58 252 -56 252 l -60 253 q -93 273 -77 253 q -100 288 -99 281 q -95 294 -98 293 q -90 296 -95 294 q 208 368 54 336 q 581 951 453 806 q 505 917 547 936 q 440 887 464 898 l 416 876 q 411 875 414 875 q 378 895 395 875 q 371 910 372 904 q 376 916 372 914 l 526 984 q 684 1042 660 1042 q 718 1025 701 1042 q 727 1008 726 1016 q 722 996 726 1002 q 683 966 713 986 q 290 398 570 890 q 762 941 609 831 q 791 959 778 951 q 842 973 817 973 q 918 922 890 973 q 931 885 926 905 q 935 837 935 867 q 833 427 935 713 q 916 395 890 422 q 924 383 923 388 q 915 378 922 378 q 909 378 911 378 q 819 388 873 385 q 803 345 816 378 q 707 41 707 93 l 707 35 q 694 26 705 28 q 664 52 673 26 q 661 76 661 62 q 668 122 661 94 q 760 390 684 180 l 755 390 q 322 342 576 390 q 273 275 298 309 q 227 211 248 241 q 185 151 205 180 q 147 96 164 121 q 114 49 130 71 q 87 9 99 26 q 67 -20 76 -7 q 54 -39 59 -33 l 50 -46 q 43 -50 47 -50 q 11 -31 27 -50 q 3 -16 3 -22 q 3 -11 3 -12 q 10 3 4 -10 q 176 312 96 165 q 100 294 138 303 q 35 278 62 285 q -13 265 8 271 q -45 256 -35 259 l -56 253 m 363 397 q 726 432 573 432 q 775 431 743 432 q 886 838 872 697 q 888 872 888 857 q 870 937 887 921 q 862 939 867 939 q 535 612 806 939 q 363 397 415 468 z "},"":{"ha":952,"x_min":-100,"x_max":935,"o":"m -56 253 q -58 252 -56 252 l -60 253 q -93 273 -77 253 q -100 288 -99 281 q -95 294 -98 293 q -90 296 -95 294 q 208 368 54 336 q 581 951 453 806 q 505 917 547 936 q 440 887 464 898 l 416 876 q 411 875 414 875 q 378 895 395 875 q 371 910 372 904 q 376 916 372 914 l 526 984 q 684 1042 660 1042 q 718 1025 701 1042 q 727 1008 726 1016 q 722 996 726 1002 q 683 966 713 986 q 290 398 570 890 q 762 941 609 831 q 791 959 778 951 q 842 973 817 973 q 918 922 890 973 q 931 885 926 905 q 935 837 935 867 q 833 427 935 713 q 916 395 890 422 q 924 383 923 388 q 915 378 922 378 q 909 378 911 378 q 819 388 873 385 q 803 345 816 378 q 707 41 707 93 l 707 35 q 694 26 705 28 q 664 52 673 26 q 661 76 661 62 q 668 122 661 94 q 760 390 684 180 l 755 390 q 322 342 576 390 q 273 275 298 309 q 227 211 248 241 q 185 151 205 180 q 147 96 164 121 q 114 49 130 71 q 87 9 99 26 q 67 -20 76 -7 q 54 -39 59 -33 l 50 -46 q 43 -50 47 -50 q 11 -31 27 -50 q 3 -16 3 -22 q 3 -11 3 -12 q 10 3 4 -10 q 176 312 96 165 q 100 294 138 303 q 35 278 62 285 q -13 265 8 271 q -45 256 -35 259 l -56 253 m 363 397 q 726 432 573 432 q 775 431 743 432 q 886 838 872 697 q 888 872 888 857 q 870 937 887 921 q 862 939 867 939 q 535 612 806 939 q 363 397 415 468 z "},"":{"ha":952,"x_min":-100,"x_max":935,"o":"m 814 1196 q 840 1179 834 1196 q 840 1171 840 1175 q 820 1143 840 1151 q 807 1140 814 1140 q 781 1158 787 1140 q 781 1165 781 1162 q 801 1194 781 1185 q 814 1196 807 1196 m 897 1196 q 923 1179 918 1196 q 924 1171 924 1175 q 903 1143 924 1151 q 890 1140 897 1140 q 865 1158 870 1140 q 864 1165 864 1162 q 884 1194 864 1185 q 897 1196 890 1196 m -56 253 q -58 252 -56 252 l -60 253 q -93 273 -77 253 q -100 288 -99 281 q -95 294 -98 293 q -90 296 -95 294 q 208 368 54 336 q 581 951 453 806 q 505 917 547 936 q 440 887 464 898 l 416 876 q 411 875 414 875 q 378 895 395 875 q 371 910 372 904 q 376 916 372 914 l 526 984 q 684 1042 660 1042 q 718 1025 701 1042 q 727 1008 726 1016 q 722 996 726 1002 q 683 966 713 986 q 290 398 570 890 q 762 941 609 831 q 791 959 778 951 q 842 973 817 973 q 918 922 890 973 q 931 885 926 905 q 935 837 935 867 q 833 427 935 713 q 916 395 890 422 q 924 383 923 388 q 915 378 922 378 q 909 378 911 378 q 819 388 873 385 q 803 345 816 378 q 707 41 707 93 l 707 35 q 694 26 705 28 q 664 52 673 26 q 661 76 661 62 q 668 122 661 94 q 760 390 684 180 l 755 390 q 322 342 576 390 q 273 275 298 309 q 227 211 248 241 q 185 151 205 180 q 147 96 164 121 q 114 49 130 71 q 87 9 99 26 q 67 -20 76 -7 q 54 -39 59 -33 l 50 -46 q 43 -50 47 -50 q 11 -31 27 -50 q 3 -16 3 -22 q 3 -11 3 -12 q 10 3 4 -10 q 176 312 96 165 q 100 294 138 303 q 35 278 62 285 q -13 265 8 271 q -45 256 -35 259 l -56 253 m 363 397 q 726 432 573 432 q 775 431 743 432 q 886 838 872 697 q 888 872 888 857 q 870 937 887 921 q 862 939 867 939 q 535 612 806 939 q 363 397 415 468 z "},"":{"ha":952,"x_min":-100,"x_max":935,"o":"m 842 1098 q 844 1082 840 1086 q 852 1078 848 1078 q 884 1105 867 1078 q 893 1134 893 1122 q 851 1114 869 1133 q 842 1098 844 1105 m 826 1076 q 811 1107 811 1092 q 842 1152 811 1135 q 875 1161 858 1161 q 885 1160 879 1161 q 920 1134 909 1154 q 924 1116 924 1126 q 901 1067 924 1088 q 869 1053 886 1053 q 826 1076 847 1054 m -56 253 q -58 252 -56 252 l -60 253 q -93 273 -77 253 q -100 288 -99 281 q -95 294 -98 293 q -90 296 -95 294 q 208 368 54 336 q 581 951 453 806 q 505 917 547 936 q 440 887 464 898 l 416 876 q 411 875 414 875 q 378 895 395 875 q 371 910 372 904 q 376 916 372 914 l 526 984 q 684 1042 660 1042 q 718 1025 701 1042 q 727 1008 726 1016 q 722 996 726 1002 q 683 966 713 986 q 290 398 570 890 q 762 941 609 831 q 791 959 778 951 q 842 973 817 973 q 918 922 890 973 q 931 885 926 905 q 935 837 935 867 q 833 427 935 713 q 916 395 890 422 q 924 383 923 388 q 915 378 922 378 q 909 378 911 378 q 819 388 873 385 q 803 345 816 378 q 707 41 707 93 l 707 35 q 694 26 705 28 q 664 52 673 26 q 661 76 661 62 q 668 122 661 94 q 760 390 684 180 l 755 390 q 322 342 576 390 q 273 275 298 309 q 227 211 248 241 q 185 151 205 180 q 147 96 164 121 q 114 49 130 71 q 87 9 99 26 q 67 -20 76 -7 q 54 -39 59 -33 l 50 -46 q 43 -50 47 -50 q 11 -31 27 -50 q 3 -16 3 -22 q 3 -11 3 -12 q 10 3 4 -10 q 176 312 96 165 q 100 294 138 303 q 35 278 62 285 q -13 265 8 271 q -45 256 -35 259 l -56 253 m 363 397 q 726 432 573 432 q 775 431 743 432 q 886 838 872 697 q 888 872 888 857 q 870 937 887 921 q 862 939 867 939 q 535 612 806 939 q 363 397 415 468 z "},"":{"ha":1463,"x_min":-131,"x_max":1535,"o":"m -87 157 q -91 156 -89 156 q -123 175 -107 156 q -131 191 -130 184 q -125 197 -130 195 q -119 199 -125 197 q 181 281 27 243 q 585 916 448 763 q 509 882 551 901 q 442 852 467 863 l 418 840 q 413 840 416 840 q 381 859 397 840 q 374 874 374 868 q 378 881 374 879 q 387 885 378 881 q 682 1005 623 994 q 688 1006 686 1006 q 722 989 706 1006 q 729 972 729 980 q 724 959 728 964 q 685 930 717 952 q 292 362 572 854 q 812 932 673 878 q 850 941 833 941 q 933 819 920 941 q 935 771 935 795 q 931 704 935 738 q 1107 865 996 800 q 1322 931 1218 930 l 1324 931 q 1402 899 1377 931 q 1415 861 1415 882 q 1404 819 1415 840 q 1316 716 1377 766 q 1305 707 1311 711 q 1299 705 1302 705 q 1267 724 1283 705 q 1259 740 1259 733 q 1262 746 1259 744 q 1323 808 1284 764 q 1369 879 1368 860 q 1354 889 1369 889 q 1114 804 1236 889 q 958 635 1011 731 q 943 592 943 609 q 1032 547 945 547 q 1177 564 1079 547 l 1179 564 l 1180 565 q 1213 545 1196 565 q 1220 530 1219 536 q 1216 524 1220 526 q 988 370 1216 524 q 1014 342 1010 359 q 1015 339 1015 340 q 1006 332 1013 333 l 1002 332 q 947 339 967 338 q 785 189 846 259 q 710 -3 772 155 q 762 -16 730 -16 q 1227 209 899 -16 q 1485 401 1384 316 q 1488 404 1487 403 q 1495 406 1491 406 q 1527 387 1510 406 q 1535 372 1534 378 q 1532 366 1534 368 q 994 4 1237 111 q 877 -39 930 -24 q 777 -54 820 -54 q 661 9 684 -54 q 654 46 654 26 q 727 211 654 121 q 738 224 732 218 q 779 338 766 302 q 288 256 577 323 q 244 196 266 227 q 204 139 222 166 q 167 87 185 113 q 135 40 149 61 q 107 -1 120 18 q 84 -35 94 -20 q 67 -60 74 -50 q 56 -76 60 -71 l 52 -82 q 45 -85 50 -85 q 14 -68 30 -85 q 5 -51 5 -58 q 6 -46 5 -49 q 149 222 55 52 q 72 202 110 212 q 6 183 33 191 q -43 170 -22 176 q -76 160 -65 163 l -87 157 m 331 316 q 793 382 604 374 q 890 814 890 675 q 882 884 890 857 q 863 898 876 897 q 509 546 792 898 q 331 316 397 408 m 852 384 q 909 382 882 384 q 1089 511 990 446 l 1079 511 q 905 572 946 511 q 852 384 886 492 m 859 342 q 849 342 856 342 q 838 341 842 341 q 833 326 837 336 q 829 315 830 318 q 859 342 840 325 z "},"":{"ha":762,"x_min":0,"x_max":825,"o":"m 144 -48 q 149 -45 146 -45 q 170 -58 159 -45 q 174 -70 175 -65 l 159 -102 q 196 -155 195 -127 q 182 -181 195 -171 q 159 -189 172 -189 q 110 -168 130 -189 q 100 -146 100 -157 q 115 -143 100 -134 q 131 -161 130 -151 q 162 -149 153 -167 q 163 -146 163 -147 q 165 -138 165 -140 q 134 -104 165 -118 q 126 -102 130 -103 q 124 -98 124 -101 q 144 -50 124 -90 q 144 -48 144 -49 m 437 432 q 432 431 433 431 q 399 450 416 431 q 392 466 393 460 q 396 472 392 470 q 675 707 566 568 q 745 822 721 766 q 768 921 766 875 q 753 962 768 951 q 707 973 738 973 q 665 970 684 973 q 397 793 548 951 q 156 458 258 648 q 47 125 50 254 q 131 -4 47 17 q 171 -9 149 -9 q 277 14 218 -9 q 390 68 336 36 q 505 147 444 100 q 608 230 566 193 q 696 311 651 267 q 756 369 742 354 q 783 397 771 384 l 784 397 q 790 400 787 399 q 817 380 803 400 q 825 361 825 368 q 822 354 824 357 l 821 353 q 586 138 714 240 q 197 -50 347 -50 q 152 -45 172 -50 q 31 41 73 -26 q 3 117 9 77 q 0 159 0 135 q 116 511 0 303 q 361 840 219 696 q 621 1010 509 988 q 629 1012 626 1011 q 671 1015 649 1015 q 764 988 726 1014 q 817 887 817 949 q 793 789 817 845 q 615 559 741 672 q 437 432 534 487 z "},"":{"ha":814,"x_min":0,"x_max":886,"o":"m 687 1222 q 694 1229 686 1229 q 704 1226 699 1229 q 723 1204 721 1217 q 734 1171 726 1183 q 740 1167 734 1169 q 760 1151 754 1159 q 757 1138 767 1139 q 753 1138 754 1138 q 696 1187 715 1144 q 687 1222 689 1205 m 654 704 q 647 702 650 702 q 615 721 631 702 q 607 736 608 730 q 610 743 608 741 q 689 823 656 778 q 716 885 717 861 q 701 886 711 886 q 501 819 619 886 q 329 680 389 755 q 289 588 289 629 q 290 573 289 582 q 379 548 296 548 q 525 561 459 548 q 527 561 525 561 q 528 562 528 562 q 561 541 545 562 q 568 526 567 532 q 564 520 567 522 q 299 337 434 444 q 47 27 50 138 q 51 3 47 16 q 94 -18 58 -18 q 334 56 170 -18 q 366 71 355 66 q 836 401 587 184 q 863 395 844 408 q 869 391 867 393 q 882 365 886 375 q 880 363 881 363 q 408 31 629 144 q 130 -55 239 -55 q 66 -43 92 -55 q 0 50 1 -14 q 7 94 0 69 q 326 430 52 232 q 437 507 380 469 l 427 507 q 254 564 295 507 q 241 595 245 578 q 240 614 240 602 q 347 782 240 692 q 557 903 441 861 q 671 928 624 927 l 672 928 q 747 899 720 928 q 763 870 759 886 q 764 858 764 862 q 691 736 764 808 q 654 704 671 718 z "},"":{"ha":814,"x_min":0,"x_max":886,"o":"m 819 1222 q 785 1154 815 1179 q 753 1138 770 1141 q 744 1143 743 1137 q 747 1151 745 1147 q 768 1168 752 1160 q 772 1171 771 1170 q 783 1204 780 1183 q 802 1226 785 1216 q 819 1225 816 1234 q 819 1222 819 1223 m 654 704 q 647 702 650 702 q 615 721 631 702 q 607 736 608 730 q 610 743 608 741 q 689 823 656 778 q 716 885 717 861 q 701 886 711 886 q 501 819 619 886 q 329 680 389 755 q 289 588 289 629 q 290 573 289 582 q 379 548 296 548 q 525 561 459 548 q 527 561 525 561 q 528 562 528 562 q 561 541 545 562 q 568 526 567 532 q 564 520 567 522 q 299 337 434 444 q 47 27 50 138 q 51 3 47 16 q 94 -18 58 -18 q 334 56 170 -18 q 366 71 355 66 q 836 401 587 184 q 863 395 844 408 q 869 391 867 393 q 882 365 886 375 q 880 363 881 363 q 408 31 629 144 q 130 -55 239 -55 q 66 -43 92 -55 q 0 50 1 -14 q 7 94 0 69 q 326 430 52 232 q 437 507 380 469 l 427 507 q 254 564 295 507 q 241 595 245 578 q 240 614 240 602 q 347 782 240 692 q 557 903 441 861 q 671 928 624 927 l 672 928 q 747 899 720 928 q 763 870 759 886 q 764 858 764 862 q 691 736 764 808 q 654 704 671 718 z "},"":{"ha":814,"x_min":0,"x_max":886,"o":"m 724 1141 q 720 1140 722 1140 q 698 1154 708 1140 q 694 1162 694 1158 q 696 1165 695 1164 q 736 1202 696 1165 q 795 1240 776 1235 q 802 1242 801 1242 q 833 1222 821 1242 q 838 1213 836 1217 q 839 1202 839 1206 q 835 1175 839 1191 q 827 1150 831 1160 l 823 1140 q 819 1137 822 1137 q 798 1150 808 1137 q 794 1161 793 1157 q 806 1197 794 1161 q 808 1211 808 1204 q 773 1185 794 1202 q 738 1154 751 1168 l 724 1141 m 654 704 q 647 702 650 702 q 615 721 631 702 q 607 736 608 730 q 610 743 608 741 q 689 823 656 778 q 716 885 717 861 q 701 886 711 886 q 501 819 619 886 q 329 680 389 755 q 289 588 289 629 q 290 573 289 582 q 379 548 296 548 q 525 561 459 548 q 527 561 525 561 q 528 562 528 562 q 561 541 545 562 q 568 526 567 532 q 564 520 567 522 q 299 337 434 444 q 47 27 50 138 q 51 3 47 16 q 94 -18 58 -18 q 334 56 170 -18 q 366 71 355 66 q 836 401 587 184 q 863 395 844 408 q 869 391 867 393 q 882 365 886 375 q 880 363 881 363 q 408 31 629 144 q 130 -55 239 -55 q 66 -43 92 -55 q 0 50 1 -14 q 7 94 0 69 q 326 430 52 232 q 437 507 380 469 l 427 507 q 254 564 295 507 q 241 595 245 578 q 240 614 240 602 q 347 782 240 692 q 557 903 441 861 q 671 928 624 927 l 672 928 q 747 899 720 928 q 763 870 759 886 q 764 858 764 862 q 691 736 764 808 q 654 704 671 718 z "},"":{"ha":814,"x_min":0,"x_max":886,"o":"m 726 1194 q 751 1176 746 1194 q 752 1168 752 1172 q 732 1140 752 1148 q 719 1137 726 1137 q 693 1155 699 1137 q 692 1162 692 1159 q 713 1191 692 1183 q 726 1194 719 1194 m 809 1194 q 835 1176 829 1194 q 836 1168 836 1172 q 815 1140 836 1148 q 802 1137 809 1137 q 777 1155 782 1137 q 776 1162 776 1159 q 796 1191 776 1183 q 809 1194 802 1194 m 654 704 q 647 702 650 702 q 615 721 631 702 q 607 736 608 730 q 610 743 608 741 q 689 823 656 778 q 716 885 717 861 q 701 886 711 886 q 501 819 619 886 q 329 680 389 755 q 289 588 289 629 q 290 573 289 582 q 379 548 296 548 q 525 561 459 548 q 527 561 525 561 q 528 562 528 562 q 561 541 545 562 q 568 526 567 532 q 564 520 567 522 q 299 337 434 444 q 47 27 50 138 q 51 3 47 16 q 94 -18 58 -18 q 334 56 170 -18 q 366 71 355 66 q 836 401 587 184 q 863 395 844 408 q 869 391 867 393 q 882 365 886 375 q 880 363 881 363 q 408 31 629 144 q 130 -55 239 -55 q 66 -43 92 -55 q 0 50 1 -14 q 7 94 0 69 q 326 430 52 232 q 437 507 380 469 l 427 507 q 254 564 295 507 q 241 595 245 578 q 240 614 240 602 q 347 782 240 692 q 557 903 441 861 q 671 928 624 927 l 672 928 q 747 899 720 928 q 763 870 759 886 q 764 858 764 862 q 691 736 764 808 q 654 704 671 718 z "},"":{"ha":570,"x_min":0,"x_max":806,"o":"m 575 1222 q 583 1229 574 1229 q 592 1226 587 1229 q 611 1204 609 1217 q 622 1171 614 1183 q 628 1167 623 1169 q 648 1151 642 1159 q 645 1138 655 1139 q 641 1138 642 1138 q 584 1187 604 1144 q 575 1222 577 1205 m 42 -62 l 41 -62 l 39 -63 q 7 -43 22 -63 q 0 -28 0 -34 q 7 -21 1 -22 q 14 -20 7 -21 q 207 6 121 -4 q 492 795 226 159 q 541 912 517 857 q 490 905 516 909 q 443 899 463 902 q 407 893 423 896 q 382 890 391 891 l 373 888 l 370 888 q 337 909 353 888 q 330 924 331 918 q 337 930 332 929 q 342 931 337 930 q 562 961 465 950 q 579 980 570 979 q 604 965 589 979 q 720 972 678 972 q 751 971 743 972 q 801 943 785 967 q 806 931 806 936 q 800 924 804 925 l 798 924 q 791 925 796 924 q 749 930 770 930 l 747 930 q 606 920 691 929 q 282 90 361 348 q 261 13 268 44 q 390 22 342 22 q 425 19 407 22 q 469 -13 454 14 q 474 -25 474 -20 q 472 -28 473 -28 q 469 -27 471 -28 q 417 -21 456 -21 q 254 -34 372 -21 q 243 -51 253 -50 q 219 -38 233 -50 q 165 -45 193 -41 q 117 -52 138 -49 q 78 -57 96 -54 q 52 -61 61 -60 l 42 -62 z "},"":{"ha":570,"x_min":0,"x_max":806,"o":"m 707 1222 q 673 1154 703 1179 q 641 1138 659 1141 q 632 1143 631 1137 q 635 1151 633 1147 q 656 1168 640 1160 q 660 1171 659 1170 q 671 1204 668 1183 q 690 1226 673 1216 q 707 1225 704 1234 q 707 1222 707 1223 m 42 -62 l 41 -62 l 39 -63 q 7 -43 22 -63 q 0 -28 0 -34 q 7 -21 1 -22 q 14 -20 7 -21 q 207 6 121 -4 q 492 795 226 159 q 541 912 517 857 q 490 905 516 909 q 443 899 463 902 q 407 893 423 896 q 382 890 391 891 l 373 888 l 370 888 q 337 909 353 888 q 330 924 331 918 q 337 930 332 929 q 342 931 337 930 q 562 961 465 950 q 579 980 570 979 q 604 965 589 979 q 720 972 678 972 q 751 971 743 972 q 801 943 785 967 q 806 931 806 936 q 800 924 804 925 l 798 924 q 791 925 796 924 q 749 930 770 930 l 747 930 q 606 920 691 929 q 282 90 361 348 q 261 13 268 44 q 390 22 342 22 q 425 19 407 22 q 469 -13 454 14 q 474 -25 474 -20 q 472 -28 473 -28 q 469 -27 471 -28 q 417 -21 456 -21 q 254 -34 372 -21 q 243 -51 253 -50 q 219 -38 233 -50 q 165 -45 193 -41 q 117 -52 138 -49 q 78 -57 96 -54 q 52 -61 61 -60 l 42 -62 z "},"":{"ha":570,"x_min":0,"x_max":806,"o":"m 611 1141 q 607 1140 609 1140 q 585 1154 595 1140 q 582 1162 582 1158 q 583 1165 583 1164 q 624 1202 583 1165 q 682 1240 663 1235 q 689 1242 688 1242 q 721 1222 709 1242 q 725 1213 724 1217 q 726 1202 726 1206 q 723 1175 726 1191 q 715 1150 719 1160 l 711 1140 q 706 1137 709 1137 q 685 1150 695 1137 q 682 1161 680 1157 q 693 1197 682 1161 q 696 1211 695 1204 q 660 1185 682 1202 q 625 1154 639 1168 l 611 1141 m 42 -62 l 41 -62 l 39 -63 q 7 -43 22 -63 q 0 -28 0 -34 q 7 -21 1 -22 q 14 -20 7 -21 q 207 6 121 -4 q 492 795 226 159 q 541 912 517 857 q 490 905 516 909 q 443 899 463 902 q 407 893 423 896 q 382 890 391 891 l 373 888 l 370 888 q 337 909 353 888 q 330 924 331 918 q 337 930 332 929 q 342 931 337 930 q 562 961 465 950 q 579 980 570 979 q 604 965 589 979 q 720 972 678 972 q 751 971 743 972 q 801 943 785 967 q 806 931 806 936 q 800 924 804 925 l 798 924 q 791 925 796 924 q 749 930 770 930 l 747 930 q 606 920 691 929 q 282 90 361 348 q 261 13 268 44 q 390 22 342 22 q 425 19 407 22 q 469 -13 454 14 q 474 -25 474 -20 q 472 -28 473 -28 q 469 -27 471 -28 q 417 -21 456 -21 q 254 -34 372 -21 q 243 -51 253 -50 q 219 -38 233 -50 q 165 -45 193 -41 q 117 -52 138 -49 q 78 -57 96 -54 q 52 -61 61 -60 l 42 -62 z "},"":{"ha":570,"x_min":0,"x_max":806,"o":"m 614 1194 q 640 1176 634 1194 q 640 1168 640 1172 q 620 1140 640 1148 q 607 1137 614 1137 q 581 1155 587 1137 q 581 1162 581 1159 q 601 1191 581 1183 q 614 1194 607 1194 m 697 1194 q 723 1176 718 1194 q 724 1168 724 1172 q 703 1140 724 1148 q 690 1137 697 1137 q 665 1155 670 1137 q 664 1162 664 1159 q 684 1191 664 1183 q 697 1194 690 1194 m 42 -62 l 41 -62 l 39 -63 q 7 -43 22 -63 q 0 -28 0 -34 q 7 -21 1 -22 q 14 -20 7 -21 q 207 6 121 -4 q 492 795 226 159 q 541 912 517 857 q 490 905 516 909 q 443 899 463 902 q 407 893 423 896 q 382 890 391 891 l 373 888 l 370 888 q 337 909 353 888 q 330 924 331 918 q 337 930 332 929 q 342 931 337 930 q 562 961 465 950 q 579 980 570 979 q 604 965 589 979 q 720 972 678 972 q 751 971 743 972 q 801 943 785 967 q 806 931 806 936 q 800 924 804 925 l 798 924 q 791 925 796 924 q 749 930 770 930 l 747 930 q 606 920 691 929 q 282 90 361 348 q 261 13 268 44 q 390 22 342 22 q 425 19 407 22 q 469 -13 454 14 q 474 -25 474 -20 q 472 -28 473 -28 q 469 -27 471 -28 q 417 -21 456 -21 q 254 -34 372 -21 q 243 -51 253 -50 q 219 -38 233 -50 q 165 -45 193 -41 q 117 -52 138 -49 q 78 -57 96 -54 q 52 -61 61 -60 l 42 -62 z "},"":{"ha":947,"x_min":-97,"x_max":1030,"o":"m 224 63 q 203 62 220 54 q 195 67 198 64 q 176 94 175 81 q 176 97 176 96 q 313 437 205 165 l 220 436 q 56 147 88 264 q 46 81 46 109 q 117 -19 46 0 q 159 -24 136 -24 q 269 -1 208 -24 q 595 218 416 56 q 877 544 768 374 q 962 713 937 636 q 981 814 981 770 q 799 975 981 955 q 739 977 770 977 q 397 919 587 977 q 329 895 359 907 q 32 726 138 821 q -47 608 -37 663 q -49 591 -49 599 q 14 510 -49 542 q 39 498 26 504 q 66 474 58 490 q 68 470 68 472 q 60 458 71 459 q 50 461 55 459 q -84 567 -51 503 q -97 618 -97 592 q -96 639 -97 632 q 58 818 -80 724 q 289 936 157 884 q 672 1021 494 1016 q 694 1021 683 1021 q 795 1013 749 1021 q 1019 851 968 981 q 1030 785 1030 821 q 1010 681 1030 741 q 795 339 959 528 q 475 50 644 165 q 308 -42 385 -12 q 195 -64 252 -64 q 43 -6 98 -64 q -1 111 -1 41 q 8 179 -1 145 q 146 435 37 286 l 128 435 q 95 456 110 435 q 88 471 88 465 q 97 478 90 477 l 178 478 q 456 780 302 640 q 471 793 464 787 q 496 826 487 821 q 510 829 503 829 q 545 806 530 829 q 551 790 551 797 q 548 784 550 786 q 515 755 536 774 q 385 479 454 652 l 448 479 q 481 459 467 479 q 488 444 488 450 q 479 437 487 438 l 368 437 q 311 286 349 387 q 224 63 252 132 m 330 479 q 397 641 376 591 q 253 479 319 559 l 330 479 z "},"":{"ha":1141,"x_min":0,"x_max":1158,"o":"m 83 483 l 86 483 q 119 463 103 483 q 125 448 125 454 q 119 441 124 442 q 86 438 103 438 q 21 459 45 439 q 0 501 0 477 q 10 535 0 517 q 28 564 20 553 q 53 592 37 574 q 217 718 122 665 q 353 762 298 762 q 366 762 361 762 q 435 726 406 757 q 477 610 477 681 q 374 309 477 503 q 321 212 356 275 q 292 159 301 176 q 833 884 632 676 q 899 947 869 922 q 1008 998 960 998 q 1076 946 1054 997 q 1093 849 1093 908 q 990 406 1093 709 q 938 255 972 354 q 918 201 932 239 q 838 -66 847 4 q 835 -96 835 -83 q 841 -130 835 -99 q 842 -138 842 -135 q 837 -145 841 -144 l 833 -145 q 792 -105 806 -145 q 786 -69 786 -86 q 863 215 786 0 q 873 242 867 224 q 890 288 885 274 q 1017 686 987 562 q 1045 874 1045 801 q 1031 960 1045 926 l 1029 960 q 821 783 978 960 q 776 731 796 755 q 317 94 577 492 q 249 -14 250 -9 q 237 -15 248 -14 q 181 35 183 -12 q 184 60 181 48 q 265 230 193 102 q 275 248 269 237 q 437 656 437 543 q 393 720 436 714 q 381 720 388 720 q 163 610 296 720 q 52 498 87 548 q 41 479 41 484 q 41 477 41 477 q 81 483 42 476 l 82 483 l 83 483 z "},"":{"ha":966,"x_min":0,"x_max":905,"o":"m 699 1222 q 707 1229 699 1229 q 716 1226 711 1229 q 735 1204 733 1217 q 746 1171 738 1183 q 752 1167 747 1169 q 772 1151 766 1159 q 769 1138 779 1139 q 765 1138 766 1138 q 708 1187 728 1144 q 699 1222 701 1205 m 867 1003 q 883 980 882 989 q 873 971 882 972 q 850 982 863 972 q 763 1013 811 1013 q 637 970 705 1012 q 668 971 648 971 q 890 808 847 971 q 905 676 905 752 q 840 368 905 538 q 646 53 764 169 q 403 -59 530 -58 l 402 -59 q 225 21 289 -58 q 178 126 190 65 q 170 205 170 165 q 172 237 170 216 q 24 355 66 271 q 0 456 0 401 q 146 755 0 615 q 420 924 261 864 q 522 954 473 944 q 593 1009 558 987 q 732 1055 667 1055 q 867 1003 802 1054 m 563 913 q 336 598 435 798 q 225 261 248 418 q 267 259 245 259 q 467 287 356 259 q 468 288 467 287 q 470 288 469 288 q 503 268 486 288 q 510 252 509 258 q 504 245 509 247 q 306 218 393 218 q 221 226 261 218 q 218 171 218 189 q 359 -17 218 -9 q 371 -17 366 -17 l 372 -17 q 659 155 527 -17 q 820 487 764 292 q 857 710 857 613 q 792 907 857 863 q 698 931 757 931 q 563 913 646 931 m 451 882 q 213 736 321 834 q 52 474 74 612 q 49 428 49 450 q 174 269 50 302 q 302 659 194 452 q 451 882 370 787 z "},"":{"ha":966,"x_min":0,"x_max":905,"o":"m 831 1222 q 798 1154 827 1179 q 765 1138 783 1141 q 756 1143 755 1137 q 759 1151 757 1147 q 781 1168 764 1160 q 784 1171 783 1170 q 795 1204 792 1183 q 814 1226 797 1216 q 831 1225 828 1234 q 831 1222 831 1223 m 867 1003 q 883 980 882 989 q 873 971 882 972 q 850 982 863 972 q 763 1013 811 1013 q 637 970 705 1012 q 668 971 648 971 q 890 808 847 971 q 905 676 905 752 q 840 368 905 538 q 646 53 764 169 q 403 -59 530 -58 l 402 -59 q 225 21 289 -58 q 178 126 190 65 q 170 205 170 165 q 172 237 170 216 q 24 355 66 271 q 0 456 0 401 q 146 755 0 615 q 420 924 261 864 q 522 954 473 944 q 593 1009 558 987 q 732 1055 667 1055 q 867 1003 802 1054 m 563 913 q 336 598 435 798 q 225 261 248 418 q 267 259 245 259 q 467 287 356 259 q 468 288 467 287 q 470 288 469 288 q 503 268 486 288 q 510 252 509 258 q 504 245 509 247 q 306 218 393 218 q 221 226 261 218 q 218 171 218 189 q 359 -17 218 -9 q 371 -17 366 -17 l 372 -17 q 659 155 527 -17 q 820 487 764 292 q 857 710 857 613 q 792 907 857 863 q 698 931 757 931 q 563 913 646 931 m 451 882 q 213 736 321 834 q 52 474 74 612 q 49 428 49 450 q 174 269 50 302 q 302 659 194 452 q 451 882 370 787 z "},"":{"ha":966,"x_min":0,"x_max":905,"o":"m 735 1141 q 731 1140 733 1140 q 709 1154 720 1140 q 706 1162 706 1158 q 707 1165 707 1164 q 748 1202 707 1165 q 806 1240 787 1235 q 813 1242 812 1242 q 845 1222 833 1242 q 849 1213 848 1217 q 850 1202 850 1206 q 847 1175 850 1191 q 839 1150 843 1160 l 835 1140 q 830 1137 833 1137 q 809 1150 819 1137 q 806 1161 804 1157 q 817 1197 806 1161 q 820 1211 819 1204 q 784 1185 806 1202 q 749 1154 763 1168 l 735 1141 m 867 1003 q 883 980 882 989 q 873 971 882 972 q 850 982 863 972 q 763 1013 811 1013 q 637 970 705 1012 q 668 971 648 971 q 890 808 847 971 q 905 676 905 752 q 840 368 905 538 q 646 53 764 169 q 403 -59 530 -58 l 402 -59 q 225 21 289 -58 q 178 126 190 65 q 170 205 170 165 q 172 237 170 216 q 24 355 66 271 q 0 456 0 401 q 146 755 0 615 q 420 924 261 864 q 522 954 473 944 q 593 1009 558 987 q 732 1055 667 1055 q 867 1003 802 1054 m 563 913 q 336 598 435 798 q 225 261 248 418 q 267 259 245 259 q 467 287 356 259 q 468 288 467 287 q 470 288 469 288 q 503 268 486 288 q 510 252 509 258 q 504 245 509 247 q 306 218 393 218 q 221 226 261 218 q 218 171 218 189 q 359 -17 218 -9 q 371 -17 366 -17 l 372 -17 q 659 155 527 -17 q 820 487 764 292 q 857 710 857 613 q 792 907 857 863 q 698 931 757 931 q 563 913 646 931 m 451 882 q 213 736 321 834 q 52 474 74 612 q 49 428 49 450 q 174 269 50 302 q 302 659 194 452 q 451 882 370 787 z "},"":{"ha":966,"x_min":0,"x_max":905,"o":"m 867 1003 q 883 980 882 989 q 873 971 882 972 q 850 982 863 972 q 763 1013 811 1013 q 637 970 705 1012 q 668 971 648 971 q 890 808 847 971 q 905 676 905 752 q 840 368 905 538 q 646 53 764 169 q 403 -59 530 -58 l 402 -59 q 225 21 289 -58 q 178 126 190 65 q 170 205 170 165 q 172 237 170 216 q 24 355 66 271 q 0 456 0 401 q 146 755 0 615 q 420 924 261 864 q 522 954 473 944 q 593 1009 558 987 q 732 1055 667 1055 q 867 1003 802 1054 m 563 913 q 336 598 435 798 q 225 261 248 418 q 267 259 245 259 q 467 287 356 259 q 468 288 467 287 q 470 288 469 288 q 503 268 486 288 q 510 252 509 258 q 504 245 509 247 q 306 218 393 218 q 221 226 261 218 q 218 171 218 189 q 359 -17 218 -9 q 371 -17 366 -17 l 372 -17 q 659 155 527 -17 q 820 487 764 292 q 857 710 857 613 q 792 907 857 863 q 698 931 757 931 q 563 913 646 931 m 451 882 q 213 736 321 834 q 52 474 74 612 q 49 428 49 450 q 174 269 50 302 q 302 659 194 452 q 451 882 370 787 z "},"":{"ha":966,"x_min":0,"x_max":905,"o":"m 738 1194 q 764 1176 758 1194 q 764 1168 764 1172 q 744 1140 764 1148 q 731 1137 738 1137 q 705 1155 711 1137 q 705 1162 705 1159 q 725 1191 705 1183 q 738 1194 731 1194 m 821 1194 q 847 1176 842 1194 q 848 1168 848 1172 q 827 1140 848 1148 q 814 1137 821 1137 q 789 1155 794 1137 q 788 1162 788 1159 q 808 1191 788 1183 q 821 1194 814 1194 m 867 1003 q 883 980 882 989 q 873 971 882 972 q 850 982 863 972 q 763 1013 811 1013 q 637 970 705 1012 q 668 971 648 971 q 890 808 847 971 q 905 676 905 752 q 840 368 905 538 q 646 53 764 169 q 403 -59 530 -58 l 402 -59 q 225 21 289 -58 q 178 126 190 65 q 170 205 170 165 q 172 237 170 216 q 24 355 66 271 q 0 456 0 401 q 146 755 0 615 q 420 924 261 864 q 522 954 473 944 q 593 1009 558 987 q 732 1055 667 1055 q 867 1003 802 1054 m 563 913 q 336 598 435 798 q 225 261 248 418 q 267 259 245 259 q 467 287 356 259 q 468 288 467 287 q 470 288 469 288 q 503 268 486 288 q 510 252 509 258 q 504 245 509 247 q 306 218 393 218 q 221 226 261 218 q 218 171 218 189 q 359 -17 218 -9 q 371 -17 366 -17 l 372 -17 q 659 155 527 -17 q 820 487 764 292 q 857 710 857 613 q 792 907 857 863 q 698 931 757 931 q 563 913 646 931 m 451 882 q 213 736 321 834 q 52 474 74 612 q 49 428 49 450 q 174 269 50 302 q 302 659 194 452 q 451 882 370 787 z "},"":{"ha":1088,"x_min":0,"x_max":1177,"o":"m 937 1233 q 945 1240 937 1240 q 954 1237 949 1240 q 973 1215 971 1227 q 984 1181 976 1194 q 990 1178 985 1180 q 1010 1162 1004 1170 q 1007 1149 1017 1149 q 1003 1149 1004 1149 q 946 1198 966 1155 q 937 1233 939 1216 m 109 676 q 136 650 129 668 q 138 644 138 646 q 130 636 136 637 q 119 639 125 637 q 4 733 23 677 q 0 757 0 745 q 54 846 1 802 q 220 934 111 893 q 406 972 327 972 q 515 930 485 972 q 528 884 528 913 q 467 652 528 821 q 448 600 460 632 q 380 404 395 452 q 330 152 330 243 q 387 39 331 54 q 411 37 398 37 q 844 477 559 37 q 1012 751 907 575 q 1116 913 1093 888 q 1137 928 1129 927 l 1138 928 q 1177 886 1177 920 q 1176 875 1177 882 q 1083 637 1168 824 q 942 315 975 401 q 875 56 875 143 q 903 -25 876 -1 q 916 -52 922 -42 q 914 -53 915 -52 q 885 -45 905 -60 q 882 -42 883 -43 q 831 95 831 3 q 982 564 831 250 q 1014 629 994 587 q 1043 689 1036 673 q 751 243 865 391 q 436 -5 559 -4 q 406 -1 420 -5 q 284 191 285 33 q 371 552 284 317 q 385 590 376 566 q 401 633 396 620 q 479 878 469 823 q 483 909 483 897 q 478 931 483 924 q 441 943 469 943 q 227 880 371 943 q 98 808 133 837 q 48 735 49 766 q 107 677 48 701 q 109 676 108 676 z "},"":{"ha":1088,"x_min":0,"x_max":1177,"o":"m 1031 1230 q 998 1162 1027 1187 q 965 1146 983 1149 q 956 1152 956 1145 q 959 1159 957 1156 q 981 1176 964 1168 q 984 1179 983 1178 q 995 1212 992 1191 q 1015 1234 997 1224 q 1031 1233 1028 1242 q 1031 1230 1031 1232 m 109 676 q 136 650 129 668 q 138 644 138 646 q 130 636 136 637 q 119 639 125 637 q 4 733 23 677 q 0 757 0 745 q 54 846 1 802 q 220 934 111 893 q 406 972 327 972 q 515 930 485 972 q 528 884 528 913 q 467 652 528 821 q 448 600 460 632 q 380 404 395 452 q 330 152 330 243 q 387 39 331 54 q 411 37 398 37 q 844 477 559 37 q 1012 751 907 575 q 1116 913 1093 888 q 1137 928 1129 927 l 1138 928 q 1177 886 1177 920 q 1176 875 1177 882 q 1083 637 1168 824 q 942 315 975 401 q 875 56 875 143 q 903 -25 876 -1 q 916 -52 922 -42 q 914 -53 915 -52 q 885 -45 905 -60 q 882 -42 883 -43 q 831 95 831 3 q 982 564 831 250 q 1014 629 994 587 q 1043 689 1036 673 q 751 243 865 391 q 436 -5 559 -4 q 406 -1 420 -5 q 284 191 285 33 q 371 552 284 317 q 385 590 376 566 q 401 633 396 620 q 479 878 469 823 q 483 909 483 897 q 478 931 483 924 q 441 943 469 943 q 227 880 371 943 q 98 808 133 837 q 48 735 49 766 q 107 677 48 701 q 109 676 108 676 z "},"":{"ha":1088,"x_min":0,"x_max":1177,"o":"m 941 1133 q 937 1132 939 1132 q 915 1145 925 1132 q 911 1154 911 1150 q 913 1157 912 1156 q 954 1194 913 1157 q 1012 1232 993 1227 q 1019 1234 1018 1234 q 1050 1214 1038 1234 q 1055 1204 1053 1209 q 1056 1194 1056 1198 q 1052 1167 1056 1183 q 1044 1142 1048 1152 l 1040 1132 q 1036 1129 1039 1129 q 1015 1142 1025 1129 q 1011 1153 1010 1149 q 1023 1189 1011 1153 q 1025 1202 1025 1196 q 990 1177 1011 1194 q 955 1146 968 1160 l 941 1133 m 109 676 q 136 650 129 668 q 138 644 138 646 q 130 636 136 637 q 119 639 125 637 q 4 733 23 677 q 0 757 0 745 q 54 846 1 802 q 220 934 111 893 q 406 972 327 972 q 515 930 485 972 q 528 884 528 913 q 467 652 528 821 q 448 600 460 632 q 380 404 395 452 q 330 152 330 243 q 387 39 331 54 q 411 37 398 37 q 844 477 559 37 q 1012 751 907 575 q 1116 913 1093 888 q 1137 928 1129 927 l 1138 928 q 1177 886 1177 920 q 1176 875 1177 882 q 1083 637 1168 824 q 942 315 975 401 q 875 56 875 143 q 903 -25 876 -1 q 916 -52 922 -42 q 914 -53 915 -52 q 885 -45 905 -60 q 882 -42 883 -43 q 831 95 831 3 q 982 564 831 250 q 1014 629 994 587 q 1043 689 1036 673 q 751 243 865 391 q 436 -5 559 -4 q 406 -1 420 -5 q 284 191 285 33 q 371 552 284 317 q 385 590 376 566 q 401 633 396 620 q 479 878 469 823 q 483 909 483 897 q 478 931 483 924 q 441 943 469 943 q 227 880 371 943 q 98 808 133 837 q 48 735 49 766 q 107 677 48 701 q 109 676 108 676 z "},"":{"ha":1088,"x_min":0,"x_max":1177,"o":"m 916 1199 q 941 1181 936 1199 q 942 1174 942 1177 q 922 1145 942 1154 q 909 1143 916 1143 q 883 1160 888 1143 q 882 1168 882 1164 q 903 1196 882 1188 q 916 1199 909 1199 m 999 1199 q 1025 1181 1019 1199 q 1025 1174 1025 1177 q 1005 1145 1025 1154 q 992 1143 999 1143 q 966 1160 972 1143 q 966 1168 966 1164 q 986 1196 966 1188 q 999 1199 992 1199 m 109 676 q 136 650 129 668 q 138 644 138 646 q 130 636 136 637 q 119 639 125 637 q 4 733 23 677 q 0 757 0 745 q 54 846 1 802 q 220 934 111 893 q 406 972 327 972 q 515 930 485 972 q 528 884 528 913 q 467 652 528 821 q 448 600 460 632 q 380 404 395 452 q 330 152 330 243 q 387 39 331 54 q 411 37 398 37 q 844 477 559 37 q 1012 751 907 575 q 1116 913 1093 888 q 1137 928 1129 927 l 1138 928 q 1177 886 1177 920 q 1176 875 1177 882 q 1083 637 1168 824 q 942 315 975 401 q 875 56 875 143 q 903 -25 876 -1 q 916 -52 922 -42 q 914 -53 915 -52 q 885 -45 905 -60 q 882 -42 883 -43 q 831 95 831 3 q 982 564 831 250 q 1014 629 994 587 q 1043 689 1036 673 q 751 243 865 391 q 436 -5 559 -4 q 406 -1 420 -5 q 284 191 285 33 q 371 552 284 317 q 385 590 376 566 q 401 633 396 620 q 479 878 469 823 q 483 909 483 897 q 478 931 483 924 q 441 943 469 943 q 227 880 371 943 q 98 808 133 837 q 48 735 49 766 q 107 677 48 701 q 109 676 108 676 z "},"":{"ha":794,"x_min":-383,"x_max":800,"o":"m 688 1218 q 654 1149 684 1175 q 622 1134 640 1137 q 613 1139 612 1133 q 616 1147 614 1143 q 637 1164 621 1156 q 641 1166 640 1166 q 652 1200 649 1179 q 671 1222 654 1212 q 688 1221 685 1230 q 688 1218 688 1219 m -275 676 q -247 652 -254 667 q -245 648 -246 650 q -254 637 -242 637 q -264 639 -258 637 q -382 747 -372 683 q -383 758 -383 751 q -287 877 -383 816 q -69 961 -191 937 q 19 970 -21 970 q 132 930 103 970 q 147 876 147 909 q 108 711 147 828 q 58 545 66 591 q 54 498 54 519 q 135 390 56 412 q 171 385 153 385 q 479 627 300 385 q 617 831 517 679 q 696 933 679 925 q 701 935 699 935 l 702 935 q 742 890 741 927 q 741 875 742 885 q 661 548 722 760 q 621 420 642 482 q 757 466 696 452 q 758 467 758 466 q 760 467 760 467 q 793 446 777 467 q 800 431 800 437 q 794 425 799 426 q 598 351 707 405 q 237 -198 415 -177 q 224 -199 231 -199 q 205 -197 217 -199 q 104 -148 149 -189 q 79 -118 88 -134 q 62 -60 62 -91 q 288 225 62 56 q 545 385 414 319 q 552 389 549 387 q 672 808 624 598 q 532 599 579 663 q 195 344 341 345 q 155 349 176 344 q 7 527 7 389 q 55 734 7 600 q 98 869 93 841 q 102 901 102 887 q 95 931 102 921 q 60 941 87 941 q -123 896 -7 941 q -311 783 -259 842 q -335 732 -335 755 q -334 724 -335 726 q -275 676 -329 698 m 525 313 q 245 116 361 222 q 128 -25 161 40 q 111 -87 111 -59 q 172 -155 111 -142 q 180 -156 176 -155 q 195 -157 186 -157 q 438 108 308 -157 q 525 313 481 196 z "},"":{"ha":650,"x_min":-2,"x_max":591,"o":"m 368 956 q 376 962 371 961 q 408 945 391 962 q 416 924 418 932 l 359 769 q 562 663 505 762 q 591 547 591 612 q 520 333 591 437 q 319 173 443 220 q 173 146 250 146 q 153 147 166 146 q 131 149 138 149 q 50 -68 130 149 q 48 -72 49 -71 q 41 -77 45 -77 q 9 -60 26 -77 q 1 -39 -2 -47 l 368 956 m 343 727 l 144 189 q 404 292 288 190 q 530 478 494 372 q 547 569 547 526 q 472 705 547 665 q 368 728 430 728 q 343 727 352 728 z "},"":{"ha":676,"x_min":-35,"x_max":630,"o":"m 15 -66 q 7 -71 13 -71 q -24 -54 -7 -71 q -33 -35 -35 -43 q 14 134 -33 -35 q 290 828 161 626 q 388 935 342 909 q 437 947 409 947 q 534 905 491 947 q 574 816 574 865 q 574 803 574 807 q 479 631 564 724 q 404 564 442 591 q 570 463 505 535 q 630 317 630 395 q 609 228 630 273 q 494 101 580 166 q 305 12 395 26 q 272 9 288 9 q 217 20 240 9 q 152 127 153 54 q 184 229 152 184 q 225 257 205 256 l 227 257 q 260 235 246 256 q 266 222 266 227 q 257 214 264 215 q 256 214 256 214 l 255 215 l 254 215 q 215 163 233 215 q 201 89 201 123 q 212 56 201 62 q 247 48 229 48 q 422 121 317 48 q 549 239 508 180 q 562 262 557 252 q 583 347 583 306 q 499 488 583 433 q 352 536 436 529 q 347 539 352 536 q 311 570 312 559 q 317 577 313 574 q 450 687 386 610 q 491 743 474 715 q 528 844 528 804 q 473 904 528 892 q 472 904 473 904 q 462 905 468 905 q 190 478 353 905 q 20 -47 94 228 q 15 -66 17 -58 z "},"":{"ha":469,"x_min":0,"x_max":537,"o":"m 132 659 q 140 665 132 665 q 149 663 144 665 q 168 640 166 653 q 179 607 171 619 q 185 604 180 606 q 205 587 199 595 q 202 574 212 575 q 198 574 199 574 q 141 624 161 581 q 132 659 134 642 m 218 434 q 189 438 212 422 q 182 444 184 441 q 86 386 129 429 q 48 311 49 348 q 50 296 48 303 q 122 334 76 298 q 190 392 168 370 q 228 432 211 414 l 229 433 q 240 438 233 438 q 271 416 256 438 q 277 402 277 408 q 275 399 276 400 q 271 348 271 370 q 276 311 271 328 q 291 302 280 303 q 494 401 336 302 q 500 403 496 403 q 530 384 515 403 q 537 368 536 374 q 533 361 536 363 q 507 344 525 355 q 363 269 411 283 q 320 261 340 261 q 299 264 312 261 q 224 346 235 280 q 75 254 127 255 l 69 254 q 13 292 35 258 q 3 314 6 302 q 0 336 0 324 q 66 444 0 393 q 144 486 104 474 q 164 488 153 488 q 211 466 193 488 q 218 434 224 449 z "},"":{"ha":469,"x_min":0,"x_max":537,"o":"m 264 659 q 231 590 260 616 q 198 574 216 577 q 189 580 189 573 q 192 587 190 584 q 214 604 197 596 q 217 607 216 606 q 228 640 225 619 q 248 663 230 652 q 264 661 261 670 q 264 659 264 660 m 218 434 q 189 438 212 422 q 182 444 184 441 q 86 386 129 429 q 48 311 49 348 q 50 296 48 303 q 122 334 76 298 q 190 392 168 370 q 228 432 211 414 l 229 433 q 240 438 233 438 q 271 416 256 438 q 277 402 277 408 q 275 399 276 400 q 271 348 271 370 q 276 311 271 328 q 291 302 280 303 q 494 401 336 302 q 500 403 496 403 q 530 384 515 403 q 537 368 536 374 q 533 361 536 363 q 507 344 525 355 q 363 269 411 283 q 320 261 340 261 q 299 264 312 261 q 224 346 235 280 q 75 254 127 255 l 69 254 q 13 292 35 258 q 3 314 6 302 q 0 336 0 324 q 66 444 0 393 q 144 486 104 474 q 164 488 153 488 q 211 466 193 488 q 218 434 224 449 z "},"":{"ha":469,"x_min":0,"x_max":537,"o":"m 168 578 q 164 576 166 576 q 142 590 153 576 q 139 598 139 595 q 140 602 140 600 q 181 639 140 602 q 239 677 220 671 q 246 678 245 678 q 278 659 266 678 q 282 649 281 654 q 283 638 283 642 q 280 612 283 627 q 272 587 276 596 l 268 576 q 263 574 267 574 q 242 587 252 574 q 239 597 237 593 q 250 633 239 597 q 253 647 252 641 q 217 622 239 639 q 182 591 196 604 l 168 578 m 218 434 q 189 438 212 422 q 182 444 184 441 q 86 386 129 429 q 48 311 49 348 q 50 296 48 303 q 122 334 76 298 q 190 392 168 370 q 228 432 211 414 l 229 433 q 240 438 233 438 q 271 416 256 438 q 277 402 277 408 q 275 399 276 400 q 271 348 271 370 q 276 311 271 328 q 291 302 280 303 q 494 401 336 302 q 500 403 496 403 q 530 384 515 403 q 537 368 536 374 q 533 361 536 363 q 507 344 525 355 q 363 269 411 283 q 320 261 340 261 q 299 264 312 261 q 224 346 235 280 q 75 254 127 255 l 69 254 q 13 292 35 258 q 3 314 6 302 q 0 336 0 324 q 66 444 0 393 q 144 486 104 474 q 164 488 153 488 q 211 466 193 488 q 218 434 224 449 z "},"":{"ha":469,"x_min":0,"x_max":537,"o":"m 218 434 q 189 438 212 422 q 182 444 184 441 q 86 386 129 429 q 48 311 49 348 q 50 296 48 303 q 122 334 76 298 q 190 392 168 370 q 228 432 211 414 l 229 433 q 240 438 233 438 q 271 416 256 438 q 277 402 277 408 q 275 399 276 400 q 271 348 271 370 q 276 311 271 328 q 291 302 280 303 q 494 401 336 302 q 500 403 496 403 q 530 384 515 403 q 537 368 536 374 q 533 361 536 363 q 507 344 525 355 q 363 269 411 283 q 320 261 340 261 q 299 264 312 261 q 224 346 235 280 q 75 254 127 255 l 69 254 q 13 292 35 258 q 3 314 6 302 q 0 336 0 324 q 66 444 0 393 q 144 486 104 474 q 164 488 153 488 q 211 466 193 488 q 218 434 224 449 z "},"":{"ha":469,"x_min":0,"x_max":537,"o":"m 171 630 q 197 612 191 630 q 197 605 197 608 q 177 576 197 585 q 164 574 171 574 q 138 591 144 574 q 138 599 138 595 q 158 627 138 619 q 171 630 164 630 m 254 630 q 280 612 275 630 q 281 605 281 608 q 260 576 281 585 q 248 574 254 574 q 222 591 227 574 q 221 599 221 595 q 241 627 221 619 q 254 630 248 630 m 218 434 q 189 438 212 422 q 182 444 184 441 q 86 386 129 429 q 48 311 49 348 q 50 296 48 303 q 122 334 76 298 q 190 392 168 370 q 228 432 211 414 l 229 433 q 240 438 233 438 q 271 416 256 438 q 277 402 277 408 q 275 399 276 400 q 271 348 271 370 q 276 311 271 328 q 291 302 280 303 q 494 401 336 302 q 500 403 496 403 q 530 384 515 403 q 537 368 536 374 q 533 361 536 363 q 507 344 525 355 q 363 269 411 283 q 320 261 340 261 q 299 264 312 261 q 224 346 235 280 q 75 254 127 255 l 69 254 q 13 292 35 258 q 3 314 6 302 q 0 336 0 324 q 66 444 0 393 q 144 486 104 474 q 164 488 153 488 q 211 466 193 488 q 218 434 224 449 z "},"":{"ha":469,"x_min":0,"x_max":537,"o":"m 196 618 q 198 602 194 606 q 205 599 202 599 q 237 626 221 599 q 247 654 247 643 q 205 634 223 653 q 196 618 198 626 m 180 596 q 165 628 165 612 q 195 673 165 655 q 229 682 212 682 q 239 680 233 682 q 273 654 262 675 q 277 637 277 647 q 254 587 277 608 q 222 574 239 574 q 180 596 201 574 m 218 434 q 189 438 212 422 q 182 444 184 441 q 86 386 129 429 q 48 311 49 348 q 50 296 48 303 q 122 334 76 298 q 190 392 168 370 q 228 432 211 414 l 229 433 q 240 438 233 438 q 271 416 256 438 q 277 402 277 408 q 275 399 276 400 q 271 348 271 370 q 276 311 271 328 q 291 302 280 303 q 494 401 336 302 q 500 403 496 403 q 530 384 515 403 q 537 368 536 374 q 533 361 536 363 q 507 344 525 355 q 363 269 411 283 q 320 261 340 261 q 299 264 312 261 q 224 346 235 280 q 75 254 127 255 l 69 254 q 13 292 35 258 q 3 314 6 302 q 0 336 0 324 q 66 444 0 393 q 144 486 104 474 q 164 488 153 488 q 211 466 193 488 q 218 434 224 449 z "},"":{"ha":525,"x_min":-22,"x_max":596,"o":"m 205 434 q 182 435 201 424 q 173 440 176 437 q 77 377 124 423 q 26 286 27 328 q 27 273 26 277 q 204 410 81 279 q 222 431 217 426 q 323 497 279 490 q 331 498 326 498 q 385 469 364 498 q 398 433 398 451 q 393 412 398 421 q 305 338 381 385 q 203 292 231 292 l 202 292 q 197 258 197 278 q 204 237 198 241 q 238 229 219 229 q 471 338 317 229 q 549 399 518 372 q 561 404 555 404 q 591 384 578 404 q 596 369 596 375 q 593 361 595 365 q 373 215 478 260 q 267 189 313 189 q 202 205 231 190 q 149 278 154 233 q 149 281 149 280 q 50 231 86 231 q 42 232 44 231 q -12 270 8 238 q -20 289 -17 279 q -22 311 -22 298 q 46 428 -22 368 q 134 481 90 466 q 153 484 143 484 q 201 464 184 484 q 208 445 208 454 q 205 434 208 439 m 245 368 q 349 453 339 416 q 264 389 313 442 q 255 379 261 386 q 245 368 248 371 z "},"":{"ha":354,"x_min":-25,"x_max":423,"o":"m 22 189 q 27 191 24 191 q 47 178 37 191 q 52 167 53 172 l 37 134 q 74 82 73 110 q 60 56 73 66 q 37 48 50 48 q -12 68 8 48 q -22 90 -22 79 q -7 94 -22 102 q 9 75 7 85 q 40 87 31 70 q 41 91 41 90 q 43 98 43 97 q 12 132 43 119 q 4 135 7 134 q 2 139 2 136 q 22 187 2 146 q 22 189 22 188 m 222 401 q 212 393 218 394 q 181 414 197 393 q 174 433 172 426 l 183 461 q 93 397 144 454 q 24 277 35 333 q 22 260 22 268 q 31 231 23 243 q 47 229 39 229 q 276 336 113 229 q 317 363 290 345 q 378 402 361 393 q 383 404 381 404 q 416 385 399 404 q 423 369 422 375 q 420 363 422 364 q 357 321 402 352 q 162 208 227 235 q 75 186 111 186 q 58 188 68 186 q -10 235 14 195 q -24 275 -22 254 q -25 286 -25 279 q 28 412 -25 342 q 137 499 80 478 q 171 505 155 505 q 229 473 208 505 q 235 450 235 462 q 224 406 235 439 q 222 401 222 403 z "},"":{"ha":351,"x_min":-22,"x_max":415,"o":"m 121 665 q 128 671 120 671 q 138 669 133 671 q 157 646 155 659 q 168 613 159 625 q 174 610 168 612 q 193 593 188 602 q 191 581 201 581 q 186 581 188 581 q 130 630 149 587 q 121 665 123 648 m 33 292 q 22 262 22 287 q 36 233 23 238 q 64 229 49 229 q 304 342 149 229 q 374 399 344 372 q 380 401 377 401 q 408 380 393 401 q 415 362 415 370 q 412 355 414 358 q 340 299 396 339 q 92 188 186 189 q 75 189 80 188 q -21 267 -12 200 q -22 282 -22 275 q 31 413 -22 344 q 131 493 79 476 q 153 497 142 496 l 155 497 q 210 469 187 497 q 224 432 224 451 q 217 407 223 418 q 196 382 210 395 q 166 358 182 369 q 131 337 149 347 q 95 319 112 327 q 64 304 78 311 q 42 296 50 298 l 33 292 m 71 368 q 174 453 163 414 q 85 384 134 441 q 71 368 77 376 z "},"":{"ha":351,"x_min":-22,"x_max":415,"o":"m 254 665 q 220 596 250 622 q 187 581 205 583 q 178 586 178 579 q 181 593 179 590 q 203 610 186 602 q 206 613 205 612 q 217 646 214 625 q 237 669 219 659 q 254 667 250 676 q 254 665 254 666 m 33 292 q 22 262 22 287 q 36 233 23 238 q 64 229 49 229 q 304 342 149 229 q 374 399 344 372 q 380 401 377 401 q 408 380 393 401 q 415 362 415 370 q 412 355 414 358 q 340 299 396 339 q 92 188 186 189 q 75 189 80 188 q -21 267 -12 200 q -22 282 -22 275 q 31 413 -22 344 q 131 493 79 476 q 153 497 142 496 l 155 497 q 210 469 187 497 q 224 432 224 451 q 217 407 223 418 q 196 382 210 395 q 166 358 182 369 q 131 337 149 347 q 95 319 112 327 q 64 304 78 311 q 42 296 50 298 l 33 292 m 71 368 q 174 453 163 414 q 85 384 134 441 q 71 368 77 376 z "},"":{"ha":351,"x_min":-22,"x_max":415,"o":"m 157 585 q 153 583 155 583 q 132 597 142 583 q 128 605 128 602 q 130 608 129 607 q 170 646 130 608 q 229 684 210 678 q 235 685 235 685 q 267 665 255 685 q 271 656 270 661 q 273 645 273 649 q 269 618 273 634 q 261 593 265 603 l 257 583 q 252 581 256 581 q 231 593 241 581 q 228 604 227 600 q 239 640 228 604 q 242 654 241 648 q 207 628 228 646 q 172 597 185 611 l 157 585 m 33 292 q 22 262 22 287 q 36 233 23 238 q 64 229 49 229 q 304 342 149 229 q 374 399 344 372 q 380 401 377 401 q 408 380 393 401 q 415 362 415 370 q 412 355 414 358 q 340 299 396 339 q 92 188 186 189 q 75 189 80 188 q -21 267 -12 200 q -22 282 -22 275 q 31 413 -22 344 q 131 493 79 476 q 153 497 142 496 l 155 497 q 210 469 187 497 q 224 432 224 451 q 217 407 223 418 q 196 382 210 395 q 166 358 182 369 q 131 337 149 347 q 95 319 112 327 q 64 304 78 311 q 42 296 50 298 l 33 292 m 71 368 q 174 453 163 414 q 85 384 134 441 q 71 368 77 376 z "},"":{"ha":351,"x_min":-22,"x_max":415,"o":"m 160 637 q 186 619 180 637 q 186 612 186 615 q 166 583 186 591 q 153 581 160 581 q 127 598 133 581 q 127 606 127 602 q 147 634 127 626 q 160 637 153 637 m 243 637 q 269 619 264 637 q 270 612 270 615 q 250 583 270 591 q 237 581 243 581 q 211 598 216 581 q 210 606 210 602 q 231 634 210 626 q 243 637 237 637 m 33 292 q 22 262 22 287 q 36 233 23 238 q 64 229 49 229 q 304 342 149 229 q 374 399 344 372 q 380 401 377 401 q 408 380 393 401 q 415 362 415 370 q 412 355 414 358 q 340 299 396 339 q 92 188 186 189 q 75 189 80 188 q -21 267 -12 200 q -22 282 -22 275 q 31 413 -22 344 q 131 493 79 476 q 153 497 142 496 l 155 497 q 210 469 187 497 q 224 432 224 451 q 217 407 223 418 q 196 382 210 395 q 166 358 182 369 q 131 337 149 347 q 95 319 112 327 q 64 304 78 311 q 42 296 50 298 l 33 292 m 71 368 q 174 453 163 414 q 85 384 134 441 q 71 368 77 376 z "},"":{"ha":237,"x_min":-4,"x_max":304,"o":"m 67 656 q 75 663 66 663 q 84 661 79 663 q 103 638 101 651 q 114 605 106 617 q 120 602 115 604 q 140 585 134 593 q 137 572 147 573 q 133 572 134 572 q 76 622 96 578 q 67 656 69 640 m 62 495 q 70 500 64 499 q 101 482 85 500 q 110 465 109 472 q 109 461 110 463 q 44 267 50 336 q 43 256 43 261 q 46 236 43 246 l 47 236 q 214 349 104 236 q 263 404 243 379 q 269 406 266 406 q 297 387 282 406 q 304 368 304 376 q 302 363 304 365 q 128 208 205 245 q 76 194 99 194 q 58 197 69 194 q 7 235 24 206 q -4 284 -4 253 q 62 495 -4 357 z "},"":{"ha":237,"x_min":-4,"x_max":304,"o":"m 174 653 q 140 585 170 610 q 108 569 125 572 q 99 574 98 568 q 102 582 100 578 q 123 599 107 591 q 127 602 126 601 q 138 635 135 614 q 157 657 140 647 q 174 656 171 665 q 174 653 174 654 m 62 495 q 70 500 64 499 q 101 482 85 500 q 110 465 109 472 q 109 461 110 463 q 44 267 50 336 q 43 256 43 261 q 46 236 43 246 l 47 236 q 214 349 104 236 q 263 404 243 379 q 269 406 266 406 q 297 387 282 406 q 304 368 304 376 q 302 363 304 365 q 128 208 205 245 q 76 194 99 194 q 58 197 69 194 q 7 235 24 206 q -4 284 -4 253 q 62 495 -4 357 z "},"":{"ha":237,"x_min":-4,"x_max":304,"o":"m 58 581 q 54 580 56 580 q 33 593 43 580 q 29 602 29 598 q 31 605 30 604 q 71 642 31 605 q 130 680 111 675 q 136 682 136 682 q 168 662 156 682 q 172 652 171 657 q 174 642 174 646 q 170 615 174 631 q 162 590 166 600 l 158 580 q 153 577 157 577 q 132 590 142 577 q 129 601 127 597 q 140 637 129 601 q 143 650 142 644 q 107 625 129 642 q 73 594 86 608 l 58 581 m 62 495 q 70 500 64 499 q 101 482 85 500 q 110 465 109 472 q 109 461 110 463 q 44 267 50 336 q 43 256 43 261 q 46 236 43 246 l 47 236 q 214 349 104 236 q 263 404 243 379 q 269 406 266 406 q 297 387 282 406 q 304 368 304 376 q 302 363 304 365 q 128 208 205 245 q 76 194 99 194 q 58 197 69 194 q 7 235 24 206 q -4 284 -4 253 q 62 495 -4 357 z "},"":{"ha":237,"x_min":-4,"x_max":304,"o":"m 83 633 q 109 616 104 633 q 110 608 110 612 q 90 580 110 588 q 77 577 83 577 q 51 595 56 577 q 50 602 50 599 q 71 631 50 623 q 83 633 77 633 m 167 633 q 193 616 187 633 q 193 608 193 612 q 173 580 193 588 q 160 577 167 577 q 134 595 140 577 q 134 602 134 599 q 154 631 134 623 q 167 633 160 633 m 62 495 q 70 500 64 499 q 101 482 85 500 q 110 465 109 472 q 109 461 110 463 q 44 267 50 336 q 43 256 43 261 q 46 236 43 246 l 47 236 q 214 349 104 236 q 263 404 243 379 q 269 406 266 406 q 297 387 282 406 q 304 368 304 376 q 302 363 304 365 q 128 208 205 245 q 76 194 99 194 q 58 197 69 194 q 7 235 24 206 q -4 284 -4 253 q 62 495 -4 357 z "},"":{"ha":419,"x_min":3,"x_max":500,"o":"m 218 479 q 205 481 210 481 q 96 412 146 481 q 47 299 54 355 q 47 287 47 292 q 51 262 47 273 q 218 479 102 278 m 277 455 q 274 457 276 456 q 272 458 273 458 q 261 438 269 453 q 130 249 184 295 q 73 222 99 222 q 42 233 56 223 q 3 325 4 263 q 16 392 3 357 q 111 508 48 476 q 174 523 141 523 q 235 510 203 523 q 300 633 266 566 l 269 633 q 236 653 251 633 q 229 668 229 662 q 238 675 231 674 l 321 675 q 361 754 341 713 q 395 825 380 795 q 420 881 409 856 q 438 920 432 906 l 444 932 q 452 937 446 937 q 483 920 467 937 q 492 903 491 910 q 450 768 492 870 q 414 675 423 702 l 460 675 q 493 654 478 675 q 500 640 500 646 q 491 633 498 633 l 398 633 q 222 106 258 246 q 199 -16 199 22 q 201 -26 199 -20 q 201 -35 201 -32 q 193 -41 200 -41 q 161 -25 178 -41 q 153 -9 154 -17 q 151 12 151 -3 q 261 412 151 104 q 277 455 269 433 z "},"":{"ha":481,"x_min":-107,"x_max":481,"o":"m 69 481 q 77 484 72 484 q 109 460 92 481 q 117 442 117 449 q 116 438 117 440 q 45 312 115 437 q 223 427 176 416 q 233 429 229 428 q 248 428 241 429 q 302 392 280 422 q 319 319 319 368 q 312 236 319 303 q 311 225 311 229 q 313 220 311 221 q 315 218 314 219 q 482 297 338 214 q 507 311 501 308 q 511 312 509 312 q 537 286 524 310 q 544 265 544 273 q 541 257 543 260 q 446 201 473 214 q 340 179 382 171 q 298 200 316 184 q 266 285 266 231 q 269 332 266 301 q 271 373 271 360 l 271 381 q 113 285 231 378 q 7 202 21 212 q -24 188 -16 187 q -65 232 -63 198 q 69 481 -65 246 z "},"":{"ha":325,"x_min":-41,"x_max":393,"o":"m 92 659 q 100 665 92 665 q 109 663 104 665 q 128 640 126 653 q 139 607 131 619 q 145 604 140 606 q 165 587 159 595 q 162 574 172 575 q 158 574 159 574 q 101 624 121 581 q 92 659 94 642 m 98 425 q 114 404 113 412 q 101 393 114 399 q 91 388 94 390 q 153 340 102 352 q 180 426 180 389 q 176 448 180 440 q 168 450 174 450 q 111 436 137 450 q 98 425 102 431 m 41 420 q 41 425 41 422 q 41 428 41 427 q 85 484 41 469 q 125 491 104 491 q 200 465 174 490 q 228 394 228 437 q 216 341 228 368 q 351 403 294 356 q 357 405 354 405 q 386 386 372 405 q 393 370 393 377 q 390 364 393 366 q 214 296 306 296 q 195 297 201 296 q 52 198 134 198 q -5 213 16 198 q -7 216 -6 215 q -41 280 -41 241 q 14 395 -41 334 q 41 420 28 410 m 66 365 q 8 269 20 315 q 6 256 7 262 q 6 240 5 243 q 26 236 16 236 q 117 291 68 236 q 135 313 127 302 q 66 365 93 332 z "},"":{"ha":325,"x_min":-41,"x_max":393,"o":"m 224 659 q 191 590 220 616 q 158 574 176 577 q 149 580 149 573 q 152 587 150 584 q 174 604 157 596 q 177 607 176 606 q 188 640 185 619 q 208 663 190 652 q 224 661 221 670 q 224 659 224 660 m 98 425 q 114 404 113 412 q 101 393 114 399 q 91 388 94 390 q 153 340 102 352 q 180 426 180 389 q 176 448 180 440 q 168 450 174 450 q 111 436 137 450 q 98 425 102 431 m 41 420 q 41 425 41 422 q 41 428 41 427 q 85 484 41 469 q 125 491 104 491 q 200 465 174 490 q 228 394 228 437 q 216 341 228 368 q 351 403 294 356 q 357 405 354 405 q 386 386 372 405 q 393 370 393 377 q 390 364 393 366 q 214 296 306 296 q 195 297 201 296 q 52 198 134 198 q -5 213 16 198 q -7 216 -6 215 q -41 280 -41 241 q 14 395 -41 334 q 41 420 28 410 m 66 365 q 8 269 20 315 q 6 256 7 262 q 6 240 5 243 q 26 236 16 236 q 117 291 68 236 q 135 313 127 302 q 66 365 93 332 z "},"":{"ha":325,"x_min":-41,"x_max":393,"o":"m 128 578 q 124 576 126 576 q 102 590 113 576 q 99 598 99 595 q 100 602 100 600 q 141 639 100 602 q 199 677 180 671 q 206 678 205 678 q 238 659 226 678 q 242 649 241 654 q 243 638 243 642 q 240 612 243 627 q 232 587 236 596 l 228 576 q 223 574 227 574 q 202 587 212 574 q 199 597 197 593 q 210 633 199 597 q 213 647 212 641 q 177 622 199 639 q 142 591 156 604 l 128 578 m 98 425 q 114 404 113 412 q 101 393 114 399 q 91 388 94 390 q 153 340 102 352 q 180 426 180 389 q 176 448 180 440 q 168 450 174 450 q 111 436 137 450 q 98 425 102 431 m 41 420 q 41 425 41 422 q 41 428 41 427 q 85 484 41 469 q 125 491 104 491 q 200 465 174 490 q 228 394 228 437 q 216 341 228 368 q 351 403 294 356 q 357 405 354 405 q 386 386 372 405 q 393 370 393 377 q 390 364 393 366 q 214 296 306 296 q 195 297 201 296 q 52 198 134 198 q -5 213 16 198 q -7 216 -6 215 q -41 280 -41 241 q 14 395 -41 334 q 41 420 28 410 m 66 365 q 8 269 20 315 q 6 256 7 262 q 6 240 5 243 q 26 236 16 236 q 117 291 68 236 q 135 313 127 302 q 66 365 93 332 z "},"":{"ha":325,"x_min":-41,"x_max":393,"o":"m 98 425 q 114 404 113 412 q 101 393 114 399 q 91 388 94 390 q 153 340 102 352 q 180 426 180 389 q 176 448 180 440 q 168 450 174 450 q 111 436 137 450 q 98 425 102 431 m 41 420 q 41 425 41 422 q 41 428 41 427 q 85 484 41 469 q 125 491 104 491 q 200 465 174 490 q 228 394 228 437 q 216 341 228 368 q 351 403 294 356 q 357 405 354 405 q 386 386 372 405 q 393 370 393 377 q 390 364 393 366 q 214 296 306 296 q 195 297 201 296 q 52 198 134 198 q -5 213 16 198 q -7 216 -6 215 q -41 280 -41 241 q 14 395 -41 334 q 41 420 28 410 m 66 365 q 8 269 20 315 q 6 256 7 262 q 6 240 5 243 q 26 236 16 236 q 117 291 68 236 q 135 313 127 302 q 66 365 93 332 z "},"":{"ha":325,"x_min":-41,"x_max":393,"o":"m 131 630 q 157 612 151 630 q 157 605 157 608 q 137 576 157 585 q 124 574 131 574 q 98 591 104 574 q 98 599 98 595 q 118 627 98 619 q 131 630 124 630 m 214 630 q 240 612 235 630 q 241 605 241 608 q 220 576 241 585 q 208 574 214 574 q 182 591 187 574 q 181 599 181 595 q 201 627 181 619 q 214 630 208 630 m 98 425 q 114 404 113 412 q 101 393 114 399 q 91 388 94 390 q 153 340 102 352 q 180 426 180 389 q 176 448 180 440 q 168 450 174 450 q 111 436 137 450 q 98 425 102 431 m 41 420 q 41 425 41 422 q 41 428 41 427 q 85 484 41 469 q 125 491 104 491 q 200 465 174 490 q 228 394 228 437 q 216 341 228 368 q 351 403 294 356 q 357 405 354 405 q 386 386 372 405 q 393 370 393 377 q 390 364 393 366 q 214 296 306 296 q 195 297 201 296 q 52 198 134 198 q -5 213 16 198 q -7 216 -6 215 q -41 280 -41 241 q 14 395 -41 334 q 41 420 28 410 m 66 365 q 8 269 20 315 q 6 256 7 262 q 6 240 5 243 q 26 236 16 236 q 117 291 68 236 q 135 313 127 302 q 66 365 93 332 z "},"":{"ha":316,"x_min":-41,"x_max":385,"o":"m 98 423 q 114 403 113 410 q 100 391 114 398 q 91 386 94 388 q 104 364 95 374 l 154 447 q 98 423 111 441 m 127 347 q 153 339 136 343 q 180 424 180 388 q 180 433 180 431 l 127 347 m 197 517 q 212 513 201 522 q 220 499 223 505 l 199 464 l 200 463 q 228 392 228 435 q 216 339 228 366 q 338 401 275 351 q 345 404 342 404 q 377 384 361 404 q 385 368 385 375 q 382 363 385 365 q 213 294 298 294 q 195 295 201 294 q 52 197 134 197 q 36 197 41 197 l -5 130 q -20 134 -9 126 q -28 148 -31 142 l 6 205 q 1 208 3 206 q -2 210 -1 209 q -5 212 -4 211 q -7 213 -6 212 l -7 214 q -41 279 -41 239 q 15 394 -41 333 q 41 418 28 408 q 41 422 41 420 q 41 426 41 425 q 85 482 41 467 q 125 489 104 489 q 174 479 151 489 l 197 517 m 113 323 l 65 246 q 135 311 104 269 q 113 323 124 316 m 24 234 l 89 340 q 66 363 74 353 q 8 267 20 313 q 6 254 7 260 q 6 238 5 241 q 24 234 15 234 z "},"":{"ha":484,"x_min":0,"x_max":552,"o":"m 194 663 q 201 670 193 670 q 211 667 206 670 q 230 645 228 658 q 241 612 233 624 q 247 608 241 610 q 267 592 261 600 q 264 579 274 580 q 260 579 261 579 q 203 629 222 585 q 194 663 196 646 m 86 506 q 94 509 89 509 q 125 492 109 509 q 134 475 133 481 q 132 470 134 472 q 56 326 78 393 q 46 277 46 297 q 47 264 46 272 q 212 426 102 283 q 252 480 235 456 q 264 488 257 487 q 294 467 281 488 q 300 452 300 458 q 298 446 300 448 q 270 326 280 391 q 267 290 267 304 q 273 266 267 270 q 289 262 279 262 q 436 337 335 262 q 509 400 490 377 q 515 404 513 404 q 545 385 530 404 q 552 370 551 376 q 550 364 551 366 q 443 272 510 315 q 315 224 369 224 q 266 238 286 225 q 220 333 220 269 l 220 342 q 87 223 136 241 q 84 222 85 223 q 71 220 78 220 q 20 247 44 221 q 0 305 0 271 q 86 506 0 383 z "},"":{"ha":484,"x_min":0,"x_max":552,"o":"m 293 658 q 259 589 289 615 q 227 574 244 576 q 218 579 217 572 q 220 587 218 583 q 242 604 226 595 q 245 606 245 606 q 256 640 254 618 q 276 662 258 652 q 293 661 290 669 q 293 658 293 659 m 86 506 q 94 509 89 509 q 125 492 109 509 q 134 475 133 481 q 132 470 134 472 q 56 326 78 393 q 46 277 46 297 q 47 264 46 272 q 212 426 102 283 q 252 480 235 456 q 264 488 257 487 q 294 467 281 488 q 300 452 300 458 q 298 446 300 448 q 270 326 280 391 q 267 290 267 304 q 273 266 267 270 q 289 262 279 262 q 436 337 335 262 q 509 400 490 377 q 515 404 513 404 q 545 385 530 404 q 552 370 551 376 q 550 364 551 366 q 443 272 510 315 q 315 224 369 224 q 266 238 286 225 q 220 333 220 269 l 220 342 q 87 223 136 241 q 84 222 85 223 q 71 220 78 220 q 20 247 44 221 q 0 305 0 271 q 86 506 0 383 z "},"":{"ha":484,"x_min":0,"x_max":552,"o":"m 205 591 q 201 589 203 589 q 179 603 189 589 q 176 611 176 608 q 177 614 176 613 q 218 652 177 614 q 276 690 257 684 q 283 691 282 691 q 315 671 302 691 q 319 662 317 667 q 320 651 320 655 q 316 625 320 640 q 309 600 313 609 l 304 589 q 300 587 303 587 q 279 600 289 587 q 275 610 274 606 q 287 646 275 610 q 290 660 289 654 q 254 634 275 652 q 219 604 233 617 l 205 591 m 86 506 q 94 509 89 509 q 125 492 109 509 q 134 475 133 481 q 132 470 134 472 q 56 326 78 393 q 46 277 46 297 q 47 264 46 272 q 212 426 102 283 q 252 480 235 456 q 264 488 257 487 q 294 467 281 488 q 300 452 300 458 q 298 446 300 448 q 270 326 280 391 q 267 290 267 304 q 273 266 267 270 q 289 262 279 262 q 436 337 335 262 q 509 400 490 377 q 515 404 513 404 q 545 385 530 404 q 552 370 551 376 q 550 364 551 366 q 443 272 510 315 q 315 224 369 224 q 266 238 286 225 q 220 333 220 269 l 220 342 q 87 223 136 241 q 84 222 85 223 q 71 220 78 220 q 20 247 44 221 q 0 305 0 271 q 86 506 0 383 z "},"":{"ha":484,"x_min":0,"x_max":552,"o":"m 230 646 q 256 628 250 646 q 256 621 256 624 q 236 592 256 600 q 223 589 230 589 q 197 607 203 589 q 197 614 197 611 q 217 643 197 635 q 230 646 223 646 m 313 646 q 339 628 334 646 q 340 621 340 624 q 319 592 340 600 q 307 589 313 589 q 281 607 286 589 q 280 614 280 611 q 300 643 280 635 q 313 646 307 646 m 86 506 q 94 509 89 509 q 125 492 109 509 q 134 475 133 481 q 132 470 134 472 q 56 326 78 393 q 46 277 46 297 q 47 264 46 272 q 212 426 102 283 q 252 480 235 456 q 264 488 257 487 q 294 467 281 488 q 300 452 300 458 q 298 446 300 448 q 270 326 280 391 q 267 290 267 304 q 273 266 267 270 q 289 262 279 262 q 436 337 335 262 q 509 400 490 377 q 515 404 513 404 q 545 385 530 404 q 552 370 551 376 q 550 364 551 366 q 443 272 510 315 q 315 224 369 224 q 266 238 286 225 q 220 333 220 269 l 220 342 q 87 223 136 241 q 84 222 85 223 q 71 220 78 220 q 20 247 44 221 q 0 305 0 271 q 86 506 0 383 z "},"":{"ha":429,"x_min":-271,"x_max":535,"o":"m 364 681 q 330 612 360 638 q 298 597 315 600 q 289 602 288 595 q 292 610 290 606 q 313 627 297 618 q 317 629 316 629 q 328 663 325 642 q 347 685 330 675 q 364 684 361 692 q 364 681 364 682 m 79 497 q 109 490 86 507 q 126 463 130 475 q 125 461 125 462 q 45 288 43 342 q 142 352 84 299 q 241 472 205 410 q 257 508 252 492 q 270 512 260 514 q 301 492 287 509 q 307 475 309 481 q 260 315 293 440 q 246 268 252 287 q 455 401 311 313 q 480 395 461 404 q 492 359 513 380 q 477 349 486 354 q 219 180 320 252 q 211 155 217 173 q 46 -227 125 -126 q -113 -260 -37 -332 q -27 51 -229 -151 q 172 216 49 127 q 205 331 184 253 q 187 314 194 319 l 186 314 q 85 248 127 260 q 20 265 51 237 q 2 290 8 276 q -2 334 -6 307 q 79 497 8 397 m -24 -220 q 141 121 52 -140 q -101 -148 -63 -38 q -87 -247 -121 -208 q -24 -220 -65 -263 z "},"":{"ha":300,"x_min":-144,"x_max":277,"o":"m 178 821 q 186 826 181 825 q 218 808 202 826 q 226 789 229 797 q 44 300 221 779 q 176 507 141 483 q 191 511 182 511 q 250 480 218 511 q 255 474 253 477 q 277 404 277 447 q 233 273 277 338 q 127 198 186 206 q 112 197 119 197 q 62 210 85 197 q 41 168 58 203 q -109 -100 -89 -100 l -110 -100 q -144 -68 -144 -90 q -143 -58 -144 -64 q -119 16 -139 -41 q -71 152 -99 73 q -8 321 -42 230 q 58 500 25 412 q 118 660 91 588 q 161 777 144 732 l 178 821 m 205 455 q 77 238 167 411 q 85 237 81 237 q 193 322 144 237 q 233 438 228 384 q 233 448 233 444 q 224 469 233 468 q 205 455 217 468 z "},"":{"ha":429,"x_min":-271,"x_max":535,"o":"m 190 652 q 216 635 210 652 q 216 627 216 631 q 196 599 216 607 q 183 596 190 596 q 157 614 163 596 q 157 621 157 618 q 177 650 157 642 q 190 652 183 652 m 273 652 q 299 635 294 652 q 300 627 300 631 q 279 599 300 607 q 267 596 273 596 q 241 614 246 596 q 240 621 240 618 q 260 650 240 642 q 273 652 267 652 m 79 497 q 109 490 86 507 q 126 463 130 475 q 125 461 125 462 q 45 288 43 342 q 142 352 84 299 q 241 472 205 410 q 257 508 252 492 q 270 512 260 514 q 301 492 287 509 q 307 475 309 481 q 260 315 293 440 q 246 268 252 287 q 455 401 311 313 q 480 395 461 404 q 492 359 513 380 q 477 349 486 354 q 219 180 320 252 q 211 155 217 173 q 46 -227 125 -126 q -113 -260 -37 -332 q -27 51 -229 -151 q 172 216 49 127 q 205 331 184 253 q 187 314 194 319 l 186 314 q 85 248 127 260 q 20 265 51 237 q 2 290 8 276 q -2 334 -6 307 q 79 497 8 397 m -24 -220 q 141 121 52 -140 q -101 -148 -63 -38 q -87 -247 -121 -208 q -24 -220 -65 -263 z "},"":{"ha":1119,"x_min":0,"x_max":1187,"o":"m 218 434 q 197 433 214 425 q 189 438 192 435 q 182 444 183 442 q 86 386 129 429 q 48 311 49 348 q 50 296 48 303 q 101 318 71 299 q 161 366 131 338 q 204 407 191 394 q 228 432 217 420 l 229 433 q 240 438 233 438 q 271 416 256 438 q 276 402 276 408 q 275 399 275 400 q 273 346 273 385 q 273 340 273 343 q 273 335 273 338 q 273 331 273 333 q 274 326 273 328 q 274 322 274 324 q 274 319 274 321 q 275 317 275 318 q 275 315 275 316 l 276 315 q 291 312 282 312 q 497 443 351 312 q 545 488 526 469 q 565 498 554 498 q 592 479 583 498 q 595 467 595 473 q 591 452 595 458 q 519 300 546 361 q 654 450 577 374 q 768 534 739 533 q 773 533 772 534 q 816 469 815 518 q 796 378 816 440 q 878 421 848 420 l 882 421 q 934 383 916 418 q 943 357 941 370 q 944 342 944 347 q 938 288 944 336 q 937 274 937 280 q 1092 363 981 277 q 1141 401 1136 397 q 1147 403 1144 403 q 1179 384 1163 403 q 1187 368 1187 375 q 1184 362 1187 364 q 1156 340 1176 356 q 1001 241 1051 260 q 962 232 979 232 q 951 233 955 232 q 899 267 918 239 q 888 303 888 283 q 894 350 888 307 q 895 376 896 366 q 749 254 844 355 q 741 250 746 250 q 709 269 726 250 q 701 285 702 278 q 702 288 701 288 q 704 293 702 288 q 766 481 757 420 q 652 361 753 469 q 469 191 503 201 q 463 190 465 190 l 461 190 q 456 195 461 191 q 433 223 434 213 q 480 352 434 248 q 317 272 379 272 q 283 279 298 272 q 227 349 239 300 q 76 254 127 254 q 73 254 75 254 q 71 254 71 254 q 14 290 36 258 q 3 314 6 302 q 0 336 0 324 q 66 444 0 393 q 144 486 104 474 q 161 488 152 488 q 212 467 193 488 q 220 446 220 457 q 218 434 220 438 z "},"":{"ha":957,"x_min":0,"x_max":1025,"o":"m 217 434 q 186 439 212 421 q 181 444 183 442 q 90 389 132 429 q 48 311 49 349 q 51 292 48 300 l 54 292 q 97 311 69 292 q 156 360 125 330 q 201 405 187 391 q 227 432 215 419 l 228 433 q 254 428 235 441 q 260 424 257 426 q 275 399 275 411 q 268 363 275 395 q 266 345 266 352 q 272 326 267 332 q 285 320 278 320 q 360 355 305 321 q 544 494 427 396 q 550 496 546 496 q 582 478 565 496 q 591 462 590 469 q 590 458 591 459 q 584 446 590 458 q 519 320 545 370 q 541 342 525 326 q 667 451 621 425 q 726 470 701 470 q 764 457 747 469 q 793 382 793 433 q 791 340 793 368 q 789 301 789 313 q 790 278 789 286 q 977 398 844 288 q 980 401 979 400 q 987 403 983 403 q 1017 384 1002 403 q 1025 368 1024 375 q 1022 363 1024 364 q 911 277 946 300 q 811 237 849 237 q 790 241 799 237 q 739 339 739 263 q 746 412 739 352 q 747 422 747 419 q 745 429 746 428 q 579 304 702 429 q 538 262 566 290 q 455 184 468 189 q 454 184 454 184 l 451 184 q 416 198 432 184 q 407 213 408 205 q 408 218 407 215 q 479 369 407 229 q 402 315 439 338 q 304 279 342 279 q 274 286 288 279 q 226 348 235 307 q 69 257 127 258 q 41 264 54 258 q 3 314 12 283 q 0 334 0 323 q 52 433 0 383 q 152 487 101 481 q 163 488 158 488 q 211 466 193 487 q 217 434 223 450 z "},"":{"ha":940,"x_min":-57,"x_max":1009,"o":"m 59 435 q 66 437 62 437 q 98 417 81 437 q 106 401 105 408 q 102 396 105 398 q 33 331 71 373 q -11 256 -10 282 q 0 236 -10 243 q 20 231 9 231 q 96 272 53 231 q 157 374 144 317 q 160 390 159 382 q 73 444 104 406 q 58 477 58 463 q 67 492 58 488 q 86 497 77 497 q 165 462 122 497 q 199 424 190 442 q 372 496 279 429 q 378 498 374 498 q 409 481 393 498 q 418 464 417 471 q 416 459 418 461 q 343 307 389 407 q 362 328 348 312 q 570 529 515 502 q 589 534 582 534 q 595 533 592 534 q 638 469 637 518 q 618 380 638 440 q 677 408 654 408 l 682 408 q 706 401 695 406 q 723 388 716 396 q 734 370 729 380 q 741 349 739 360 q 745 328 743 338 q 746 308 746 317 q 747 291 747 298 q 747 279 747 283 q 749 274 748 274 q 756 273 752 273 q 922 370 800 273 q 962 401 957 397 q 969 403 966 403 q 1001 384 985 403 q 1009 368 1008 375 q 1006 362 1008 364 q 977 340 998 356 q 823 241 873 260 q 783 232 800 232 q 773 233 777 232 q 702 286 714 243 q 696 348 699 298 q 696 362 696 356 q 583 267 654 345 q 571 254 574 257 q 563 250 568 250 q 531 269 547 250 q 523 285 524 278 q 524 288 523 288 q 526 293 524 288 q 588 480 578 418 q 418 310 543 453 q 311 193 327 206 q 302 186 305 187 q 256 219 273 195 q 327 406 250 245 q 216 382 270 382 l 209 382 q 169 266 212 326 q 67 193 124 205 q 47 191 57 191 q 24 194 33 191 q -41 239 -16 203 q -57 285 -57 261 q -56 299 -57 290 q -21 361 -50 328 q 34 415 8 395 l 59 435 m 157 427 q 121 453 148 450 q 116 454 118 454 q 107 451 110 454 q 106 449 106 450 q 153 427 106 439 q 157 427 155 427 z "},"":{"ha":783,"x_min":-50,"x_max":852,"o":"m 63 435 q 75 435 68 437 q 62 463 62 450 q 94 489 62 486 q 104 490 99 490 q 106 490 105 490 q 109 490 107 490 q 111 489 110 490 q 114 489 112 489 q 116 489 116 489 q 119 488 117 489 l 122 488 q 198 435 168 481 q 292 468 235 445 q 363 489 345 489 q 385 484 377 488 q 410 458 403 473 q 413 450 413 454 q 412 445 413 446 q 349 320 412 444 q 518 463 471 439 q 535 470 528 468 q 551 472 543 472 q 605 446 583 471 q 622 375 622 425 q 615 291 622 361 q 614 280 614 283 q 615 275 614 275 q 618 274 616 274 q 785 382 642 274 q 810 401 804 396 q 816 403 813 403 q 845 385 830 403 q 852 369 852 376 q 849 362 851 364 q 830 347 844 358 q 688 250 739 271 q 641 239 662 239 q 600 252 616 240 q 568 332 568 278 q 572 379 568 348 q 574 421 574 408 l 574 429 q 416 304 534 418 q 310 203 324 216 q 279 184 287 184 q 237 220 241 189 q 340 431 238 235 q 214 388 271 399 l 214 378 q 161 257 214 317 q 106 212 136 228 q 47 196 79 196 q -33 231 -4 196 q -50 279 -50 252 q 59 431 -50 351 q 63 435 61 433 m -7 259 q -3 243 -7 250 q 17 233 3 233 q 99 282 50 233 q 162 380 151 334 q 163 383 163 382 q 110 395 159 383 q 106 396 107 396 q 41 342 87 396 q -7 259 -5 285 m 161 427 q 130 455 149 454 q 111 444 116 455 q 111 441 111 442 q 144 427 112 427 q 161 427 155 427 z "},"":{"ha":696,"x_min":-117,"x_max":761,"o":"m 722 404 q 727 406 724 406 q 753 385 740 406 q 761 366 761 374 q 758 358 760 361 q 391 155 601 204 q 413 49 413 117 q 376 -115 413 -43 q 296 -182 342 -182 q 286 -182 290 -182 q 242 -97 242 -174 q 340 288 242 15 q 344 300 342 296 q 43 154 202 191 q 65 29 65 112 q 31 -159 65 -81 q -41 -227 1 -227 q -75 -216 -56 -227 q -117 -104 -117 -189 q -24 278 -117 18 q -17 298 -19 292 q 147 679 64 530 q 243 804 204 781 q 268 811 256 811 q 313 789 291 810 q 332 738 332 769 q 217 513 332 656 q 77 369 143 421 q 66 361 71 364 q 8 197 41 294 q 301 338 154 222 q 383 411 345 372 q 573 810 493 705 q 611 849 594 839 q 634 856 622 856 q 678 833 656 855 q 694 789 694 817 q 532 493 694 696 q 430 375 475 421 q 369 200 395 280 q 703 386 554 248 q 722 404 713 395 m 354 153 q 285 -133 298 -28 q 353 -20 328 -104 q 368 80 368 32 q 354 153 368 124 m 651 808 q 496 542 594 769 q 627 741 582 652 q 651 808 648 784 m -2 166 q -73 -151 -73 -56 q -68 -185 -73 -174 q -6 -95 -33 -180 q 20 68 20 -16 q -2 166 20 138 m 118 487 q 235 640 181 556 q 288 766 290 726 q 118 487 226 732 z "},"":{"ha":704,"x_min":-26,"x_max":768,"o":"m 33 292 q 21 269 24 289 q 20 262 20 265 q 47 231 22 235 q 62 230 52 230 q 326 361 157 230 q 345 376 336 369 q 438 467 385 430 q 493 494 469 488 q 506 496 500 496 q 563 469 539 496 q 577 434 577 452 q 571 413 576 423 q 410 340 545 370 q 389 336 398 338 q 347 247 348 279 q 384 218 349 219 l 385 218 q 669 354 483 220 q 727 399 711 385 q 732 401 730 401 q 761 380 746 401 q 768 363 768 370 q 765 357 768 359 q 693 302 752 344 q 416 176 517 177 l 415 176 q 329 208 364 176 q 300 273 300 236 q 90 188 171 189 q 73 189 79 188 q -6 232 24 195 q -21 256 -16 244 q -26 287 -26 269 q 35 418 -26 347 q 131 492 85 475 q 146 496 139 495 q 154 497 149 497 q 210 467 186 497 q 223 432 223 450 q 213 401 223 417 q 185 373 202 386 q 148 347 168 359 q 108 325 128 334 q 71 308 87 315 q 43 296 54 300 l 33 292 m 70 368 q 174 452 163 416 q 82 382 133 440 q 70 368 75 374 m 450 404 q 526 452 515 427 q 450 404 494 441 z "},"":{"ha":590,"x_min":-41,"x_max":655,"o":"m 96 427 q 106 417 102 423 q 113 414 108 416 q 114 414 113 414 q 148 411 132 411 q 180 414 165 411 q 177 448 183 436 q 168 449 176 449 q 98 429 113 449 q 96 427 96 428 m 423 555 q 429 557 426 557 q 461 538 444 557 q 469 522 468 528 q 465 516 468 517 q 386 441 398 477 q 382 417 382 429 q 408 337 382 387 q 621 404 500 377 q 623 404 621 404 q 624 405 623 405 q 650 385 640 405 q 655 371 655 377 q 648 361 654 363 q 428 288 524 332 q 431 266 431 275 q 342 174 431 212 q 310 161 327 168 q 305 161 308 161 q 267 182 287 161 q 251 217 252 199 q 259 241 252 229 q 376 323 286 279 q 359 357 371 334 q 334 417 340 395 q 227 374 281 386 q 168 260 216 315 q 54 196 113 197 q 6 208 29 197 q -41 278 -41 235 q 3 378 -41 322 q 52 427 29 412 q 45 448 45 439 q 98 488 45 477 q 117 490 108 490 l 129 490 q 214 451 186 490 q 226 425 222 439 q 358 505 294 448 q 423 555 383 532 m 93 389 q 35 322 64 369 q 7 261 12 287 q 7 248 7 256 q 22 228 7 229 q 105 285 49 228 q 168 370 153 334 q 93 389 125 372 m 325 226 q 366 256 352 241 q 325 226 347 244 z "},"":{"ha":464,"x_min":-63,"x_max":1017,"o":"m 92 299 q 102 214 113 241 q 6 160 85 176 q -26 176 -9 157 q -31 182 -29 180 q -13 280 -63 227 q 35 323 -9 285 q 41 330 38 327 q 23 436 16 397 q 121 555 35 503 q 153 543 133 562 q 165 516 172 525 q 163 515 164 515 q 71 379 65 458 q 73 361 71 370 q 293 633 189 478 q 227 622 260 628 q 166 612 193 616 q 113 602 138 607 q 70 594 88 597 q 37 587 51 590 q 16 583 23 585 l 8 581 q -23 595 -5 578 q -26 599 -25 597 q -30 603 -28 601 q -32 606 -31 604 q -34 610 -33 608 q -35 613 -35 611 q -35 616 -35 614 q -35 618 -35 617 q -34 620 -35 619 q -32 622 -33 621 q -29 623 -31 623 q -26 623 -29 623 q 326 684 148 660 q 470 940 400 800 q 472 943 471 942 l 479 962 q 503 962 483 973 q 507 960 506 960 q 527 933 526 947 q 526 930 526 931 q 519 910 526 930 q 448 698 480 797 q 987 667 836 736 q 1013 642 1007 659 q 1015 638 1014 640 q 1006 628 1017 628 q 994 631 1000 629 q 433 651 846 699 q 226 -128 217 -9 q 212 -136 227 -140 q 203 -133 207 -135 q 178 -107 183 -123 q 177 -103 177 -104 q 370 638 168 17 q 92 299 242 444 m 8 212 q 58 266 57 231 q 8 212 16 225 z "},"":{"ha":455,"x_min":-41,"x_max":549,"o":"m 247 -30 q 270 -59 267 -44 q 262 -66 269 -66 l 260 -66 q 214 -41 235 -66 q 206 -30 209 -35 q 200 8 200 -18 q 334 500 200 125 q 92 123 186 247 q 41 66 58 79 q 20 58 30 58 q -28 94 -9 58 q -41 139 -41 116 q 71 517 -41 245 q 125 646 89 560 q 211 858 191 801 q 219 863 214 863 q 251 846 235 863 q 260 829 259 836 q 176 555 260 739 q 129 452 161 521 q 24 205 47 279 q 7 113 8 151 q 231 441 70 176 q 268 502 250 472 q 501 943 440 792 q 509 947 504 947 q 541 930 524 947 q 549 913 549 920 q 447 571 549 831 q 394 439 430 528 q 262 85 289 179 q 245 -9 245 24 q 247 -30 245 -24 z "},"":{"ha":729,"x_min":-61,"x_max":797,"o":"m 106 555 q 111 557 109 557 q 144 538 127 557 q 151 522 151 528 q 148 516 151 517 q 64 413 64 466 q 73 373 64 393 q 473 933 310 633 q 479 945 476 939 q 486 949 481 948 q 518 930 501 949 q 527 914 526 921 q 526 910 527 911 q 336 397 429 661 q 290 260 307 315 q 402 414 377 383 q 439 452 424 439 q 475 467 456 467 q 529 429 507 467 q 534 418 532 423 q 547 342 541 401 q 555 306 551 315 l 557 306 q 758 405 606 307 q 763 407 760 407 q 791 387 777 407 q 797 370 797 377 q 793 363 796 366 q 628 271 677 288 q 593 264 608 264 l 589 264 q 531 289 556 264 q 498 371 505 315 q 492 421 494 413 q 377 282 459 398 q 281 155 302 176 q 257 138 265 139 q 214 170 220 138 q 214 180 214 176 q 346 590 214 232 q 368 649 354 612 q 100 316 258 488 q 113 267 113 290 q 39 180 113 214 q -7 161 20 171 q -9 161 -7 161 l -12 161 q -47 180 -29 161 q -61 208 -60 193 q -59 218 -61 213 q 28 325 -51 239 q 47 345 41 338 q 15 445 15 410 q 76 536 15 494 q 106 555 90 546 m 28 239 q 61 274 54 256 q 28 239 39 250 z "},"":{"ha":420,"x_min":-201,"x_max":851,"o":"m 205 923 q 231 922 209 935 q 254 895 254 908 q 254 890 254 892 l 215 777 q 410 794 330 790 q 430 835 416 807 q 487 962 473 923 q 513 961 491 975 q 535 933 535 947 q 534 930 534 931 q 489 798 519 885 q 821 753 715 802 q 847 728 841 745 q 848 724 848 726 q 840 714 850 714 q 828 718 834 715 q 475 755 719 767 q 245 5 290 205 q 227 -128 224 -90 q 209 -134 228 -142 q 180 -110 188 -126 q 178 -103 179 -106 q 332 518 170 7 q 61 96 144 151 q -1 102 31 77 q -22 128 -14 113 q 74 532 -44 177 q 137 720 86 570 q 68 710 103 715 q 6 699 34 704 q -48 689 -22 694 q -94 681 -75 684 q -129 674 -114 677 q -151 669 -143 671 l -158 667 q -189 682 -172 664 q -193 685 -191 684 q -196 689 -194 687 q -198 692 -197 690 q -200 696 -199 694 q -201 699 -201 697 q -201 702 -201 701 q -201 704 -201 703 q -200 706 -201 705 q -198 708 -199 707 q -195 709 -197 709 q -192 709 -195 709 q 153 769 -22 745 q 205 923 195 889 m 199 729 q 73 357 93 418 q 20 137 22 191 q 273 517 99 190 q 389 750 330 627 q 199 729 300 743 z "},"":{"ha":635,"x_min":-37,"x_max":709,"o":"m 105 394 q 57 350 91 394 q 9 250 11 288 q 10 239 9 243 q 30 236 18 236 q 125 296 74 236 q 179 391 170 347 q 180 404 180 398 q 174 422 180 416 l 174 422 q 174 420 175 420 q 157 422 165 422 q 139 421 151 422 q 121 420 127 420 q 111 421 114 420 l 111 420 q 105 394 121 395 m 62 433 q 77 436 68 436 q 71 459 69 445 q 143 482 73 469 q 272 495 211 495 q 382 473 347 495 q 441 491 406 491 q 515 465 486 490 q 546 396 546 438 q 535 341 546 370 q 658 402 591 353 q 669 411 664 407 q 676 413 673 413 q 703 395 690 413 q 709 382 709 387 q 705 375 708 378 q 528 296 608 297 q 513 297 517 296 q 423 210 476 236 q 370 195 396 195 q 302 222 333 196 q 276 280 276 245 q 336 399 276 335 q 359 420 348 411 q 363 450 357 436 q 317 454 345 454 q 191 443 263 454 q 225 374 225 416 q 172 256 225 317 q 123 214 149 229 q 60 195 91 195 q 8 208 33 195 q -37 281 -37 233 q 11 390 -37 334 q 62 433 37 420 m 418 429 q 425 415 419 425 q 431 399 431 404 q 423 394 429 395 l 420 394 l 410 387 q 465 342 420 353 q 471 341 469 342 q 498 412 490 372 q 500 431 500 423 q 495 448 500 443 q 484 450 492 450 q 429 435 456 450 q 418 429 422 431 m 385 365 q 332 286 350 328 q 323 252 323 266 q 326 239 323 244 q 343 236 334 236 q 437 293 385 236 q 453 313 446 303 q 385 365 410 332 z "},"":{"ha":528,"x_min":-45,"x_max":595,"o":"m 95 422 q 109 395 113 407 q 100 391 108 390 q 88 385 95 390 q 151 338 99 348 q 178 425 176 388 q 174 443 178 435 q 158 445 172 445 q 95 422 113 444 m 208 293 q 196 266 197 288 q 212 233 197 240 q 239 230 223 230 q 498 358 330 230 q 549 399 533 385 q 555 402 553 402 q 587 382 571 402 q 595 367 595 374 q 593 361 595 363 q 520 304 576 345 q 264 189 361 189 q 231 193 245 189 q 164 239 188 205 q 158 249 161 244 q 52 192 106 193 q 3 205 27 193 q -45 276 -44 231 q 11 391 -45 330 q 39 416 25 405 q 38 425 38 420 q 87 482 38 467 q 124 488 104 488 q 157 483 141 488 q 216 435 198 471 q 219 428 218 431 q 317 495 271 485 q 332 497 325 497 q 345 496 340 497 q 391 458 376 487 q 395 450 394 454 q 398 434 398 442 q 271 319 398 380 q 208 293 239 304 m 64 361 q 17 292 44 339 q -2 245 -2 258 q 1 238 -1 240 q 22 233 13 233 q 115 289 64 233 q 132 309 125 300 q 64 361 90 329 m 174 444 m 245 368 q 349 454 340 418 q 260 385 312 444 q 245 368 251 376 z "},"":{"ha":1415,"x_min":0,"x_max":1482,"o":"m 867 968 q 883 944 882 954 q 873 936 882 937 q 850 947 863 937 q 763 977 812 977 q 636 935 703 976 q 667 936 656 936 q 882 793 832 936 q 899 725 893 762 q 1036 846 945 785 q 1265 931 1166 931 q 1333 917 1302 931 q 1372 864 1371 899 q 1291 734 1372 811 q 1259 707 1274 720 q 1253 705 1255 705 q 1221 724 1237 705 q 1213 740 1213 733 q 1215 746 1213 744 q 1274 804 1234 760 q 1323 878 1322 858 q 1308 889 1322 888 q 1066 803 1189 889 q 911 635 964 730 q 902 580 905 624 q 901 566 901 571 q 983 549 921 549 q 1012 550 996 549 q 1041 552 1027 551 q 1069 555 1055 553 q 1093 558 1082 557 q 1113 562 1104 560 q 1126 564 1121 563 l 1131 564 q 1133 565 1131 564 q 1134 565 1134 565 q 1166 545 1150 565 q 1173 530 1173 536 q 1170 524 1173 525 q 816 271 964 407 q 654 28 747 122 q 657 4 652 22 q 662 -5 659 -3 q 718 -22 684 -22 q 1183 208 854 -22 q 1442 404 1341 317 q 1448 406 1445 406 q 1475 388 1461 406 q 1482 372 1482 379 q 1479 366 1481 368 q 1153 119 1324 231 q 740 -57 884 -56 q 622 -2 659 -56 q 403 -95 514 -95 l 402 -95 q 203 20 262 -94 q 171 174 171 85 q 172 202 171 193 q 24 319 67 235 q 0 420 0 366 q 146 720 0 580 q 420 889 260 829 q 521 919 472 909 q 732 1019 632 1019 q 867 968 804 1018 m 897 538 q 859 382 886 464 q 1042 511 944 449 l 1038 511 q 897 538 944 511 m 606 61 q 769 307 614 165 q 851 587 833 448 q 846 612 846 600 q 857 655 846 633 l 857 679 q 785 872 857 829 q 690 894 749 894 q 562 878 635 894 q 537 853 560 876 q 323 536 415 730 q 225 225 245 370 q 267 224 239 224 q 467 252 356 224 q 498 238 480 255 q 501 235 500 236 q 504 231 503 233 q 507 227 506 229 q 509 223 508 225 q 510 220 509 222 q 510 218 510 219 q 510 215 510 216 q 508 213 509 214 q 506 211 507 212 q 504 210 505 210 q 306 183 393 183 q 221 190 258 183 q 218 137 218 155 q 371 -52 220 -51 l 372 -52 q 606 61 493 -52 m 451 846 q 213 701 321 799 q 52 439 74 576 q 49 393 49 415 q 174 234 50 267 q 302 624 194 418 q 451 846 370 751 z "},"":{"ha":236,"x_min":50,"x_max":195,"o":"m 79 528 q 75 527 77 527 q 54 541 64 527 q 50 549 50 545 q 52 552 51 551 q 92 589 52 552 q 151 627 132 622 q 157 629 157 629 q 189 609 177 629 q 193 600 192 604 q 195 589 195 593 q 191 562 195 578 q 183 537 187 547 l 179 527 q 174 524 178 524 q 153 537 163 524 q 150 548 149 544 q 161 584 150 548 q 164 597 163 591 q 129 572 150 589 q 94 541 107 555 l 79 528 z "},"":{"ha":338,"x_min":-137,"x_max":31,"o":"m -9 84 q -14 83 -11 83 q -35 100 -24 85 q -39 109 -39 105 q -37 112 -38 110 q 12 134 -10 137 q 53 103 28 131 q 55 101 54 102 q 66 92 62 93 q 99 110 78 91 q 104 111 101 111 q 125 93 115 109 q 129 84 129 88 q 127 81 128 82 q 82 62 103 58 q 41 92 65 65 q 39 95 39 94 q 26 104 31 102 q -9 84 14 105 z "},"":{"ha":203,"x_min":39,"x_max":151,"o":"m 70 552 q 72 536 68 540 q 79 532 76 532 q 111 559 95 532 q 121 588 121 576 q 79 568 97 587 q 70 552 72 559 m 54 530 q 39 562 39 546 q 69 606 39 589 q 102 615 85 615 q 113 614 106 615 q 147 588 136 608 q 151 570 151 581 q 128 521 151 542 q 96 507 113 507 q 54 530 75 508 z "},"":{"ha":237,"x_min":-4,"x_max":304,"o":"m 62 495 q 70 500 64 499 q 101 482 85 500 q 110 465 109 472 q 109 461 110 463 q 44 267 50 336 q 43 256 43 261 q 46 236 43 246 l 47 236 q 214 349 104 236 q 263 404 243 379 q 269 406 266 406 q 297 387 282 406 q 304 368 304 376 q 302 363 304 365 q 128 208 205 245 q 76 194 99 194 q 58 197 69 194 q 7 235 24 206 q -4 284 -4 253 q 62 495 -4 357 z "},"":{"ha":614,"x_min":-136,"x_max":1179,"o":"m 640 951 q 645 956 642 955 q 646 958 645 957 q 646 960 646 960 q 663 966 646 972 q 670 962 667 964 q 693 937 690 951 q 694 933 694 935 q 634 763 693 869 q 608 686 617 714 q 1147 656 996 725 q 1174 629 1168 646 q 1167 617 1179 616 q 1155 621 1162 617 q 593 640 1006 688 q 387 -134 382 -1 q 387 -140 387 -138 q 369 -146 388 -153 q 340 -121 347 -138 q 338 -115 338 -117 q 517 587 329 2 q 279 287 445 488 q 151 -47 227 113 q -7 -275 64 -229 q -90 -283 -50 -302 q -132 -218 -128 -264 q -123 -160 -135 -191 q -78 -76 -108 -124 q 5 40 -47 -28 q 96 155 58 108 q 208 292 134 201 q 220 307 212 296 q 232 321 228 317 q 251 391 241 354 l 255 408 q 129 281 181 309 q 41 281 78 253 q 10 375 -7 317 q 79 461 25 427 q 210 488 140 499 q 233 476 220 486 q 255 509 244 491 q 273 513 260 515 q 315 436 323 504 q 312 419 313 428 q 473 624 409 538 q 402 613 438 618 q 338 602 367 607 q 281 592 309 597 q 234 583 254 587 q 199 576 214 579 q 176 571 184 573 l 168 570 q 135 586 153 566 q 129 610 119 604 q 132 612 130 611 q 138 613 132 612 q 509 675 327 652 q 586 795 559 748 q 613 875 600 834 q 633 933 627 916 l 640 951 m 214 449 q 90 394 145 452 q 52 328 56 357 q 53 319 52 323 q 166 393 63 279 q 214 449 201 431 m 16 -167 q 179 165 98 -52 q -56 -154 -4 -60 q -75 -193 -68 -176 q -90 -248 -94 -239 q -50 -236 -82 -256 q 16 -167 -20 -217 z "},"":{"ha":630,"x_min":-174,"x_max":1179,"o":"m 640 951 q 645 956 642 955 q 646 958 645 957 q 646 960 646 960 q 663 966 646 972 q 670 962 667 964 q 693 937 690 951 q 694 933 694 935 q 635 766 693 869 q 623 730 631 755 q 608 686 613 701 q 1147 656 996 725 q 1174 629 1168 646 q 1167 617 1179 616 q 1155 621 1162 617 q 593 640 1006 688 q 387 -140 377 -18 q 368 -146 387 -153 q 340 -121 347 -138 q 338 -115 338 -117 q 518 589 329 1 q 279 288 441 483 q 161 -26 231 127 q -58 -290 37 -294 q -75 -286 -67 -289 q -127 -245 -111 -275 q -128 -243 -127 -244 q 187 269 -174 -158 q 232 322 228 317 q 250 388 243 363 q 254 405 252 395 q 166 304 201 332 q 85 281 121 269 q 28 409 5 308 q 88 535 43 475 q 91 538 90 537 q 120 532 98 548 q 138 504 142 515 q 136 502 137 503 q 77 389 94 448 q 75 320 65 347 q 247 496 131 322 q 250 500 248 498 q 255 509 254 507 q 274 513 261 516 q 315 441 321 503 q 313 420 315 432 q 471 624 403 532 q 401 613 437 618 q 337 602 366 607 q 281 592 308 597 q 234 583 254 587 q 199 576 214 579 q 176 571 184 573 l 168 570 q 135 586 153 566 q 129 610 119 604 q 132 612 130 611 q 136 612 132 612 q 508 675 320 650 q 587 798 558 746 l 640 951 m 179 165 q -64 -165 -14 -71 q -87 -248 -94 -222 q 52 -110 -33 -255 q 179 165 121 10 z "},"":{"ha":402,"x_min":-403,"x_max":941,"o":"m -60 164 q -290 -146 -238 -52 q -302 -168 -297 -158 q -318 -256 -339 -245 q -260 -222 -300 -264 q -243 -203 -252 -213 q -66 149 -163 -109 q -60 164 -63 157 m 416 968 q 432 962 422 967 q 456 937 452 951 q 456 933 456 935 q 394 757 456 867 q 371 686 391 746 q 910 656 758 725 q 937 629 931 646 q 928 617 941 616 q 917 621 924 617 q 355 640 768 688 q 149 -140 139 -20 q 130 -146 149 -153 q 102 -121 109 -138 q 100 -115 100 -117 q 278 583 91 3 q 41 287 205 484 q -198 -240 -87 -106 q -320 -286 -262 -315 q -349 -134 -402 -245 q -117 190 -294 -20 q -63 254 -98 212 q -5 321 -23 300 q 52 523 36 448 q 73 526 54 534 q 80 522 77 524 q 101 494 101 508 q 101 492 101 492 q 85 432 100 484 q 237 625 173 538 q 140 610 214 621 l 117 549 q 90 551 112 537 q 68 578 68 566 q 69 582 68 581 l 75 598 q 27 589 51 594 q -13 581 3 585 q -43 575 -30 578 q -62 571 -56 572 l -69 570 q -102 586 -84 566 q -109 610 -119 604 q -106 612 -107 611 q -99 613 -106 612 q 273 675 90 652 q 346 789 316 736 q 374 872 360 831 q 395 932 389 913 l 401 951 q 408 956 403 955 l 408 960 q 416 968 409 967 z "},"":{"ha":635,"x_min":-317,"x_max":710,"o":"m 657 399 q 690 388 669 407 q 701 361 709 370 q 700 360 701 360 q 677 345 693 356 q 532 267 583 282 q 431 283 467 248 q 395 391 399 315 q 394 417 395 396 q 264 269 346 387 q 186 157 194 167 q 170 137 177 145 q 130 144 153 125 q 113 180 113 161 q 304 745 117 246 q 179 686 250 713 q -56 -140 -66 -14 q -71 -147 -55 -151 q -79 -144 -75 -146 q -104 -118 -98 -134 q -104 -114 -104 -115 q 111 661 -114 11 q -264 571 -67 602 q -275 570 -273 570 q -307 585 -289 568 q -309 589 -308 587 q -313 594 -311 591 q -316 600 -315 597 q -317 604 -317 602 q -316 608 -317 606 q -314 610 -315 609 q -310 612 -312 612 q -189 633 -294 612 q 133 724 -4 671 q 174 839 153 782 q 205 924 195 897 l 215 951 q 239 951 219 962 q 243 948 241 949 q 263 922 262 935 q 262 918 262 920 q 203 753 262 919 q 340 838 288 792 q 355 879 349 861 q 367 911 362 897 q 375 932 372 924 l 378 939 q 406 936 382 951 q 418 925 413 930 q 431 918 423 923 q 450 890 452 903 q 450 888 450 889 q 387 803 433 846 q 189 255 249 439 q 216 293 197 266 q 335 444 297 410 q 347 453 341 449 q 393 457 370 470 q 441 384 434 434 q 444 357 443 375 q 454 300 447 317 q 657 399 500 298 z "}}}
